<svg width="114" height="151" viewBox="0 0 114 151" fill="none" xmlns="http://www.w3.org/2000/svg">
<path d="M3.14934 75.8991C7.96218 75.9435 12.4975 77.3969 16.425 80.1207C15.9206 80.5713 15.4216 81.0307 14.9319 81.507C13.3297 83.0654 14.4403 85.7989 16.6753 85.7989C17.3035 85.7989 17.9325 85.5635 18.4185 85.0907C29.8776 73.9444 46.7592 70.615 63.5761 76.1854C64.8868 76.6194 66.3015 75.9088 66.7355 74.5982C67.1696 73.2876 66.459 71.8729 65.1483 71.4388C49.8895 66.3847 33.4263 67.6922 20.4722 76.8891C15.2253 72.8451 9.07249 70.8985 3.17216 70.8985C1.80215 70.8985 0.685269 72.0029 0.672769 73.3754C0.659644 74.7569 1.76871 75.8866 3.14934 75.8991Z" fill="black"/>
<path d="M90.6406 110.925C90.0806 109.663 88.6031 109.093 87.3416 109.653C72.869 116.075 48.9776 119.661 25.326 110.471C24.3022 110.073 23.1372 110.39 22.4569 111.254C17.7656 117.206 10.8084 121.023 2.86651 122.002C1.49619 122.17 0.522125 123.418 0.690875 124.789C0.860564 126.165 2.11338 127.133 3.47776 126.964C7.52997 126.465 11.3622 125.319 14.8584 123.609C24.0619 126.124 25.3857 127.141 26.5347 127.141C27.5644 127.141 28.5288 126.5 28.8916 125.474C29.3519 124.172 28.6697 122.743 27.3682 122.283C25.1182 121.488 22.8741 120.752 20.5975 120.06C22.2607 118.781 23.8028 117.348 25.2004 115.766C47.1242 123.769 71.3593 122.215 89.3687 114.224C90.6313 113.664 91.2006 112.186 90.6406 110.925Z" fill="black"/>
<path d="M50.4943 131.885C47.4889 130.751 43.7305 128.951 39.148 126.955C37.882 126.404 36.4092 126.983 35.8576 128.249C35.3064 129.515 35.8855 130.988 37.1514 131.539C41.8155 133.571 45.5142 135.35 48.7283 136.563C50.0086 137.047 51.4586 136.409 51.9502 135.107C52.4377 133.815 51.7858 132.373 50.4943 131.885Z" fill="black"/>
<path d="M99.4833 113.954C100.62 113.954 101.648 113.174 101.916 112.019C102.38 110.023 102.714 107.91 102.929 105.732C106.696 102.332 109.233 98.5918 110.29 94.8658C115.536 76.3682 112.688 63.4613 109.933 50.9797C106.652 36.1137 106.535 32.0118 106.638 22.6965C106.717 15.5967 106.761 11.6858 101.903 7.33609C97.9621 3.8067 90.3477 0.897935 83.3864 0.261995C77.8329 -0.245507 72.5542 2.15513 68.116 7.20265C64.9904 10.7583 66.5723 15.5542 68.196 18.9208C67.3951 19.5021 66.7201 20.1996 66.2123 21.0108C64.1229 24.3487 65.017 30.1443 67.1263 33.2584C69.4851 36.7406 75.8333 37.8584 83.4658 36.3087C81.8577 49.5931 69.616 61.3219 73.9142 88.3445C74.1098 89.5752 75.1723 90.4524 76.3801 90.4524C77.9261 90.4524 79.0926 89.072 78.852 87.5595C74.4114 59.635 88.8686 49.7725 88.6402 33.0371C88.6177 31.3871 87.0258 30.2068 85.4383 30.6721C77.1679 33.0924 72.1267 31.7249 71.266 30.4546C70.0604 28.6746 69.6185 24.9937 70.4507 23.6643C71.2295 22.4199 73.972 21.4715 77.5211 22.1658C78.3904 22.3358 79.2833 22.0336 79.8708 21.3721L83.4308 17.3624C84.3477 16.3299 84.2536 14.7499 83.2211 13.833C82.1886 12.9164 80.6086 13.0102 79.6917 14.0427L77.0354 17.0346C75.5779 16.8683 74.1792 16.8942 72.8839 17.0939C71.6723 14.6164 70.7001 11.8367 71.8717 10.5042C75.2598 6.65077 78.9817 4.88108 82.9323 5.24139C88.733 5.77139 95.4555 8.27328 98.5687 11.0608C102.545 14.6211 101.483 16.9967 101.629 28.1393C101.943 52.16 113.334 65.8113 105.481 93.5014C104.624 96.5221 102.354 99.6693 98.9162 102.602C97.5171 103.794 98.4412 104.883 97.0465 110.888C96.6824 112.453 97.8708 113.954 99.4833 113.954Z" fill="black"/>
<path d="M73.7736 133.657C69.9086 134.42 65.9114 134.561 62.0164 134.245C60.6423 134.137 59.4342 135.159 59.3229 136.536C59.2117 137.912 60.237 139.118 61.6129 139.229C65.9586 139.581 70.4136 139.418 74.743 138.562C76.0977 138.294 76.9786 136.979 76.7111 135.625C76.443 134.27 75.1271 133.39 73.7736 133.657Z" fill="black"/>
<path d="M96.061 120.828C94.9085 120.067 93.3581 120.385 92.5972 121.537C90.4706 124.757 87.7463 127.431 84.4987 129.485C82.3815 130.824 83.3487 134.098 85.8375 134.098C86.2944 134.098 86.7566 133.973 87.1716 133.711C91.0213 131.276 94.2507 128.107 96.7697 124.292C97.5307 123.14 97.2135 121.589 96.061 120.828Z" fill="black"/>
<path d="M113.182 146.252L107.84 138.698L109.421 138.9C110.793 139.074 112.043 138.107 112.218 136.738C112.394 135.368 111.425 134.116 110.056 133.94C102.336 132.952 102.596 132.935 102.036 133.044C101.063 133.232 100.268 133.987 100.064 134.999L98.6769 141.831C98.4022 143.184 99.2766 144.503 100.63 144.778C101.988 145.053 103.303 144.173 103.577 142.825L103.813 141.663L109.1 149.139C109.899 150.268 111.46 150.532 112.584 149.736C113.712 148.939 113.979 147.379 113.182 146.252Z" fill="black"/>
<path d="M19.5686 134.999C19.3583 133.968 18.5251 133.177 17.4792 133.024C16.9883 132.952 17.3217 132.949 9.57635 133.941C8.20665 134.116 7.23853 135.368 7.41384 136.738C7.58946 138.107 8.8426 139.076 10.211 138.9L11.792 138.698L6.44977 146.252C5.65258 147.379 5.92008 148.939 7.04728 149.736C8.17697 150.535 9.73635 150.264 10.532 149.139L15.8189 141.663L16.0545 142.825C16.3292 144.179 17.6492 145.052 19.0017 144.778C20.3548 144.503 21.2292 143.184 20.9548 141.831L19.5686 134.999Z" fill="black"/>
</svg>
