<svg width="171" height="150" viewBox="0 0 171 150" fill="none" xmlns="http://www.w3.org/2000/svg">
<path d="M131.023 150H39.3488C38.6555 150 38.0119 149.641 37.6476 149.051C37.2833 148.462 37.2503 147.725 37.5599 147.105C37.5912 147.043 40.895 140.255 44.1785 123.84C47.0723 109.37 39.5574 86.6963 37.8232 81.7617C29.5138 79.3868 23.7675 71.812 23.7675 63.116C23.7675 62.0117 24.6631 61.1161 25.7674 61.1161C26.8717 61.1161 27.7673 62.0117 27.7673 63.116C27.7673 70.1931 32.5626 76.335 39.4285 78.0512L39.8331 78.1526C40.4714 78.3119 40.9903 78.7749 41.2213 79.3908C41.6453 80.5217 51.5679 107.287 48.1005 124.625C45.885 135.703 43.6685 142.512 42.3489 146H128.023C126.704 142.512 124.488 135.703 122.271 124.625C118.804 107.287 128.727 80.5217 129.151 79.3908C129.382 78.7749 129.901 78.3119 130.539 78.1526L130.945 78.0512C137.81 76.335 142.605 70.1931 142.605 63.116C142.605 62.0117 143.501 61.1161 144.605 61.1161C145.709 61.1161 146.605 62.0117 146.605 63.116C146.605 71.812 140.858 79.3868 132.549 81.7617C130.816 86.6986 123.302 109.383 126.194 123.84C129.477 140.255 132.781 147.042 132.814 147.109C133.121 147.729 133.086 148.465 132.722 149.053C132.357 149.641 131.715 150 131.023 150Z" fill="black"/>
<path d="M6.99651 97.176C2.78814 97.1764 1.62822 96.2248 1.11159 95.8011C0.108326 94.9789 0 94.0396 0 93.6739V59.7206C0 59.5056 0.0346638 59.292 0.102659 59.0883L0.625623 57.5198C6.21757 40.7473 21.8385 30.6693 42.4111 30.5617H42.4217C43.5213 30.5617 44.4156 31.4503 44.4216 32.5512C44.4272 33.6554 43.5366 34.5557 42.4321 34.5614C23.6544 34.6597 9.44435 43.7154 4.42003 58.785L3.99972 60.0456V92.8623C4.99732 93.191 8.42342 93.7459 18.5844 91.7137C34.242 88.5823 37.4211 79.5519 37.4514 79.4609C37.8004 78.413 38.9333 77.8457 39.9809 78.196C41.0288 78.5453 41.5951 79.6779 41.2455 80.7258C41.0918 81.1868 37.2771 92.054 19.3683 95.6358C13.5951 96.7897 9.677 97.176 6.99651 97.176Z" fill="black"/>
<path d="M39.0251 41.3492C38.7248 41.3492 38.4194 41.2812 38.1325 41.1376C37.1445 40.6436 36.7439 39.4423 37.2379 38.4544L40.9553 31.0193C45.3056 22.3185 52.1028 18.9634 57.0392 17.6809C60.6672 16.7379 63.82 16.7519 65.5149 16.8659L66.3112 15.6713C68.871 11.8319 68.3604 6.67662 65.0973 3.41385C64.3163 2.6329 64.3163 1.36666 65.0973 0.585709C65.8782 -0.195236 67.1444 -0.195236 67.9254 0.585709C72.5321 5.19206 73.2527 12.4699 69.6389 17.8902L68.175 20.0857C67.7401 20.7383 66.9645 21.077 66.1895 20.95C65.5992 20.858 51.5265 18.8188 44.5324 32.8075L40.8149 40.2426C40.465 40.9439 39.7587 41.3492 39.0251 41.3492Z" fill="black"/>
<path d="M163.376 97.1767C160.695 97.1767 156.778 96.7907 151.003 95.6358C133.095 92.0541 129.28 81.1865 129.126 80.7258C128.777 79.6779 129.343 78.5453 130.391 78.196C131.435 77.848 132.562 78.4087 132.916 79.4479C133.058 79.8479 136.328 88.6216 151.788 91.7137C161.948 93.7459 165.374 93.1906 166.372 92.8627V60.0456L165.952 58.7847C160.928 43.7154 146.718 34.66 127.94 34.5614C126.836 34.5554 125.945 33.6554 125.95 32.5512C125.956 31.4503 126.85 30.5617 127.95 30.5617H127.961C148.534 30.6696 164.154 40.7476 169.746 57.5198L170.269 59.0887C170.337 59.2927 170.372 59.506 170.372 59.721V93.6746C170.372 94.0402 170.263 94.9795 169.26 95.8018C168.744 96.2254 167.583 97.1767 163.376 97.1767Z" fill="black"/>
<path d="M131.347 41.3489C130.613 41.3489 129.907 40.9436 129.557 40.243L125.84 32.8078C118.845 18.8198 104.773 20.858 104.177 20.9513C103.406 21.0723 102.63 20.7353 102.197 20.086L100.733 17.8905C97.1194 12.4699 97.84 5.19206 102.447 0.585709C103.228 -0.19557 104.495 -0.194903 105.275 0.585709C106.056 1.36666 106.056 2.6329 105.275 3.41385C102.012 6.67695 101.501 11.8319 104.061 15.6717L104.858 16.8659C106.551 16.7529 109.704 16.7383 113.333 17.6809C118.27 18.9634 125.067 22.3185 129.417 31.0189L133.134 38.4541C133.628 39.442 133.228 40.6433 132.24 41.1372C131.953 41.2809 131.648 41.3489 131.347 41.3489Z" fill="black"/>
<path d="M56.3237 82.0939C55.3898 82.0939 54.5548 81.4366 54.3648 80.486C54.1482 79.4031 54.8505 78.3495 55.9337 78.1325C65.0671 76.306 72.0353 68.5515 72.8782 59.2755L74.7061 39.1682C74.8061 38.0686 75.777 37.2593 76.8789 37.3577C77.9789 37.4577 78.7895 38.4306 78.6895 39.5305L76.8616 59.6375C76.366 65.0877 74.1708 70.1204 70.5127 74.1914C66.8546 78.2625 62.0846 80.9813 56.718 82.0549C56.5857 82.0809 56.4537 82.0939 56.3237 82.0939Z" fill="black"/>
<path d="M114.049 82.0938C113.919 82.0938 113.787 82.0811 113.654 82.0548C108.288 80.9812 103.518 78.2624 99.8592 74.1913C96.2012 70.1206 94.0056 65.0876 93.5103 59.6374L91.6825 39.5304C91.5825 38.4305 92.3931 37.4576 93.4933 37.3576C94.5956 37.2599 95.5662 38.0685 95.6662 39.1681L97.4941 59.2751C98.337 68.5514 105.305 76.3055 114.439 78.1324C115.522 78.3491 116.224 79.403 116.008 80.4859C115.818 81.4362 114.983 82.0938 114.049 82.0938Z" fill="black"/>
<path d="M87.0001 136.721C85.8958 136.721 85.0002 135.825 85.0002 134.721V76.9999C85.0002 75.8956 85.8958 75 87.0001 75C88.1043 75 88.9999 75.8956 88.9999 76.9999V134.721C88.9999 135.825 88.1047 136.721 87.0001 136.721Z" fill="black"/>
</svg>
