<svg width="280" height="140" viewBox="0 0 280 140" fill="none" xmlns="http://www.w3.org/2000/svg">
<path d="M73.2528 0.905767C98.6023 -0.947243 124.394 2.06927 148.386 10.2462C176.375 19.7806 196.187 36.6516 228.108 35.111C246.39 34.2276 275.92 17.8737 279.098 47.5865C280.682 62.346 281.371 88.0188 270.652 99.2015C245.755 125.187 173.671 139.3 138.69 139.612C100.024 139.957 -4.5843 130.649 0.15595 74.3366C0.511468 70.1458 2.93547 66.386 3.09707 63.4556C3.22635 61.0209 1.53496 58.4137 1.3949 55.9466C-0.932127 16.721 41.2561 3.23279 73.242 0.894983L73.2528 0.905767ZM262.001 45.8413C251.389 47.091 240.928 50.5492 230.209 51.2171C184.616 54.0505 148.213 19.7914 99.852 16.7641C74.147 15.1588 18.5783 18.8002 17.4579 53.3826C51.146 27.3542 105.142 27.7852 144.313 40.1745C170.859 48.5669 190.725 66.2136 220.535 68.4544C234.938 69.5318 239.582 68.2174 251.131 60.299C256.237 56.7977 263.811 52.9408 261.99 45.852L262.001 45.8413ZM201.67 81.4039C179.305 76.9869 159.989 62.4214 138.69 55.5049C110.248 46.2722 68.1462 44.7316 40.7713 57.8535C35.9449 60.1698 31.14 63.2509 27.1754 66.86C31.14 70.469 35.9449 73.5394 40.7713 75.8665C79.4582 94.4504 159.202 97.1114 199.516 82.9984C200.55 82.6321 201.983 82.8691 201.67 81.4147V81.4039ZM16.3806 79.2493C18.8046 94.7952 30.5043 102.617 44.111 108.068C101.242 130.972 200.485 128.322 252.23 92.6082C260.471 86.9199 263.531 84.3128 262.023 73.3132L245.841 82.9876C181.654 114.284 94.8748 117.419 29.664 88.0403L16.3806 79.2493Z" fill="black"/>
</svg>
