<?xml version="1.0" encoding="UTF-8" standalone="no"?>
<!-- Created with Inkscape (http://www.inkscape.org/) -->

<svg
   version="1.1"
   id="svg1"
   width="1440"
   height="1800"
   viewBox="0 0 1440 1800"
   sodipodi:docname="upload_uy665rcgnfpd5buir5p4outa75.pdf"
   xmlns:inkscape="http://www.inkscape.org/namespaces/inkscape"
   xmlns:sodipodi="http://sodipodi.sourceforge.net/DTD/sodipodi-0.dtd"
   xmlns="http://www.w3.org/2000/svg"
   xmlns:svg="http://www.w3.org/2000/svg">
  <defs
     id="defs1">
    <clipPath
       clipPathUnits="userSpaceOnUse"
       id="clipPath3">
      <path
         d="M 0,1350 H 1080 V 0 H 0 Z"
         transform="translate(-492.09371,-677.33201)"
         id="path3" />
    </clipPath>
    <clipPath
       clipPathUnits="userSpaceOnUse"
       id="clipPath5">
      <path
         d="M 0,1350 H 1080 V 0 H 0 Z"
         transform="translate(-605.78552,-545.03334)"
         id="path5" />
    </clipPath>
    <clipPath
       clipPathUnits="userSpaceOnUse"
       id="clipPath7">
      <path
         d="M 0,1350 H 1080 V 0 H 0 Z"
         transform="translate(-425.24051,-471.27931)"
         id="path7" />
    </clipPath>
    <clipPath
       clipPathUnits="userSpaceOnUse"
       id="clipPath9">
      <path
         d="M 0,1350 H 1080 V 0 H 0 Z"
         transform="translate(-542.79832,-543.71851)"
         id="path9" />
    </clipPath>
    <clipPath
       clipPathUnits="userSpaceOnUse"
       id="clipPath11">
      <path
         d="M 0,1350 H 1080 V 0 H 0 Z"
         transform="translate(-314.89271,-475.41924)"
         id="path11" />
    </clipPath>
    <clipPath
       clipPathUnits="userSpaceOnUse"
       id="clipPath13">
      <path
         d="M 0,1350 H 1080 V 0 H 0 Z"
         transform="translate(-705.32462,-488.47974)"
         id="path13" />
    </clipPath>
    <clipPath
       clipPathUnits="userSpaceOnUse"
       id="clipPath15">
      <path
         d="M 0,1350 H 1080 V 0 H 0 Z"
         transform="translate(-320.92701,-421.87929)"
         id="path15" />
    </clipPath>
    <clipPath
       clipPathUnits="userSpaceOnUse"
       id="clipPath17">
      <path
         d="M 0,1350 H 1080 V 0 H 0 Z"
         transform="translate(-405.46311,-446.83959)"
         id="path17" />
    </clipPath>
    <clipPath
       clipPathUnits="userSpaceOnUse"
       id="clipPath19">
      <path
         d="M 0,1350 H 1080 V 0 H 0 Z"
         transform="translate(-420.38671,-446.83959)"
         id="path19" />
    </clipPath>
    <clipPath
       clipPathUnits="userSpaceOnUse"
       id="clipPath21">
      <path
         d="M 0,1350 H 1080 V 0 H 0 Z"
         transform="translate(-465.01321,-405.15849)"
         id="path21" />
    </clipPath>
    <clipPath
       clipPathUnits="userSpaceOnUse"
       id="clipPath23">
      <path
         d="M 0,1350 H 1080 V 0 H 0 Z"
         transform="translate(-567.49192,-447.28254)"
         id="path23" />
    </clipPath>
    <clipPath
       clipPathUnits="userSpaceOnUse"
       id="clipPath25">
      <path
         d="M 0,1350 H 1080 V 0 H 0 Z"
         transform="translate(-617.04512,-411.08154)"
         id="path25" />
    </clipPath>
    <clipPath
       clipPathUnits="userSpaceOnUse"
       id="clipPath27">
      <path
         d="M 0,1350 H 1080 V 0 H 0 Z"
         transform="translate(-648.30992,-446.83959)"
         id="path27" />
    </clipPath>
    <clipPath
       clipPathUnits="userSpaceOnUse"
       id="clipPath29">
      <path
         d="M 0,1350 H 1080 V 0 H 0 Z"
         transform="translate(-689.60282,-405.15849)"
         id="path29" />
    </clipPath>
    <clipPath
       clipPathUnits="userSpaceOnUse"
       id="clipPath31">
      <path
         d="M 0,1350 H 1080 V 0 H 0 Z"
         transform="translate(-724.08112,-403.42479)"
         id="path31" />
    </clipPath>
    <clipPath
       clipPathUnits="userSpaceOnUse"
       id="clipPath33">
      <path
         d="M 0,1350 H 1080 V 0 H 0 Z"
         transform="translate(-820.96892,-447.28284)"
         id="path33" />
    </clipPath>
    <clipPath
       clipPathUnits="userSpaceOnUse"
       id="clipPath35">
      <path
         d="M 0,1350 H 1080 V 0 H 0 Z"
         transform="translate(-278.55691,-399.54608)"
         id="path35" />
    </clipPath>
  </defs>
  <sodipodi:namedview
     id="namedview1"
     pagecolor="#ffffff"
     bordercolor="#000000"
     borderopacity="0.25"
     inkscape:showpageshadow="2"
     inkscape:pageopacity="0.0"
     inkscape:pagecheckerboard="0"
     inkscape:deskcolor="#d1d1d1">
    <inkscape:page
       x="0"
       y="0"
       inkscape:label="1"
       id="page1"
       width="1440"
       height="1800"
       margin="524.76935 338.37466"
       bleed="0" />
  </sodipodi:namedview>
  <g
     id="g1"
     inkscape:groupmode="layer"
     inkscape:label="1">
    <g
       id="group-MC0">
      <path
         id="path2"
         d="m 0,0 208.815,200.068 h 43.63 v 37.116 c 0,6.102 -4.947,11.049 -11.049,11.049 h -52.48 c -0.467,0.675 -0.963,1.384 -1.494,2.23 -2.097,3.333 -4.208,5.673 -5.635,7.068 -1.132,1.161 -2.405,2.315 -3.851,3.444 -0.402,0.314 -0.828,0.625 -1.257,0.934 -0.658,0.476 -1.337,0.947 -2.059,1.411 -0.155,0.099 -0.311,0.198 -0.468,0.296 -0.032,0.02 -0.063,0.04 -0.094,0.061 -0.308,0.191 -0.618,0.383 -0.938,0.572 -0.499,0.295 -1.008,0.589 -1.536,0.877 -0.192,0.105 -0.394,0.207 -0.589,0.31 -0.454,0.241 -0.916,0.479 -1.391,0.714 -0.204,0.101 -0.407,0.201 -0.615,0.3 -0.664,0.32 -1.342,0.635 -2.05,0.942 l 9.905,-0.851 c -4.438,4.919 -21.798,22.369 -47.606,5.064 0,0 15.623,2.748 29.928,-6.674 0.059,-0.048 0.117,-0.096 0.176,-0.143 -0.5,0.298 -1.003,0.587 -1.512,0.858 1.933,-1.258 3.79,-2.757 5.524,-4.516 0.31,-0.313 0.624,-0.619 0.925,-0.951 0.336,-0.371 0.673,-0.743 0.997,-1.136 0.401,-0.485 0.783,-0.992 1.149,-1.513 0.019,-0.026 0.038,-0.051 0.056,-0.077 0.353,-0.506 0.688,-1.029 1.01,-1.566 0.027,-0.045 0.056,-0.088 0.083,-0.134 0.311,-0.524 0.606,-1.064 0.889,-1.615 0.032,-0.063 0.065,-0.124 0.097,-0.186 0.276,-0.544 0.536,-1.101 0.786,-1.667 0.032,-0.075 0.066,-0.148 0.098,-0.223 0.244,-0.563 0.474,-1.137 0.694,-1.72 0.031,-0.082 0.063,-0.164 0.093,-0.246 0.215,-0.582 0.419,-1.174 0.611,-1.773 0.01,-0.03 0.02,-0.06 0.029,-0.09 h -3.341 c -0.414,1.239 -0.886,2.45 -1.428,3.625 -2.097,4.548 -5.167,8.563 -9.658,11.523 -8.764,5.774 -21.025,7.581 -31.344,6.141 l 2.53,-5.098 c 0,0 -5.53,7.796 -18.531,9.427 0,0 -1.818,-6.092 4.211,-14.485 0.706,-0.983 1.212,-2.087 1.487,-3.242 l -43.911,22.266 39.19,-29.492 c -0.435,-0.117 -0.945,-0.246 -1.536,-0.388 l -1.025,-0.236 c 0.806,-2.803 3.182,-12.489 0.194,-20.504 -3.329,-8.933 -3.3,-10.428 -2.367,-12.423 0.386,-0.825 0.929,-1.699 1.569,-2.528 0.82,-1.063 1.698,-1.909 2.292,-2.21 0.993,-0.502 7.95,-0.637 9.867,0.126 1.049,0.418 1.501,2.571 1.899,4.471 0.063,0.303 0.127,0.606 0.192,0.902 0.158,0.713 0.357,1.535 0.635,2.231 1.096,2.751 9.347,10.774 13.272,12.438 1.913,0.81 5.314,3.896 6.543,7.948 1.022,3.369 0.116,6.312 -1.64,9.213 -0.605,0.999 1.249,1.1 1.813,1.092 2.199,-0.033 2.692,-3.791 3.071,-5.444 0.536,-2.342 0.567,-4.813 -0.182,-7.113 -1.442,-4.431 -5.26,-7.655 -9.032,-10.121 l -0.055,-0.033 c -1.475,-0.789 -2.999,-1.877 -4.531,-3.235 -1.219,-1.079 -2.431,-2.311 -3.601,-3.658 -0.576,-0.663 -1.121,-1.369 -1.466,-2.184 -0.319,-0.753 -0.501,-1.557 -0.673,-2.354 -0.291,-1.345 -0.345,-2.694 -0.377,-4.072 -0.018,-0.741 -0.035,-1.482 -0.053,-2.223 -0.02,-0.827 -0.039,-1.654 -0.059,-2.482 -0.019,-0.807 -0.038,-1.614 -0.057,-2.421 -0.016,-0.681 -0.032,-1.362 -0.049,-2.042 -0.01,-0.448 -0.021,-0.895 -0.031,-1.343 -0.003,-0.118 -0.006,-0.237 -0.009,-0.355 h 14.39 L -7.754,59.276 v 58.609 c 0,6.469 5.244,11.713 11.713,11.713 h 24.452 v 48.165 H -7.754 v 12.688 c 0,5.995 4.993,9.477 10.987,9.477 l 70.659,-0.008 0.005,49.55 h -96.434 c -18.436,0 -33.382,-14.946 -33.382,-33.382 V 23.866 C -55.919,-5.241 -21.017,-20.137 0,0"
         style="fill:#7b91d1;fill-opacity:1;fill-rule:nonzero;stroke:none"
         transform="matrix(1.3333333,0,0,-1.3333333,656.12493,896.89067)"
         clip-path="url(#clipPath3)" />
      <path
         id="path4"
         d="m 0,0 c 1.137,-0.02 2.095,-0.596 2.63,-1.581 l 34.561,-63.741 c 0.893,-1.646 2.61,-2.668 4.481,-2.668 H 53.75 L 10.844,9.684 c -1.256,2.273 -3.65,3.685 -6.248,3.685 h -9.162 c -2.597,0 -4.991,-1.412 -6.248,-3.685 L -53.719,-67.99 h 12.083 c 1.869,0 3.583,1.021 4.473,2.663 L -2.599,-1.582 C -2.064,-0.596 -1.105,-0.02 0,0"
         style="fill:#7b91d1;fill-opacity:1;fill-rule:nonzero;stroke:none"
         transform="matrix(1.3333333,0,0,-1.3333333,807.714,1073.2889)"
         clip-path="url(#clipPath5)" />
      <path
         id="path6"
         d="m 0,0 h 7.694 v 82.234 c 0,2.958 -2.407,5.365 -5.365,5.365 H -5.367 V 5.367 C -5.367,2.407 -2.959,0 0,0"
         style="fill:#7b91d1;fill-opacity:1;fill-rule:nonzero;stroke:none"
         transform="matrix(1.3333333,0,0,-1.3333333,566.98733,1171.6276)"
         clip-path="url(#clipPath7)" />
      <path
         id="path8"
         d="m 0,0 c 2.973,0 5.391,2.418 5.391,5.391 v 7.67 h -82.228 c -2.962,0 -5.371,-2.41 -5.371,-5.372 V 0 h 34.965 c 1.871,0 3.393,-1.522 3.393,-3.393 v -59.63 c 0,-2.91 2.367,-5.276 5.276,-5.276 h 7.784 v 64.913 c 0,1.867 1.519,3.386 3.386,3.386 z"
         style="fill:#7b91d1;fill-opacity:1;fill-rule:nonzero;stroke:none"
         transform="matrix(1.3333333,0,0,-1.3333333,723.73107,1075.042)"
         clip-path="url(#clipPath9)" />
      <path
         id="path10"
         d="m 0,0 h 7.844 v 33.725 c 0,1.885 1.534,3.42 3.42,3.42 h 58.8 c 3.263,0 5.918,2.654 5.918,5.918 v 7.142 H 11.254 c -1.88,0 -3.41,1.53 -3.41,3.411 V 68.3 h 63.019 c 2.823,0 5.119,2.297 5.119,5.119 v 7.942 H -4.279 L -5.216,81.359 V 5.216 C -5.216,2.34 -2.876,0 0,0"
         style="fill:#7b91d1;fill-opacity:1;fill-rule:nonzero;stroke:none"
         transform="matrix(1.3333333,0,0,-1.3333333,419.85693,1166.1077)"
         clip-path="url(#clipPath11)" />
      <path
         id="path12"
         d="m 0,0 c -1.731,0 -3.14,1.409 -3.14,3.14 v 65.161 h -8.055 c -2.76,0 -5.005,-2.246 -5.005,-5.005 v -76.357 h 75.828 c 2.961,0 5.371,2.41 5.371,5.371 V 0 Z"
         style="fill:#7b91d1;fill-opacity:1;fill-rule:nonzero;stroke:none"
         transform="matrix(1.3333333,0,0,-1.3333333,940.4328,1148.6937)"
         clip-path="url(#clipPath13)" />
      <path
         id="path14"
         d="m 0,0 -14.336,24.96 h -7.626 l 18.33,-31.099 v -21.825 h 7.269 v 21.826 l 18.18,31.098 h -7.573 z"
         style="fill:#7b91d1;fill-opacity:1;fill-rule:nonzero;stroke:none"
         transform="matrix(1.3333333,0,0,-1.3333333,427.90267,1237.4943)"
         clip-path="url(#clipPath15)" />
      <path
         id="path16"
         d="m 0,0 h -41.993 v -5.68 h 17.866 v -47.245 h 7.318 V -5.68 H 0 Z"
         style="fill:#7b91d1;fill-opacity:1;fill-rule:nonzero;stroke:none"
         transform="matrix(1.3333333,0,0,-1.3333333,540.61747,1204.2139)"
         clip-path="url(#clipPath17)" />
      <path
         id="path18"
         d="m 0,0 -21.521,-52.925 h 8.054 L 4.346,-7.529 22.488,-52.925 h 8.006 L 8.725,0 Z"
         style="fill:#7b91d1;fill-opacity:1;fill-rule:nonzero;stroke:none"
         transform="matrix(1.3333333,0,0,-1.3333333,560.5156,1204.2139)"
         clip-path="url(#clipPath19)" />
      <path
         id="path20"
         d="M 0,0 V 41.681 H -7.364 V -1.926 c 0,-5.574 4.403,-9.318 10.955,-9.318 H 29.62 v 5.632 H 5.372 C 1.888,-5.612 0,-4.718 0,0"
         style="fill:#7b91d1;fill-opacity:1;fill-rule:nonzero;stroke:none"
         transform="matrix(1.3333333,0,0,-1.3333333,620.0176,1259.7887)"
         clip-path="url(#clipPath21)" />
      <path
         id="path22"
         d="m 0,0 -0.162,-0.443 h -5.48 L -21.897,-45.5 -38.474,-0.443 h -5.328 l -0.116,0.309 v -0.309 h -5.347 v -52.925 h 7.222 v 42.941 l 16.184,-42.941 h 8.286 l 15.698,42.807 v -42.807 h 7.124 v 52.925 l -5.249,0 z"
         style="fill:#7b91d1;fill-opacity:1;fill-rule:nonzero;stroke:none"
         transform="matrix(1.3333333,0,0,-1.3333333,756.65587,1203.6233)"
         clip-path="url(#clipPath23)" />
      <path
         id="path24"
         d="m 0,0 c 0,-6.488 -6.32,-11.969 -13.801,-11.969 -7.454,0 -13.751,5.481 -13.751,11.969 v 35.758 h -7.366 V -0.336 c 0,-9.467 9.473,-17.168 21.117,-17.168 11.67,0 21.165,7.701 21.165,17.168 V 35.758 H 0 Z"
         style="fill:#7b91d1;fill-opacity:1;fill-rule:nonzero;stroke:none"
         transform="matrix(1.3333333,0,0,-1.3333333,822.7268,1251.8913)"
         clip-path="url(#clipPath25)" />
      <path
         id="path26"
         d="m 0,0 -21.521,-52.925 h 8.054 l 17.813,45.396 17.906,-44.806 0.235,-0.59 h 8.007 L 8.724,0 Z"
         style="fill:#7b91d1;fill-opacity:1;fill-rule:nonzero;stroke:none"
         transform="matrix(1.3333333,0,0,-1.3333333,864.4132,1204.2139)"
         clip-path="url(#clipPath27)" />
      <path
         id="path28"
         d="M 0,0 V 41.681 H -7.368 V -1.926 c 0,-5.574 4.403,-9.318 10.956,-9.318 h 26.03 v 5.632 H 5.37 C 1.887,-5.612 0,-4.718 0,0"
         style="fill:#7b91d1;fill-opacity:1;fill-rule:nonzero;stroke:none"
         transform="matrix(1.3333333,0,0,-1.3333333,919.4704,1259.7887)"
         clip-path="url(#clipPath29)" />
      <path
         id="path30"
         d="m 0,0 c 0,-5.599 4.703,-9.51 11.437,-9.51 h 26.559 v 5.631 H 12.737 c -3.514,0 -5.419,0.918 -5.419,5.757 v 13.801 h 25.814 v 5.678 H 7.318 v 16.427 h 30.678 v 5.631 H 0 Z"
         style="fill:#7b91d1;fill-opacity:1;fill-rule:nonzero;stroke:none"
         transform="matrix(1.3333333,0,0,-1.3333333,965.44147,1262.1003)"
         clip-path="url(#clipPath31)" />
      <path
         id="path32"
         d="m 0,0 -0.163,-0.443 h -5.479 l -16.253,-45.058 -16.581,45.058 h -5.328 l -0.116,0.308 v -0.308 h -5.345 v -52.925 h 7.221 v 42.941 l 16.185,-42.941 h 8.288 l 15.695,42.807 V -53.368 H 5.25 V -0.443 H 0 Z"
         style="fill:#7b91d1;fill-opacity:1;fill-rule:nonzero;stroke:none"
         transform="matrix(1.3333333,0,0,-1.3333333,1094.6252,1203.6229)"
         clip-path="url(#clipPath33)" />
      <path
         id="path34"
         d="M 0,0 H -17.363 V 18.738 H -0.529 C 8.209,18.738 9.514,12.656 9.514,9.031 9.514,4.665 7.015,0 0,0 m -17.363,41.662 h 16.736 c 3.284,0 8.793,-1.086 8.793,-8.358 0,-6.03 -2.901,-8.838 -9.13,-8.838 H -17.363 Z M 9.706,21.706 c 4.125,2.098 6.065,5.794 6.065,11.454 0,8.322 -6.485,14.133 -15.771,14.133 H -24.776 V -5.631 H 1.541 c 8.492,0 15.144,6.356 15.144,14.469 0,5.058 -2.178,10.621 -6.979,12.868"
         style="fill:#7b91d1;fill-opacity:1;fill-rule:nonzero;stroke:none"
         transform="matrix(1.3333333,0,0,-1.3333333,371.4092,1267.2719)"
         clip-path="url(#clipPath35)" />
    </g>
  </g>
</svg>
