<svg width="22" height="24" viewBox="0 0 22 24" fill="none" xmlns="http://www.w3.org/2000/svg">
<path d="M18.8572 6.22109C17.8436 4.91917 17.6347 3.10862 18.3256 1.60167C18.5201 1.17841 18.6705 0.83475 18.7719 0.532727C18.8128 0.410442 18.7931 0.273399 18.7192 0.167454C18.6457 0.06309 18.5252 0.000366211 18.3985 0.000366211H3.60642C3.47972 0.000366211 3.35974 0.0636171 3.28527 0.169035C3.21183 0.273926 3.19218 0.41097 3.23355 0.533782C3.34474 0.864267 3.52212 1.25853 3.67985 1.60219C4.02221 2.34908 4.14891 3.18136 4.04651 4.00994C3.94412 4.83537 3.61728 5.62337 3.10116 6.28908C1.56677 8.75165 0.623484 11.9843 0.511262 15.1611C0.452307 16.8351 0.625036 18.4158 1.02428 19.859C1.453 21.4066 2.13305 22.7517 3.04583 23.8575C3.12081 23.9477 3.23148 24.0004 3.34784 24.0004H8.88292C9.05513 24.0004 9.20614 23.8881 9.25837 23.7205C9.30699 23.566 9.44507 22.9188 9.51902 22.5714C9.56194 22.3701 9.5847 22.2631 9.59556 22.2193C9.59608 22.2167 9.59711 22.2135 9.59763 22.2109C10.1618 20.1305 10.2735 18.0469 9.92085 16.1852C9.89964 16.0724 9.93119 15.9554 10.0062 15.8695C10.2653 15.5732 10.4944 15.2459 10.6862 14.8959C10.7504 14.7794 10.8709 14.7072 11.0022 14.7072C11.1336 14.7072 11.2541 14.78 11.3182 14.8965C11.5049 15.238 11.7288 15.5601 11.9832 15.8531C12.0577 15.939 12.0887 16.0555 12.0675 16.1683C11.7107 18.0348 11.8203 20.1189 12.384 22.1961C12.3846 22.1988 12.3851 22.2009 12.3861 22.2035C12.3944 22.2373 12.4104 22.3084 12.442 22.4534C12.5149 22.7833 12.685 23.556 12.7528 23.741C12.8102 23.8965 12.9586 24.0014 13.1225 24.0014H18.6576C18.774 24.0014 18.8846 23.9492 18.9601 23.8575C22.7969 19.2112 21.8945 11.0914 18.8572 6.22214V6.22109ZM18.5821 23.0527C18.5133 23.1428 18.4078 23.196 18.2956 23.196H13.6971C13.5275 23.196 13.3806 23.0759 13.3439 22.9072C13.3361 22.8713 13.3196 22.7939 13.2994 22.6979C13.2529 22.476 13.1748 22.106 13.1474 21.9937C12.7088 20.3745 12.5583 18.7221 12.7135 17.2151C12.7264 17.0897 12.8014 16.979 12.9126 16.9231C12.9633 16.8973 13.0186 16.8846 13.0734 16.8846C13.1386 16.8846 13.2037 16.9026 13.2611 16.9384C14.0658 17.436 14.9993 17.699 15.9601 17.699C16.6505 17.699 17.3234 17.5662 17.96 17.3042C18.1617 17.2209 18.2594 16.9859 18.1777 16.7798C18.1172 16.6274 17.9729 16.5289 17.81 16.5289C17.7598 16.5289 17.7102 16.5384 17.6631 16.5573C17.1196 16.7824 16.5461 16.8968 15.9591 16.8968C15.0163 16.8968 14.0891 16.5895 13.3485 16.0313C11.8653 14.9476 11.1568 13.0833 11.5426 11.279C11.6528 10.6924 11.9057 10.1105 12.2749 9.59499C12.4032 9.41578 12.3644 9.16278 12.1886 9.03206C12.1218 8.98251 12.0412 8.95616 11.9574 8.95616C11.8291 8.95616 11.7123 9.01625 11.6373 9.12061C11.5245 9.27821 11.417 9.44899 11.3177 9.62662C11.2535 9.74205 11.1331 9.81321 11.0027 9.81321C10.8724 9.81321 10.7524 9.74152 10.6878 9.62609C10.5885 9.44793 10.4814 9.27768 10.3682 9.11956C10.2932 9.01519 10.1768 8.9551 10.0486 8.9551C9.9648 8.9551 9.88465 8.98199 9.81638 9.03206C9.64158 9.16225 9.6028 9.41525 9.73105 9.59499C10.0987 10.1073 10.3532 10.6971 10.467 11.2996C10.8507 13.0912 10.137 14.9497 8.64762 16.0371C7.91274 16.5905 6.98963 16.8952 6.04789 16.8952C5.46041 16.8952 4.88637 16.7813 4.34181 16.5568C4.2963 16.5383 4.24665 16.5289 4.19597 16.5289C4.03307 16.5289 3.88827 16.6274 3.82776 16.7798C3.78846 16.8794 3.78897 16.9885 3.83034 17.0876C3.87172 17.1867 3.94826 17.2636 4.04548 17.3037C4.6852 17.5667 5.35905 17.7001 6.04738 17.7001C7.00204 17.7001 7.92826 17.4402 8.72571 16.949C8.78311 16.9136 8.84775 16.8957 8.91292 16.8957C8.96825 16.8957 9.02307 16.9084 9.07427 16.9342C9.18546 16.9906 9.26044 17.1008 9.27285 17.2267C9.428 18.7527 9.28009 20.3613 8.83431 22.009C8.79966 22.1471 8.6952 22.6605 8.66106 22.8297L8.64607 22.903C8.6109 23.0737 8.46299 23.196 8.29182 23.196H3.70985C3.59763 23.196 3.49213 23.1433 3.42335 23.0527C2.61297 21.9842 2.0198 20.7018 1.65986 19.2407C1.32888 17.8967 1.20114 16.4345 1.2813 14.8954C1.43283 11.9864 2.32491 9.02573 3.72898 6.77295C3.73622 6.76135 3.74398 6.75081 3.75225 6.74027C4.94429 5.22383 5.20804 3.09808 4.42455 1.32547C4.37387 1.21109 4.3837 1.07879 4.45041 0.973902C4.51712 0.868484 4.63141 0.805233 4.7545 0.805233H17.252C17.3751 0.805233 17.4894 0.869011 17.5561 0.973902C17.6228 1.07879 17.6326 1.21162 17.5819 1.326C17.1977 2.19464 17.0555 3.16133 17.1693 4.12169C17.2825 5.07572 17.6409 5.95754 18.2056 6.67227C18.2139 6.68282 18.2217 6.69389 18.2289 6.70548C19.6531 8.9862 20.5607 11.9674 20.7179 14.8859C20.8012 16.4282 20.6755 17.893 20.3451 19.2397C19.9862 20.7013 19.393 21.9842 18.5821 23.0537V23.0527Z" fill="black"/>
</svg>
