<svg width="19" height="21" viewBox="0 0 19 21" fill="none" xmlns="http://www.w3.org/2000/svg">
<path d="M16.0809 5.6843C15.22 4.59937 15.0426 3.09058 15.6294 1.83478C15.7945 1.48207 15.9224 1.19569 16.0085 0.944001C16.0432 0.842096 16.0265 0.727894 15.9637 0.639606C15.9013 0.552636 15.7989 0.500366 15.6913 0.500366H3.12769C3.02007 0.500366 2.91817 0.553075 2.85492 0.640924C2.79254 0.728333 2.77585 0.842536 2.81099 0.944879C2.90543 1.22028 3.05609 1.54884 3.19006 1.83522C3.48084 2.45763 3.58845 3.15119 3.50148 3.84168C3.41451 4.52953 3.13691 5.1862 2.69855 5.74096C1.39532 7.7931 0.594139 10.487 0.498823 13.1343C0.44875 14.5293 0.595457 15.8466 0.934551 17.0492C1.29868 18.3389 1.87629 19.4598 2.65155 20.3813C2.71524 20.4564 2.80924 20.5004 2.90806 20.5004H7.60927C7.75554 20.5004 7.8838 20.4068 7.92816 20.2671C7.96945 20.1384 8.08673 19.599 8.14954 19.3096C8.186 19.1418 8.20532 19.0526 8.21455 19.0162C8.21499 19.014 8.21586 19.0113 8.2163 19.0091C8.69552 17.2755 8.79039 15.5391 8.49083 13.9877C8.47282 13.8937 8.49961 13.7962 8.5633 13.7246C8.78336 13.4778 8.97795 13.205 9.14091 12.9133C9.19537 12.8163 9.29772 12.7561 9.40928 12.7561C9.52085 12.7561 9.62319 12.8167 9.67766 12.9138C9.83623 13.1984 10.0264 13.4668 10.2425 13.711C10.3058 13.7826 10.3321 13.8797 10.3141 13.9737C10.011 15.529 10.1042 17.2658 10.5829 18.9968C10.5834 18.999 10.5838 19.0008 10.5847 19.003C10.5917 19.0311 10.6053 19.0904 10.6321 19.2112C10.6941 19.4862 10.8386 20.1301 10.8961 20.2843C10.9449 20.4138 11.0709 20.5012 11.2102 20.5012H15.9114C16.0102 20.5012 16.1042 20.4578 16.1683 20.3813C19.4271 16.5094 18.6606 9.74289 16.0809 5.68518V5.6843ZM15.8473 19.7106C15.7888 19.7857 15.6992 19.8301 15.6039 19.8301H11.6982C11.5541 19.8301 11.4294 19.7299 11.3982 19.5894C11.3916 19.5595 11.3775 19.4949 11.3604 19.415C11.3209 19.2301 11.2545 18.9217 11.2313 18.8282C10.8588 17.4788 10.731 16.1018 10.8627 14.846C10.8737 14.7415 10.9374 14.6492 11.0318 14.6027C11.0749 14.5811 11.1219 14.5706 11.1684 14.5706C11.2238 14.5706 11.2791 14.5855 11.3279 14.6154C12.0114 15.03 12.8042 15.2492 13.6203 15.2492C14.2067 15.2492 14.7781 15.1385 15.3188 14.9202C15.4901 14.8508 15.5732 14.6549 15.5038 14.4832C15.4524 14.3563 15.3298 14.2741 15.1915 14.2741C15.1489 14.2741 15.1067 14.282 15.0667 14.2978C14.6051 14.4854 14.118 14.5807 13.6194 14.5807C12.8187 14.5807 12.0311 14.3246 11.4021 13.8595C10.1424 12.9564 9.54062 11.4028 9.86829 9.89927C9.96185 9.41039 10.1766 8.92546 10.4903 8.49589C10.5992 8.34654 10.5662 8.13571 10.4169 8.02678C10.3602 7.98549 10.2917 7.96353 10.2206 7.96353C10.1116 7.96353 10.0124 8.0136 9.94867 8.10057C9.85292 8.2319 9.76156 8.37422 9.67722 8.52224C9.62276 8.61843 9.52041 8.67773 9.40972 8.67773C9.29903 8.67773 9.19713 8.618 9.14222 8.5218C9.05789 8.37334 8.96697 8.23146 8.87077 8.09969C8.80708 8.01272 8.70825 7.96265 8.59932 7.96265C8.52816 7.96265 8.46008 7.98505 8.4021 8.02678C8.25364 8.13527 8.2207 8.34611 8.32963 8.49589C8.64193 8.92283 8.85804 9.41434 8.95467 9.9164C9.28059 11.4094 8.67443 12.9581 7.40942 13.8643C6.78525 14.3255 6.00121 14.5794 5.20135 14.5794C4.70237 14.5794 4.21481 14.4845 3.75229 14.2974C3.71363 14.282 3.67147 14.2741 3.62842 14.2741C3.49006 14.2741 3.36707 14.3563 3.31568 14.4832C3.2823 14.5662 3.28274 14.6571 3.31788 14.7397C3.35302 14.8223 3.41802 14.8864 3.5006 14.9198C4.04394 15.139 4.61628 15.2501 5.20091 15.2501C6.01175 15.2501 6.79843 15.0336 7.47574 14.6242C7.5245 14.5948 7.5794 14.5798 7.63475 14.5798C7.68175 14.5798 7.72831 14.5904 7.77179 14.6119C7.86623 14.6589 7.92992 14.7507 7.94046 14.8557C8.07223 16.1273 7.94661 17.4678 7.56798 18.8409C7.53855 18.956 7.44983 19.3838 7.42084 19.5248L7.4081 19.5859C7.37823 19.7282 7.25261 19.8301 7.10722 19.8301H3.21553C3.12022 19.8301 3.03061 19.7862 2.97219 19.7106C2.2839 18.8203 1.78009 17.7516 1.47438 16.534C1.19326 15.4139 1.08477 14.1955 1.15285 12.9129C1.28155 10.4887 2.03924 8.02151 3.23179 6.14419C3.23794 6.13452 3.24452 6.12574 3.25155 6.11695C4.264 4.85325 4.48802 3.08179 3.82257 1.60462C3.77952 1.5093 3.78787 1.39906 3.84453 1.31165C3.90119 1.2238 3.99826 1.17109 4.1028 1.17109H14.7175C14.8221 1.17109 14.9191 1.22424 14.9758 1.31165C15.0325 1.39906 15.0408 1.50974 14.9978 1.60506C14.6714 2.32893 14.5506 3.1345 14.6472 3.9348C14.7434 4.72983 15.0478 5.46468 15.5275 6.06029C15.5345 6.06907 15.5411 6.0783 15.5472 6.08796C16.7569 7.98856 17.5278 10.4729 17.6613 12.905C17.732 14.1902 17.6253 15.4109 17.3446 16.5331C17.0398 17.7512 16.536 18.8203 15.8473 19.7115V19.7106Z" fill="black"/>
</svg>
