<svg width="24" height="24" viewBox="0 0 24 24" fill="none" xmlns="http://www.w3.org/2000/svg">
<path d="M9.20562 0.532227C9.20562 1.57347 8.36138 2.4177 7.32014 2.4177H4.57948C2.69643 2.4177 1.12105 3.73742 0.728871 5.50251L0.591154 6.35556C0.19746 9.11203 -0.00683594 11.9305 -0.00683594 14.7961C-0.00683594 17.7414 0.208708 20.6359 0.624291 23.4665" stroke="black" stroke-width="0.912034" stroke-miterlimit="10" stroke-linecap="round" stroke-linejoin="round"/>
<path d="M4.7714 23.4673C4.53153 21.8339 4.35825 20.1785 4.25488 18.5046" stroke="black" stroke-width="0.912034" stroke-miterlimit="10" stroke-linecap="round" stroke-linejoin="round"/>
<path d="M2.07812 14.3993C2.07812 11.6717 3.00627 9.16149 4.56433 7.16626" stroke="black" stroke-width="0.912034" stroke-miterlimit="10" stroke-linecap="round" stroke-linejoin="round"/>
<path d="M11.9837 13.9773C11.9222 12.2371 11.4833 10.5933 10.7451 9.12524" stroke="black" stroke-width="0.912034" stroke-miterlimit="10" stroke-linecap="round" stroke-linejoin="round"/>
<path d="M2.29297 12.1514C3.20105 11.5786 4.27695 11.2476 5.43006 11.2476C6.7823 11.2476 8.02844 11.7033 9.02317 12.4694L9.86498 13.268C10.4633 13.7134 11.2048 13.977 12.0083 13.977" stroke="black" stroke-width="0.912034" stroke-miterlimit="10" stroke-linecap="round" stroke-linejoin="round"/>
<path d="M2.07812 14.3992C2.07812 17.1365 4.29741 19.3558 7.03503 19.3558H10.4214H11.9919H13.4208H16.9662C19.7035 19.3558 21.9231 17.1365 21.9231 14.3992" stroke="black" stroke-width="0.912034" stroke-miterlimit="10" stroke-linecap="round" stroke-linejoin="round"/>
<path d="M14.7939 0.532227C14.7939 1.57347 15.6382 2.4177 16.6797 2.4177H19.4207C21.3028 2.4177 22.8782 3.73742 23.2701 5.50251L23.4078 6.35556C23.8021 9.11203 24.0067 11.9305 24.0067 14.7961C24.0067 17.7414 23.7912 20.6359 23.3756 23.4665" stroke="black" stroke-width="0.912034" stroke-miterlimit="10" stroke-linecap="round" stroke-linejoin="round"/>
<path d="M19.2275 23.4673C19.468 21.8339 19.6407 20.1785 19.7447 18.5046" stroke="black" stroke-width="0.912034" stroke-miterlimit="10" stroke-linecap="round" stroke-linejoin="round"/>
<path d="M21.9224 14.3993C21.9224 11.6717 20.9933 9.16149 19.4355 7.16626" stroke="black" stroke-width="0.912034" stroke-miterlimit="10" stroke-linecap="round" stroke-linejoin="round"/>
<path d="M21.9218 14.3994C21.9218 17.1367 19.7025 19.356 16.9658 19.356" stroke="black" stroke-width="0.912034" stroke-miterlimit="10" stroke-linecap="round" stroke-linejoin="round"/>
<path d="M12.0166 13.9773C12.078 12.2371 12.5173 10.5933 13.2548 9.12524" stroke="black" stroke-width="0.912034" stroke-miterlimit="10" stroke-linecap="round" stroke-linejoin="round"/>
<path d="M21.7062 12.1514C20.7981 11.5786 19.7222 11.2476 18.5691 11.2476C17.2175 11.2476 15.9707 11.7033 14.976 12.4694L14.1342 13.268C13.5359 13.7134 12.7941 13.977 11.9912 13.977" stroke="black" stroke-width="0.912034" stroke-miterlimit="10" stroke-linecap="round" stroke-linejoin="round"/>
</svg>
