<svg width="23" height="23" viewBox="0 0 23 23" fill="none" xmlns="http://www.w3.org/2000/svg">
<path d="M21.4126 6.38125L19.3761 4.34378L20.26 3.45991C20.3491 3.37382 20.4202 3.27083 20.4691 3.15696C20.518 3.04309 20.5438 2.92062 20.5449 2.79669C20.5459 2.67276 20.5223 2.54986 20.4754 2.43516C20.4285 2.32045 20.3592 2.21624 20.2715 2.12861C20.1839 2.04098 20.0797 1.97168 19.965 1.92475C19.8503 1.87782 19.7274 1.8542 19.6035 1.85528C19.4795 1.85636 19.3571 1.8821 19.2432 1.93102C19.1293 1.97993 19.0263 2.05104 18.9402 2.14018L18.0564 3.02405L16.0189 0.987513C15.3767 0.375547 14.5236 0.0341797 13.6366 0.0341797C12.7495 0.0341797 11.8964 0.375547 11.2542 0.987513C10.9412 1.30033 10.6928 1.67179 10.5233 2.08064C10.3539 2.4895 10.2667 2.92774 10.2667 3.37031C10.2667 3.81289 10.3539 4.25113 10.5233 4.65999C10.6928 5.06884 10.9412 5.44029 11.2542 5.75311L13.2908 7.78965L7.7897 13.2907L5.75223 11.2542C5.11004 10.6422 4.25698 10.3008 3.3699 10.3008C2.48282 10.3008 1.62976 10.6422 0.987563 11.2542C0.674484 11.567 0.426122 11.9385 0.25667 12.3473C0.0872183 12.7562 0 13.1944 0 13.637C0 14.0796 0.0872183 14.5178 0.25667 14.9267C0.426122 15.3355 0.674484 15.707 0.987563 16.0198L3.0241 18.0563L2.14023 18.9402C2.05109 19.0263 1.97998 19.1293 1.93107 19.2431C1.88215 19.357 1.85641 19.4795 1.85533 19.6034C1.85425 19.7273 1.87787 19.8502 1.9248 19.9649C1.97173 20.0796 2.04103 20.1838 2.12866 20.2715C2.21629 20.3591 2.3205 20.4284 2.43521 20.4753C2.54991 20.5223 2.67281 20.5459 2.79674 20.5448C2.92067 20.5437 3.04314 20.518 3.15701 20.4691C3.27088 20.4202 3.37387 20.3491 3.45996 20.2599L4.34383 19.376L6.3813 21.4126C6.6941 21.7255 7.06549 21.9738 7.47426 22.1431C7.88303 22.3125 8.32116 22.3997 8.76363 22.3997C9.2061 22.3997 9.64423 22.3125 10.053 22.1431C10.4618 21.9738 10.8332 21.7255 11.146 21.4126C11.459 21.0998 11.7074 20.7285 11.8768 20.3197C12.0462 19.9109 12.1334 19.4727 12.1334 19.0302C12.1334 18.5877 12.0462 18.1496 11.8768 17.7408C11.7074 17.332 11.459 16.9607 11.146 16.6479L9.10943 14.6114L14.6161 9.10938L16.6526 11.1459C16.9654 11.4589 17.3368 11.7071 17.7456 11.8765C18.1544 12.0458 18.5925 12.133 19.035 12.133C19.4774 12.133 19.9156 12.0458 20.3243 11.8765C20.7331 11.7071 21.1045 11.4589 21.4173 11.1459C21.7303 10.8332 21.9787 10.4618 22.1481 10.053C22.3176 9.64425 22.4048 9.20608 22.4048 8.76358C22.4048 8.32108 22.3176 7.88292 22.1481 7.47414C21.9787 7.06536 21.7303 6.69399 21.4173 6.38125H21.4126ZM10.2668 19.0307C10.2672 19.2281 10.2284 19.4236 10.1528 19.6059C10.0772 19.7882 9.96621 19.9537 9.82623 20.0928C9.54015 20.3665 9.15952 20.5193 8.76363 20.5193C8.36774 20.5193 7.98711 20.3665 7.70103 20.0928L2.3073 14.6991C2.02548 14.4173 1.86715 14.0351 1.86715 13.6365C1.86715 13.238 2.02548 12.8557 2.3073 12.5739C2.58912 12.2921 2.97134 12.1338 3.3699 12.1338C3.76845 12.1338 4.15068 12.2921 4.4325 12.5739L9.82623 17.9676C9.96632 18.1069 10.0774 18.2726 10.153 18.455C10.2286 18.6375 10.2673 18.8332 10.2668 19.0307ZM20.0929 9.82618C19.8068 10.0998 19.4262 10.2526 19.0303 10.2526C18.6344 10.2526 18.2538 10.0998 17.9677 9.82618L12.574 4.43245C12.4344 4.2929 12.3237 4.12724 12.2482 3.94492C12.1727 3.7626 12.1338 3.56719 12.1338 3.36985C12.1338 2.97129 12.2921 2.58907 12.574 2.30725C12.8558 2.02543 13.238 1.8671 13.6366 1.8671C14.0351 1.8671 14.4173 2.02543 14.6992 2.30725L20.0929 7.70098C20.2326 7.84046 20.3434 8.00609 20.419 8.18843C20.4945 8.37076 20.5335 8.5662 20.5335 8.76358C20.5335 8.96096 20.4945 9.1564 20.419 9.33873C20.3434 9.52107 20.2326 9.6867 20.0929 9.82618Z" fill="black"/>
</svg>
