<svg width="278" height="108" viewBox="0 0 278 108" fill="none" xmlns="http://www.w3.org/2000/svg">
<path d="M17.6609 25.168C20.7101 21.8862 32.4352 19.9396 33.417 25.3467V82.7177C32.6335 86.8271 23.9765 86.451 20.6063 85.125C11.3735 81.5047 17.8025 67.0044 14.6021 64.7852C3.10363 64.757 -1.32394 63.0925 0.33758 50.6893C1.52708 41.7559 13.4504 46.0815 15.0742 43.74C16.5658 38.38 13.6486 29.4842 17.6703 25.1586L17.6609 25.168Z" fill="black"/>
<path d="M202.902 45.4703V14.9087C202.902 10.7335 206.858 4.01941 210.738 2.02586C217.846 -1.62272 237.52 -1.13374 237.888 10.1411L237.407 100.058C234.424 109.715 212.39 110.157 206.669 103.312C205.3 101.675 202.902 95.7699 202.902 93.8985V64.2774H76.8716C76.5412 64.2774 75.8237 62.6129 74.5115 64.7475V98.6003C74.5115 99.362 71.6415 103.34 70.6786 104.186C64.3913 109.781 42.5082 110.11 40.0254 99.0987L40.2236 8.96567C43.1785 -2.31859 66.657 -2.76056 72.4629 6.60538C77.4663 14.6642 72.7272 34.2424 74.8608 44.0973L75.9275 45.4703H202.902Z" fill="black"/>
<path d="M276.556 62.1977C273.327 66.166 264.661 62.9876 263.093 65.235C263.717 78.889 262.008 91.1606 245.204 84.108C245.166 76.8014 243.363 25.7307 245.666 23.4174C248.498 20.5682 257.467 21.8753 260.271 24.9032C264.632 29.6144 261.592 37.9741 263.093 43.7197C264.425 45.6192 275.819 42.9674 277.585 49.0327C278.302 51.487 278.17 60.2041 276.556 62.1977Z" fill="black"/>
</svg>
