<svg width="24" height="24" viewBox="0 0 24 24" fill="none" xmlns="http://www.w3.org/2000/svg">
<mask id="path-1-outside-1_1413_5394" maskUnits="userSpaceOnUse" x="0.5" y="0.5" width="23" height="23" fill="black">
<rect fill="white" x="0.5" y="0.5" width="23" height="23"/>
<path d="M21.75 18V16.5C21.75 16.1022 21.592 15.7206 21.3107 15.4393C21.0294 15.158 20.6478 15 20.25 15H18.75C18.3522 15 17.9706 15.158 17.6893 15.4393C17.408 15.7206 17.25 16.1022 17.25 16.5V18H12.75V16.5C12.75 16.1022 12.592 15.7206 12.3107 15.4393C12.0294 15.158 11.6478 15 11.25 15H9.75C9.35218 15 8.97064 15.158 8.68934 15.4393C8.40804 15.7206 8.25 16.1022 8.25 16.5V18C8.05109 18 7.86032 18.079 7.71967 18.2197C7.57902 18.3603 7.5 18.5511 7.5 18.75C7.5 18.9489 7.57902 19.1397 7.71967 19.2803C7.86032 19.421 8.05109 19.5 8.25 19.5V21C8.25 21.3978 8.40804 21.7794 8.68934 22.0607C8.97064 22.342 9.35218 22.5 9.75 22.5H11.25C11.6478 22.5 12.0294 22.342 12.3107 22.0607C12.592 21.7794 12.75 21.3978 12.75 21V19.5H17.25V21C17.25 21.3978 17.408 21.7794 17.6893 22.0607C17.9706 22.342 18.3522 22.5 18.75 22.5H20.25C20.6478 22.5 21.0294 22.342 21.3107 22.0607C21.592 21.7794 21.75 21.3978 21.75 21V19.5C21.9489 19.5 22.1397 19.421 22.2803 19.2803C22.421 19.1397 22.5 18.9489 22.5 18.75C22.5 18.5511 22.421 18.3603 22.2803 18.2197C22.1397 18.079 21.9489 18 21.75 18ZM11.25 21H9.75V16.5H11.25V21ZM18.75 21V16.5H20.25V21H18.75Z"/>
<path d="M5.25 11.25C5.10166 11.25 4.95666 11.294 4.83332 11.3764C4.70999 11.4588 4.61386 11.5759 4.55709 11.713C4.50032 11.85 4.48547 12.0008 4.51441 12.1463C4.54335 12.2918 4.61478 12.4254 4.71967 12.5303C4.82456 12.6352 4.9582 12.7066 5.10368 12.7356C5.24917 12.7645 5.39997 12.7497 5.53701 12.6929C5.67406 12.6361 5.79119 12.54 5.8736 12.4167C5.95601 12.2933 6 12.1483 6 12C6 11.8011 5.92098 11.6103 5.78033 11.4697C5.63968 11.329 5.44891 11.25 5.25 11.25Z"/>
<path d="M12 11.25H8.25C8.05109 11.25 7.86032 11.329 7.71967 11.4697C7.57902 11.6103 7.5 11.8011 7.5 12C7.5 12.1989 7.57902 12.3897 7.71967 12.5303C7.86032 12.671 8.05109 12.75 8.25 12.75H12C12.1989 12.75 12.3897 12.671 12.5303 12.5303C12.671 12.3897 12.75 12.1989 12.75 12C12.75 11.8011 12.671 11.6103 12.5303 11.4697C12.3897 11.329 12.1989 11.25 12 11.25Z"/>
<path d="M5.25 8.25C5.10166 8.25 4.95666 8.29399 4.83332 8.3764C4.70999 8.45881 4.61386 8.57594 4.55709 8.71299C4.50032 8.85003 4.48547 9.00083 4.51441 9.14632C4.54335 9.2918 4.61478 9.42544 4.71967 9.53033C4.82456 9.63522 4.9582 9.70665 5.10368 9.73559C5.24917 9.76453 5.39997 9.74967 5.53701 9.69291C5.67406 9.63614 5.79119 9.54002 5.8736 9.41668C5.95601 9.29334 6 9.14834 6 9C6 8.80109 5.92098 8.61032 5.78033 8.46967C5.63968 8.32902 5.44891 8.25 5.25 8.25Z"/>
<path d="M12 8.25H8.25C8.05109 8.25 7.86032 8.32902 7.71967 8.46967C7.57902 8.61032 7.5 8.80109 7.5 9C7.5 9.19891 7.57902 9.38968 7.71967 9.53033C7.86032 9.67098 8.05109 9.75 8.25 9.75H12C12.1989 9.75 12.3897 9.67098 12.5303 9.53033C12.671 9.38968 12.75 9.19891 12.75 9C12.75 8.80109 12.671 8.61032 12.5303 8.46967C12.3897 8.32902 12.1989 8.25 12 8.25Z"/>
<path d="M5.25 14.25C5.10166 14.25 4.95666 14.294 4.83332 14.3764C4.70999 14.4588 4.61386 14.5759 4.55709 14.713C4.50032 14.85 4.48547 15.0008 4.51441 15.1463C4.54335 15.2918 4.61478 15.4254 4.71967 15.5303C4.82456 15.6352 4.9582 15.7066 5.10368 15.7356C5.24917 15.7645 5.39997 15.7497 5.53701 15.6929C5.67406 15.6361 5.79119 15.54 5.8736 15.4167C5.95601 15.2933 6 15.1483 6 15C6 14.8011 5.92098 14.6103 5.78033 14.4697C5.63968 14.329 5.44891 14.25 5.25 14.25Z"/>
<path d="M10.5 6C11.0967 6 11.669 5.76295 12.091 5.34099C12.5129 4.91903 12.75 4.34674 12.75 3.75H14.25V15.75C14.25 15.9489 14.329 16.1397 14.4697 16.2803C14.6103 16.421 14.8011 16.5 15 16.5C15.1989 16.5 15.3897 16.421 15.5303 16.2803C15.671 16.1397 15.75 15.9489 15.75 15.75V3.75C15.75 3.35218 15.592 2.97064 15.3107 2.68934C15.0294 2.40804 14.6478 2.25 14.25 2.25H12.54C12.4091 2.02329 12.2212 1.83479 11.9949 1.70321C11.7686 1.57164 11.5118 1.50158 11.25 1.5H6C5.73823 1.50158 5.48143 1.57164 5.25512 1.70321C5.02882 1.83479 4.84088 2.02329 4.71 2.25H3C2.60218 2.25 2.22064 2.40804 1.93934 2.68934C1.65804 2.97064 1.5 3.35218 1.5 3.75V21C1.5 21.3978 1.65804 21.7794 1.93934 22.0607C2.22064 22.342 2.60218 22.5 3 22.5H6C6.19891 22.5 6.38968 22.421 6.53033 22.2803C6.67098 22.1397 6.75 21.9489 6.75 21.75C6.75 21.5511 6.67098 21.3603 6.53033 21.2197C6.38968 21.079 6.19891 21 6 21H3V3.75H4.5C4.5 4.34674 4.73705 4.91903 5.15901 5.34099C5.58097 5.76295 6.15326 6 6.75 6H10.5ZM6 3.75V3H11.25V3.75C11.25 3.94891 11.171 4.13968 11.0303 4.28033C10.8897 4.42098 10.6989 4.5 10.5 4.5H6.75C6.55109 4.5 6.36032 4.42098 6.21967 4.28033C6.07902 4.13968 6 3.94891 6 3.75Z"/>
<path d="M5.25 17.25C5.10166 17.25 4.95666 17.294 4.83332 17.3764C4.70999 17.4588 4.61386 17.5759 4.55709 17.713C4.50032 17.85 4.48547 18.0008 4.51441 18.1463C4.54335 18.2918 4.61478 18.4254 4.71967 18.5303C4.82456 18.6352 4.9582 18.7066 5.10368 18.7356C5.24917 18.7645 5.39997 18.7497 5.53701 18.6929C5.67406 18.6361 5.79119 18.54 5.8736 18.4167C5.95601 18.2933 6 18.1483 6 18C6 17.8011 5.92098 17.6103 5.78033 17.4697C5.63968 17.329 5.44891 17.25 5.25 17.25Z"/>
</mask>
<path d="M21.75 18V16.5C21.75 16.1022 21.592 15.7206 21.3107 15.4393C21.0294 15.158 20.6478 15 20.25 15H18.75C18.3522 15 17.9706 15.158 17.6893 15.4393C17.408 15.7206 17.25 16.1022 17.25 16.5V18H12.75V16.5C12.75 16.1022 12.592 15.7206 12.3107 15.4393C12.0294 15.158 11.6478 15 11.25 15H9.75C9.35218 15 8.97064 15.158 8.68934 15.4393C8.40804 15.7206 8.25 16.1022 8.25 16.5V18C8.05109 18 7.86032 18.079 7.71967 18.2197C7.57902 18.3603 7.5 18.5511 7.5 18.75C7.5 18.9489 7.57902 19.1397 7.71967 19.2803C7.86032 19.421 8.05109 19.5 8.25 19.5V21C8.25 21.3978 8.40804 21.7794 8.68934 22.0607C8.97064 22.342 9.35218 22.5 9.75 22.5H11.25C11.6478 22.5 12.0294 22.342 12.3107 22.0607C12.592 21.7794 12.75 21.3978 12.75 21V19.5H17.25V21C17.25 21.3978 17.408 21.7794 17.6893 22.0607C17.9706 22.342 18.3522 22.5 18.75 22.5H20.25C20.6478 22.5 21.0294 22.342 21.3107 22.0607C21.592 21.7794 21.75 21.3978 21.75 21V19.5C21.9489 19.5 22.1397 19.421 22.2803 19.2803C22.421 19.1397 22.5 18.9489 22.5 18.75C22.5 18.5511 22.421 18.3603 22.2803 18.2197C22.1397 18.079 21.9489 18 21.75 18ZM11.25 21H9.75V16.5H11.25V21ZM18.75 21V16.5H20.25V21H18.75Z" fill="black"/>
<path d="M5.25 11.25C5.10166 11.25 4.95666 11.294 4.83332 11.3764C4.70999 11.4588 4.61386 11.5759 4.55709 11.713C4.50032 11.85 4.48547 12.0008 4.51441 12.1463C4.54335 12.2918 4.61478 12.4254 4.71967 12.5303C4.82456 12.6352 4.9582 12.7066 5.10368 12.7356C5.24917 12.7645 5.39997 12.7497 5.53701 12.6929C5.67406 12.6361 5.79119 12.54 5.8736 12.4167C5.95601 12.2933 6 12.1483 6 12C6 11.8011 5.92098 11.6103 5.78033 11.4697C5.63968 11.329 5.44891 11.25 5.25 11.25Z" fill="black"/>
<path d="M12 11.25H8.25C8.05109 11.25 7.86032 11.329 7.71967 11.4697C7.57902 11.6103 7.5 11.8011 7.5 12C7.5 12.1989 7.57902 12.3897 7.71967 12.5303C7.86032 12.671 8.05109 12.75 8.25 12.75H12C12.1989 12.75 12.3897 12.671 12.5303 12.5303C12.671 12.3897 12.75 12.1989 12.75 12C12.75 11.8011 12.671 11.6103 12.5303 11.4697C12.3897 11.329 12.1989 11.25 12 11.25Z" fill="black"/>
<path d="M5.25 8.25C5.10166 8.25 4.95666 8.29399 4.83332 8.3764C4.70999 8.45881 4.61386 8.57594 4.55709 8.71299C4.50032 8.85003 4.48547 9.00083 4.51441 9.14632C4.54335 9.2918 4.61478 9.42544 4.71967 9.53033C4.82456 9.63522 4.9582 9.70665 5.10368 9.73559C5.24917 9.76453 5.39997 9.74967 5.53701 9.69291C5.67406 9.63614 5.79119 9.54002 5.8736 9.41668C5.95601 9.29334 6 9.14834 6 9C6 8.80109 5.92098 8.61032 5.78033 8.46967C5.63968 8.32902 5.44891 8.25 5.25 8.25Z" fill="black"/>
<path d="M12 8.25H8.25C8.05109 8.25 7.86032 8.32902 7.71967 8.46967C7.57902 8.61032 7.5 8.80109 7.5 9C7.5 9.19891 7.57902 9.38968 7.71967 9.53033C7.86032 9.67098 8.05109 9.75 8.25 9.75H12C12.1989 9.75 12.3897 9.67098 12.5303 9.53033C12.671 9.38968 12.75 9.19891 12.75 9C12.75 8.80109 12.671 8.61032 12.5303 8.46967C12.3897 8.32902 12.1989 8.25 12 8.25Z" fill="black"/>
<path d="M5.25 14.25C5.10166 14.25 4.95666 14.294 4.83332 14.3764C4.70999 14.4588 4.61386 14.5759 4.55709 14.713C4.50032 14.85 4.48547 15.0008 4.51441 15.1463C4.54335 15.2918 4.61478 15.4254 4.71967 15.5303C4.82456 15.6352 4.9582 15.7066 5.10368 15.7356C5.24917 15.7645 5.39997 15.7497 5.53701 15.6929C5.67406 15.6361 5.79119 15.54 5.8736 15.4167C5.95601 15.2933 6 15.1483 6 15C6 14.8011 5.92098 14.6103 5.78033 14.4697C5.63968 14.329 5.44891 14.25 5.25 14.25Z" fill="black"/>
<path d="M10.5 6C11.0967 6 11.669 5.76295 12.091 5.34099C12.5129 4.91903 12.75 4.34674 12.75 3.75H14.25V15.75C14.25 15.9489 14.329 16.1397 14.4697 16.2803C14.6103 16.421 14.8011 16.5 15 16.5C15.1989 16.5 15.3897 16.421 15.5303 16.2803C15.671 16.1397 15.75 15.9489 15.75 15.75V3.75C15.75 3.35218 15.592 2.97064 15.3107 2.68934C15.0294 2.40804 14.6478 2.25 14.25 2.25H12.54C12.4091 2.02329 12.2212 1.83479 11.9949 1.70321C11.7686 1.57164 11.5118 1.50158 11.25 1.5H6C5.73823 1.50158 5.48143 1.57164 5.25512 1.70321C5.02882 1.83479 4.84088 2.02329 4.71 2.25H3C2.60218 2.25 2.22064 2.40804 1.93934 2.68934C1.65804 2.97064 1.5 3.35218 1.5 3.75V21C1.5 21.3978 1.65804 21.7794 1.93934 22.0607C2.22064 22.342 2.60218 22.5 3 22.5H6C6.19891 22.5 6.38968 22.421 6.53033 22.2803C6.67098 22.1397 6.75 21.9489 6.75 21.75C6.75 21.5511 6.67098 21.3603 6.53033 21.2197C6.38968 21.079 6.19891 21 6 21H3V3.75H4.5C4.5 4.34674 4.73705 4.91903 5.15901 5.34099C5.58097 5.76295 6.15326 6 6.75 6H10.5ZM6 3.75V3H11.25V3.75C11.25 3.94891 11.171 4.13968 11.0303 4.28033C10.8897 4.42098 10.6989 4.5 10.5 4.5H6.75C6.55109 4.5 6.36032 4.42098 6.21967 4.28033C6.07902 4.13968 6 3.94891 6 3.75Z" fill="black"/>
<path d="M5.25 17.25C5.10166 17.25 4.95666 17.294 4.83332 17.3764C4.70999 17.4588 4.61386 17.5759 4.55709 17.713C4.50032 17.85 4.48547 18.0008 4.51441 18.1463C4.54335 18.2918 4.61478 18.4254 4.71967 18.5303C4.82456 18.6352 4.9582 18.7066 5.10368 18.7356C5.24917 18.7645 5.39997 18.7497 5.53701 18.6929C5.67406 18.6361 5.79119 18.54 5.8736 18.4167C5.95601 18.2933 6 18.1483 6 18C6 17.8011 5.92098 17.6103 5.78033 17.4697C5.63968 17.329 5.44891 17.25 5.25 17.25Z" fill="black"/>
<path d="M21.75 18V16.5C21.75 16.1022 21.592 15.7206 21.3107 15.4393C21.0294 15.158 20.6478 15 20.25 15H18.75C18.3522 15 17.9706 15.158 17.6893 15.4393C17.408 15.7206 17.25 16.1022 17.25 16.5V18H12.75V16.5C12.75 16.1022 12.592 15.7206 12.3107 15.4393C12.0294 15.158 11.6478 15 11.25 15H9.75C9.35218 15 8.97064 15.158 8.68934 15.4393C8.40804 15.7206 8.25 16.1022 8.25 16.5V18C8.05109 18 7.86032 18.079 7.71967 18.2197C7.57902 18.3603 7.5 18.5511 7.5 18.75C7.5 18.9489 7.57902 19.1397 7.71967 19.2803C7.86032 19.421 8.05109 19.5 8.25 19.5V21C8.25 21.3978 8.40804 21.7794 8.68934 22.0607C8.97064 22.342 9.35218 22.5 9.75 22.5H11.25C11.6478 22.5 12.0294 22.342 12.3107 22.0607C12.592 21.7794 12.75 21.3978 12.75 21V19.5H17.25V21C17.25 21.3978 17.408 21.7794 17.6893 22.0607C17.9706 22.342 18.3522 22.5 18.75 22.5H20.25C20.6478 22.5 21.0294 22.342 21.3107 22.0607C21.592 21.7794 21.75 21.3978 21.75 21V19.5C21.9489 19.5 22.1397 19.421 22.2803 19.2803C22.421 19.1397 22.5 18.9489 22.5 18.75C22.5 18.5511 22.421 18.3603 22.2803 18.2197C22.1397 18.079 21.9489 18 21.75 18ZM11.25 21H9.75V16.5H11.25V21ZM18.75 21V16.5H20.25V21H18.75Z" stroke="black" stroke-width="0.4" mask="url(#path-1-outside-1_1413_5394)"/>
<path d="M5.25 11.25C5.10166 11.25 4.95666 11.294 4.83332 11.3764C4.70999 11.4588 4.61386 11.5759 4.55709 11.713C4.50032 11.85 4.48547 12.0008 4.51441 12.1463C4.54335 12.2918 4.61478 12.4254 4.71967 12.5303C4.82456 12.6352 4.9582 12.7066 5.10368 12.7356C5.24917 12.7645 5.39997 12.7497 5.53701 12.6929C5.67406 12.6361 5.79119 12.54 5.8736 12.4167C5.95601 12.2933 6 12.1483 6 12C6 11.8011 5.92098 11.6103 5.78033 11.4697C5.63968 11.329 5.44891 11.25 5.25 11.25Z" stroke="black" stroke-width="0.4" mask="url(#path-1-outside-1_1413_5394)"/>
<path d="M12 11.25H8.25C8.05109 11.25 7.86032 11.329 7.71967 11.4697C7.57902 11.6103 7.5 11.8011 7.5 12C7.5 12.1989 7.57902 12.3897 7.71967 12.5303C7.86032 12.671 8.05109 12.75 8.25 12.75H12C12.1989 12.75 12.3897 12.671 12.5303 12.5303C12.671 12.3897 12.75 12.1989 12.75 12C12.75 11.8011 12.671 11.6103 12.5303 11.4697C12.3897 11.329 12.1989 11.25 12 11.25Z" stroke="black" stroke-width="0.4" mask="url(#path-1-outside-1_1413_5394)"/>
<path d="M5.25 8.25C5.10166 8.25 4.95666 8.29399 4.83332 8.3764C4.70999 8.45881 4.61386 8.57594 4.55709 8.71299C4.50032 8.85003 4.48547 9.00083 4.51441 9.14632C4.54335 9.2918 4.61478 9.42544 4.71967 9.53033C4.82456 9.63522 4.9582 9.70665 5.10368 9.73559C5.24917 9.76453 5.39997 9.74967 5.53701 9.69291C5.67406 9.63614 5.79119 9.54002 5.8736 9.41668C5.95601 9.29334 6 9.14834 6 9C6 8.80109 5.92098 8.61032 5.78033 8.46967C5.63968 8.32902 5.44891 8.25 5.25 8.25Z" stroke="black" stroke-width="0.4" mask="url(#path-1-outside-1_1413_5394)"/>
<path d="M12 8.25H8.25C8.05109 8.25 7.86032 8.32902 7.71967 8.46967C7.57902 8.61032 7.5 8.80109 7.5 9C7.5 9.19891 7.57902 9.38968 7.71967 9.53033C7.86032 9.67098 8.05109 9.75 8.25 9.75H12C12.1989 9.75 12.3897 9.67098 12.5303 9.53033C12.671 9.38968 12.75 9.19891 12.75 9C12.75 8.80109 12.671 8.61032 12.5303 8.46967C12.3897 8.32902 12.1989 8.25 12 8.25Z" stroke="black" stroke-width="0.4" mask="url(#path-1-outside-1_1413_5394)"/>
<path d="M5.25 14.25C5.10166 14.25 4.95666 14.294 4.83332 14.3764C4.70999 14.4588 4.61386 14.5759 4.55709 14.713C4.50032 14.85 4.48547 15.0008 4.51441 15.1463C4.54335 15.2918 4.61478 15.4254 4.71967 15.5303C4.82456 15.6352 4.9582 15.7066 5.10368 15.7356C5.24917 15.7645 5.39997 15.7497 5.53701 15.6929C5.67406 15.6361 5.79119 15.54 5.8736 15.4167C5.95601 15.2933 6 15.1483 6 15C6 14.8011 5.92098 14.6103 5.78033 14.4697C5.63968 14.329 5.44891 14.25 5.25 14.25Z" stroke="black" stroke-width="0.4" mask="url(#path-1-outside-1_1413_5394)"/>
<path d="M10.5 6C11.0967 6 11.669 5.76295 12.091 5.34099C12.5129 4.91903 12.75 4.34674 12.75 3.75H14.25V15.75C14.25 15.9489 14.329 16.1397 14.4697 16.2803C14.6103 16.421 14.8011 16.5 15 16.5C15.1989 16.5 15.3897 16.421 15.5303 16.2803C15.671 16.1397 15.75 15.9489 15.75 15.75V3.75C15.75 3.35218 15.592 2.97064 15.3107 2.68934C15.0294 2.40804 14.6478 2.25 14.25 2.25H12.54C12.4091 2.02329 12.2212 1.83479 11.9949 1.70321C11.7686 1.57164 11.5118 1.50158 11.25 1.5H6C5.73823 1.50158 5.48143 1.57164 5.25512 1.70321C5.02882 1.83479 4.84088 2.02329 4.71 2.25H3C2.60218 2.25 2.22064 2.40804 1.93934 2.68934C1.65804 2.97064 1.5 3.35218 1.5 3.75V21C1.5 21.3978 1.65804 21.7794 1.93934 22.0607C2.22064 22.342 2.60218 22.5 3 22.5H6C6.19891 22.5 6.38968 22.421 6.53033 22.2803C6.67098 22.1397 6.75 21.9489 6.75 21.75C6.75 21.5511 6.67098 21.3603 6.53033 21.2197C6.38968 21.079 6.19891 21 6 21H3V3.75H4.5C4.5 4.34674 4.73705 4.91903 5.15901 5.34099C5.58097 5.76295 6.15326 6 6.75 6H10.5ZM6 3.75V3H11.25V3.75C11.25 3.94891 11.171 4.13968 11.0303 4.28033C10.8897 4.42098 10.6989 4.5 10.5 4.5H6.75C6.55109 4.5 6.36032 4.42098 6.21967 4.28033C6.07902 4.13968 6 3.94891 6 3.75Z" stroke="black" stroke-width="0.4" mask="url(#path-1-outside-1_1413_5394)"/>
<path d="M5.25 17.25C5.10166 17.25 4.95666 17.294 4.83332 17.3764C4.70999 17.4588 4.61386 17.5759 4.55709 17.713C4.50032 17.85 4.48547 18.0008 4.51441 18.1463C4.54335 18.2918 4.61478 18.4254 4.71967 18.5303C4.82456 18.6352 4.9582 18.7066 5.10368 18.7356C5.24917 18.7645 5.39997 18.7497 5.53701 18.6929C5.67406 18.6361 5.79119 18.54 5.8736 18.4167C5.95601 18.2933 6 18.1483 6 18C6 17.8011 5.92098 17.6103 5.78033 17.4697C5.63968 17.329 5.44891 17.25 5.25 17.25Z" stroke="black" stroke-width="0.4" mask="url(#path-1-outside-1_1413_5394)"/>
</svg>
