<svg width="151" height="151" viewBox="0 0 151 151" fill="none" xmlns="http://www.w3.org/2000/svg">
<path d="M150.587 115.048C150.587 124.046 127.019 150.045 90.5907 150.045C73.0855 150.273 55.7534 146.559 39.8785 139.178C38.6796 141.804 38.0705 144.66 38.0942 147.546C38.0942 148.209 37.8308 148.844 37.362 149.313C36.8932 149.782 36.2574 150.045 35.5944 150.045C34.9314 150.045 34.2955 149.782 33.8267 149.313C33.3579 148.844 33.0945 148.209 33.0945 147.546C33.0945 128.382 52.2144 122.699 52.4072 122.642C53.0447 122.459 53.7286 122.537 54.3087 122.859C54.8887 123.18 55.3174 123.719 55.5003 124.356C55.6832 124.994 55.6054 125.678 55.284 126.258C54.9626 126.838 54.4239 127.266 53.7865 127.449C49.4294 128.876 45.5428 131.462 42.5434 134.93C57.6106 141.824 74.0229 145.279 90.5907 145.046C124.287 145.046 145.587 121.051 145.587 115.048C145.587 64.5774 131.391 28.7936 122.927 11.9563C121.893 9.87831 120.298 8.13091 118.322 6.91141C116.347 5.69192 114.07 5.0489 111.749 5.05495H92.3924C90.0502 5.0542 87.7551 5.71237 85.7693 6.95425L72.9626 14.9566C72.4652 15.2678 72.0929 15.7439 71.9109 16.3017C71.7288 16.8595 71.7485 17.4635 71.9666 18.0082L74.7837 25.0536H85.5911C86.2539 25.0532 86.8895 24.7897 87.3582 24.3209C87.8269 23.8522 88.0905 23.2167 88.0909 22.5538V20.054C88.0909 19.391 88.3543 18.7551 88.8231 18.2863C89.2919 17.8175 89.9277 17.5541 90.5907 17.5541C91.2537 17.5541 91.8896 17.8175 92.3584 18.2863C92.8272 18.7551 93.0906 19.391 93.0906 20.054V22.5538C93.0884 24.5421 92.2976 26.4484 90.8916 27.8543C89.4857 29.2603 87.5794 30.0511 85.5911 30.0533H74.6372L72.8771 33.5736C72.7138 33.8973 72.6231 34.2527 72.6113 34.6151C72.5995 34.9775 72.6668 35.3381 72.8085 35.6718C72.9503 36.0055 73.1631 36.3043 73.4321 36.5473C73.7011 36.7904 74.0199 36.9719 74.3662 37.0792C79.6097 38.8204 85.0706 39.8212 90.5907 40.0526C99.7674 40.0526 111.686 32.9804 111.805 32.9096C112.374 32.5687 113.054 32.4676 113.697 32.6285C114.34 32.7894 114.893 33.1992 115.234 33.7676C115.575 34.3361 115.676 35.0167 115.515 35.6597C115.354 36.3027 114.944 36.8555 114.376 37.1964C111.832 38.6727 109.199 39.989 106.491 41.1376C109.463 49.052 110.839 57.4763 110.541 65.925C110.54 66.3419 110.436 66.7522 110.238 67.1188C106.74 73.5961 103.829 80.3734 101.539 87.3695C104.026 89.0909 106.147 91.2897 107.777 93.8381C108.098 94.4183 108.176 95.1022 107.993 95.7395C107.81 96.3768 107.381 96.9152 106.801 97.2364C106.22 97.5575 105.537 97.635 104.899 97.4519C104.262 97.2688 103.724 96.84 103.402 96.2599C103.148 95.818 96.7231 85.0497 75.5917 85.0497C54.4603 85.0497 48.0349 95.818 47.7713 96.2769C47.4449 96.85 46.9052 97.2708 46.27 97.4478C45.6347 97.6249 44.9552 97.5437 44.3795 97.222C43.8037 96.9003 43.3784 96.3642 43.1962 95.7304C43.0139 95.0966 43.0895 94.4165 43.4063 93.8381C44.7102 91.7693 46.3583 89.9387 48.2794 88.4254C35.623 72.228 19.5906 72.378 6.58993 72.5212C5.38636 72.5358 4.22194 72.5505 3.09651 72.5505C2.43352 72.5505 1.79767 72.2871 1.32886 71.8183C0.860054 71.3495 0.59668 70.7136 0.59668 70.0506C0.59668 69.3876 0.860054 68.7518 1.32886 68.283C1.79767 67.8142 2.43352 67.5508 3.09651 67.5508C4.20239 67.5508 5.34734 67.5362 6.52891 67.524C19.9818 67.3422 38.1905 67.2048 52.3822 85.5643C59.4863 81.6834 67.5013 79.7792 75.5917 80.05C83.0513 79.8449 90.4508 81.4362 97.1665 84.6897C99.4196 78.0066 102.22 71.5207 105.538 65.2976C105.778 57.6661 104.51 50.0623 101.809 42.921C98.205 44.2182 94.419 44.9375 90.5907 45.0523C84.5687 44.8219 78.609 43.7453 72.8869 41.8543C71.8477 41.5324 70.8911 40.9882 70.0835 40.2594C69.2759 39.5306 68.6366 38.6347 68.2101 37.634C67.7835 36.6332 67.58 35.5516 67.6136 34.4643C67.6472 33.3769 67.9172 32.31 68.4047 31.3375L70.3536 27.4396L67.3232 19.8635C66.6697 18.2308 66.6109 16.4203 67.1571 14.7486C67.7033 13.0769 68.8198 11.6504 70.3113 10.7186L83.118 2.71623C85.8986 0.976677 89.1125 0.0545593 92.3924 0.0552784H111.749C114.998 0.0464429 118.184 0.945801 120.949 2.65185C123.713 4.3579 125.946 6.80272 127.395 9.71039C136.056 26.9456 150.587 63.5447 150.587 115.048Z" fill="black"/>
</svg>
