<svg width="38" height="38" viewBox="0 0 38 38" fill="none" xmlns="http://www.w3.org/2000/svg">
<path d="M19.2499 37.2266C29.2712 37.2266 37.3951 29.1027 37.3951 19.0814C37.3951 9.06014 29.2712 0.936279 19.2499 0.936279C9.2286 0.936279 1.10474 9.06014 1.10474 19.0814C1.10474 29.1027 9.2286 37.2266 19.2499 37.2266Z" fill="white" stroke="#D7D7D7" stroke-width="0.604839"/>
<path d="M16.1754 20.3173H19.1156C18.5995 21.7765 17.2017 22.8226 15.5653 22.8106C13.5796 22.7959 11.9378 21.2075 11.8607 19.2233C11.7781 17.0964 13.4844 15.3397 15.5933 15.3397C16.5576 15.3397 17.4375 15.7071 18.1009 16.3091C18.258 16.4518 18.4972 16.4527 18.6517 16.3072L19.7317 15.2908C19.9005 15.1318 19.9012 14.8634 19.7328 14.7038C18.6807 13.7072 17.2694 13.0859 15.7131 13.0555C12.3937 12.9907 9.59578 15.7123 9.57266 19.0323C9.54933 22.3772 12.2538 25.096 15.5933 25.096C18.8048 25.096 21.4284 22.5814 21.6041 19.4138C21.6088 19.3741 21.6119 18.032 21.6119 18.032H16.1754C15.9525 18.032 15.7719 18.2126 15.7719 18.4354V19.9138C15.7719 20.1367 15.9526 20.3173 16.1754 20.3173Z" fill="black"/>
<path d="M26.594 18.1662V16.7217C26.594 16.5264 26.4357 16.3682 26.2405 16.3682H25.0247C24.8294 16.3682 24.6711 16.5264 24.6711 16.7217V18.1662H23.2266C23.0313 18.1662 22.873 18.3245 22.873 18.5198V19.7356C22.873 19.9309 23.0313 20.0891 23.2266 20.0891H24.6711V21.5336C24.6711 21.7289 24.8294 21.8872 25.0247 21.8872H26.2405C26.4357 21.8872 26.594 21.7289 26.594 21.5336V20.0891H28.0385C28.2338 20.0891 28.3921 19.9309 28.3921 19.7356V18.5198C28.3921 18.3245 28.2338 18.1662 28.0385 18.1662H26.594Z" fill="black"/>
</svg>
