<svg width="17" height="17" viewBox="0 0 17 17" fill="none" xmlns="http://www.w3.org/2000/svg">
<g clip-path="url(#clip0_1434_481)">
<path d="M16.3878 4.75524C16.3501 3.90167 16.2121 3.31485 16.0144 2.80636C15.8104 2.26661 15.4966 1.78337 15.0854 1.38166C14.6837 0.973691 14.1973 0.656682 13.6638 0.455885C13.1523 0.258153 12.5686 0.120121 11.715 0.082487C10.8551 0.0416657 10.5821 0.0322266 8.40102 0.0322266C6.21996 0.0322266 5.94696 0.0416657 5.0902 0.0792998C4.23663 0.116934 3.64981 0.255089 3.14144 0.452698C2.60157 0.656682 2.11834 0.970504 1.71662 1.38166C1.30865 1.78337 0.991766 2.2698 0.790846 2.80329C0.593114 3.31485 0.455082 3.89848 0.417448 4.75205C0.376627 5.612 0.367188 5.885 0.367188 8.06605C0.367188 10.2471 0.376627 10.5201 0.414261 11.3769C0.451895 12.2304 0.59005 12.8173 0.787782 13.3258C0.991766 13.8655 1.30865 14.3487 1.71662 14.7505C2.11834 15.1584 2.60476 15.4754 3.13825 15.6762C3.64981 15.874 4.23344 16.012 5.08713 16.0496C5.94377 16.0874 6.21689 16.0967 8.39795 16.0967C10.579 16.0967 10.852 16.0874 11.7088 16.0496C12.5623 16.012 13.1492 15.874 13.6575 15.6762C14.7371 15.2588 15.5907 14.4052 16.0081 13.3258C16.2057 12.8142 16.3439 12.2304 16.3815 11.3769C16.4192 10.5201 16.4286 10.2471 16.4286 8.06605C16.4286 5.885 16.4254 5.612 16.3878 4.75524ZM14.9411 11.3141C14.9066 12.0987 14.7748 12.5223 14.6649 12.8048C14.395 13.5046 13.8396 14.06 13.1397 14.33C12.8573 14.4398 12.4306 14.5716 11.6491 14.606C10.8017 14.6438 10.5476 14.6531 8.4042 14.6531C6.26078 14.6531 6.00347 14.6438 5.15922 14.606C4.37466 14.5716 3.951 14.4398 3.66856 14.33C3.3203 14.2013 3.00329 13.9973 2.74598 13.7305C2.47923 13.47 2.27525 13.1562 2.14653 12.8079C2.03669 12.5255 1.90491 12.0987 1.87047 11.3173C1.83271 10.47 1.82339 10.2157 1.82339 8.07231C1.82339 5.92888 1.83271 5.67157 1.87047 4.82744C1.90491 4.04289 2.03669 3.61923 2.14653 3.33679C2.27525 2.9884 2.47923 2.67151 2.74917 2.41408C3.00954 2.14733 3.32336 1.94335 3.67175 1.81476C3.95419 1.70492 4.38104 1.57314 5.1624 1.53857C6.00972 1.50094 6.26397 1.4915 8.40727 1.4915C10.5539 1.4915 10.808 1.50094 11.6523 1.53857C12.4368 1.57314 12.8605 1.70492 13.1429 1.81476C13.4912 1.94335 13.8082 2.14733 14.0655 2.41408C14.3322 2.67458 14.5362 2.9884 14.6649 3.33679C14.7748 3.61923 14.9066 4.04595 14.9411 4.82744C14.9788 5.67476 14.9882 5.92888 14.9882 8.07231C14.9882 10.2157 14.9788 10.4668 14.9411 11.3141Z" fill="#BF2033"/>
<path d="M8.40117 3.93921C6.1229 3.93921 4.27441 5.78757 4.27441 8.06596C4.27441 10.3444 6.1229 12.1927 8.40117 12.1927C10.6796 12.1927 12.5279 10.3444 12.5279 8.06596C12.5279 5.78757 10.6796 3.93921 8.40117 3.93921ZM8.40117 10.7429C6.92314 10.7429 5.72424 9.54411 5.72424 8.06596C5.72424 6.58781 6.92314 5.38904 8.40117 5.38904C9.87931 5.38904 11.0781 6.58781 11.0781 8.06596C11.0781 9.54411 9.87931 10.7429 8.40117 10.7429Z" fill="#BF2033"/>
<path d="M13.6545 3.7764C13.6545 4.30842 13.2231 4.7398 12.6909 4.7398C12.1589 4.7398 11.7275 4.30842 11.7275 3.7764C11.7275 3.24425 12.1589 2.81299 12.6909 2.81299C13.2231 2.81299 13.6545 3.24425 13.6545 3.7764Z" fill="#BF2033"/>
</g>
<defs>
<clipPath id="clip0_1434_481">
<rect width="16.0645" height="16.0645" fill="white" transform="translate(0.338867 0.0322266)"/>
</clipPath>
</defs>
</svg>
