<svg width="20" height="20" viewBox="0 0 20 20" fill="none" xmlns="http://www.w3.org/2000/svg">
<g clip-path="url(#clip0_1413_5183)">
<path d="M16.6928 7.62663L16.5544 7.62507C14.6247 7.62507 12.8886 8.70374 12.0057 10.3929C11.4503 10.1424 10.8481 10 10.2212 10C9.18534 10 8.21123 10.3693 7.44004 11.0125C7.42516 10.3326 7.33658 9.65536 7.25015 9.05375C7.17612 8.53939 7.10509 8.04031 7.10046 7.62473L9.10173 7.62507C9.41871 7.62507 9.7171 7.50138 9.94131 7.27717L11.5246 5.69386C11.9772 5.24131 11.9803 4.51547 11.5483 4.05035C11.6992 3.82421 11.7711 3.55335 11.7434 3.27678C11.7082 2.92154 11.5177 2.60381 11.2204 2.40587L10.2594 1.76538C9.79522 1.45574 9.25443 1.29187 8.69587 1.29187C7.53159 1.29187 6.43725 1.7453 5.61392 2.56863C4.09743 4.08504 2.90417 5.82143 2.06614 7.72983C1.05648 10.029 0.544681 11.7252 0.544681 12.7708C0.544681 13.37 0.492877 13.8566 0.390457 14.2177C0.171664 14.9888 0.51607 15.8114 1.22774 16.2181C4.07854 17.847 7.32092 18.7082 10.6043 18.7082H11.1767C13.2119 18.7082 15.2227 18.382 17.1536 17.7384L17.4307 17.6456C18.5637 17.2683 19.3252 16.2119 19.3252 15.0175V10.3994C19.3252 8.90881 18.1443 7.66489 16.6928 7.62663ZM18.5335 15.0175C18.5335 15.8706 17.9896 16.6251 17.1798 16.8949L16.9027 16.9877C15.0534 17.6039 13.1268 17.9166 11.1767 17.9166H10.6042C7.45848 17.9166 4.35178 17.0917 1.62043 15.5308C1.22537 15.3051 1.03288 14.8539 1.15193 14.4337C1.27446 14.0027 1.33632 13.443 1.33632 12.7708C1.33632 11.8485 1.83922 10.2157 2.79128 8.04833C3.58912 6.23 4.72713 4.5748 6.17359 3.12834C6.84734 2.4546 7.74299 2.08351 8.69583 2.08351C9.09746 2.08351 9.48632 2.2014 9.8203 2.42406L10.7813 3.06455C10.8806 3.13064 10.944 3.23655 10.9556 3.35486C10.9676 3.47353 10.9258 3.58949 10.8419 3.67377L9.57754 4.93817C9.44224 5.07347 9.23621 5.10672 9.06536 5.0213C8.93626 4.95673 8.84891 4.83805 8.82572 4.69545C8.80252 4.55284 8.84776 4.41249 8.94981 4.31044L9.31355 3.9467C9.46818 3.79207 9.46818 3.54159 9.31355 3.38699C9.15891 3.23236 8.90843 3.23236 8.75384 3.38699L8.3901 3.75073C8.10599 4.03484 7.97956 4.42566 8.04413 4.82262C8.1087 5.21923 8.35184 5.54973 8.71131 5.72948C9.18678 5.96683 9.76078 5.87484 10.1373 5.49792L11.0031 4.6321C11.1101 4.78625 11.1021 4.99695 10.9649 5.13418L9.38157 6.7175C9.30772 6.79135 9.20567 6.83346 9.10169 6.83346L7.25342 6.83317C7.27824 6.79209 7.30207 6.74982 7.33439 6.7175C7.48902 6.56287 7.48902 6.31238 7.33439 6.15779C7.17976 6.00316 6.92927 6.00316 6.77468 6.15779C6.12721 6.80526 6.28455 7.8996 6.4666 9.16668C6.56093 9.82458 6.65871 10.5049 6.65871 11.1875C6.65871 12.818 5.42485 13.1651 5.37227 13.1791C5.16197 13.2336 5.03443 13.4473 5.08738 13.6584C5.13221 13.8385 5.29341 13.9583 5.47083 13.9583C5.50252 13.9583 5.53499 13.9545 5.56709 13.9464C6.04104 13.8279 6.81776 13.3731 7.20818 12.4401C7.21356 12.4329 7.22232 12.4302 7.22733 12.4226C7.88757 11.4013 9.00662 10.7917 10.2212 10.7917C11.1666 10.7917 12.0573 11.1582 12.7287 11.8238C12.8841 11.9777 13.135 11.9769 13.2884 11.8215C13.4423 11.6661 13.4415 11.4156 13.2861 11.2618C13.1029 11.0802 12.9022 10.9236 12.6946 10.7794C13.4386 9.33823 14.9138 8.41675 16.5543 8.41675L16.6715 8.4183C17.6982 8.44536 18.5335 9.33404 18.5335 10.3994L18.5335 15.0175Z" fill="black"/>
</g>
<defs>
<clipPath id="clip0_1413_5183">
<rect width="19" height="19" fill="white" transform="translate(0.325195 0.5)"/>
</clipPath>
</defs>
</svg>
