<svg width="20" height="20" viewBox="0 0 20 20" fill="none" xmlns="http://www.w3.org/2000/svg">
<path d="M5.73391 15.0116C5.91405 15.0125 6.0917 14.8454 6.09306 14.6399V4.13755C6.10153 2.87531 6.8761 1.79399 7.92645 1.50696C11.569 0.597628 15.2777 0.50632 18.9499 1.23547C19.1247 1.27021 19.2907 1.13302 19.3205 0.929051C19.3503 0.725131 19.2326 0.531652 19.0577 0.496909C15.304 -0.248536 11.5125 -0.15484 7.78903 0.775139C6.55023 1.07299 5.4621 2.43212 5.45065 4.13175V14.6341C5.44917 14.841 5.5565 15.0108 5.73391 15.0116Z" fill="black"/>
<path d="M19.1995 6.07717C19.3402 5.95107 19.3665 5.71583 19.2584 5.55185C19.1502 5.38787 18.9486 5.3572 18.8079 5.48325C16.3569 7.68128 13.725 6.12034 11.263 5.55199C11.0891 5.51209 10.9199 5.64376 10.8855 5.8467C10.851 6.04964 10.9642 6.24677 11.1382 6.2869C13.5668 6.84738 16.4692 8.52567 19.1995 6.07717Z" fill="black"/>
<path d="M10.6365 6.29198C10.4161 6.22755 10.2081 6.18616 10.0063 6.16612C9.82323 5.55684 9.50122 5.01438 8.9902 4.57465C8.84744 4.45183 8.6463 4.48718 8.54098 4.65369C8.43561 4.82015 8.46596 5.05464 8.60872 5.17756C11.2866 7.48174 7.45778 13.7319 7.90343 16.2123C7.98763 16.681 8.20809 17.883 8.07826 18.3324C7.84078 19.1546 6.98932 19.4027 6.33663 19.1612C4.32355 18.4165 3.29416 19.6973 0.976542 19.0699C0.585707 18.9642 0.600806 18.2992 1.00031 18.2172C2.30087 17.9505 4.05467 17.618 5.10096 16.7138C5.24348 16.5906 5.27339 16.356 5.16778 16.1898C5.06209 16.0236 4.86091 15.9887 4.7184 16.1119C3.78221 16.921 2.05765 17.2397 0.888922 17.4794C-0.19805 17.7024 -0.240093 19.5098 0.831299 19.7998C3.28328 20.4632 4.33837 19.2082 6.14236 19.8754C7.08441 20.2241 8.32522 19.8246 8.68714 18.5716C8.85612 17.9867 8.69762 16.9779 8.53576 16.0782C8.23029 14.3804 10.5336 10.0632 10.1643 6.94307C10.2663 6.9619 10.3711 6.98681 10.4803 7.01869C10.651 7.0687 10.8266 6.94869 10.87 6.74646C10.9132 6.54572 10.8086 6.34227 10.6365 6.29198Z" fill="black"/>
</svg>
