<svg width="121" height="150" viewBox="0 0 121 150" fill="none" xmlns="http://www.w3.org/2000/svg">
<path d="M113.834 136.898C112.53 136.898 111.243 136.556 110.113 135.91L96.0012 127.849V127.4C96.1322 113.475 98.1377 99.6254 101.966 86.2332L104.16 78.5495C107.108 68.2569 105.977 57.3761 100.972 47.9125L100.884 47.7449V38.132C100.878 32.1978 102.063 26.4252 104.404 20.9726C106.928 15.1024 108.205 8.88478 108.199 2.49344V0.353844H104.846V2.49953C104.852 8.4337 103.667 14.2063 101.326 19.6589C98.8022 25.5291 97.5251 31.7467 97.5312 38.1381V42.3654L96.114 40.5946L93.4989 42.6915L94.0658 43.4017C101.752 53.0085 104.325 65.8064 100.942 77.6382L98.7473 85.3218C94.7028 99.473 92.6546 114.112 92.6546 128.83C92.6546 129.43 92.9747 129.988 93.4928 130.287L108.439 138.818C110.079 139.76 111.948 140.256 113.837 140.259C115.602 140.259 117.037 141.695 117.037 143.46C117.037 145.224 115.602 146.66 113.837 146.66H77.263C74.1542 146.66 71.6245 144.13 71.6245 141.021C71.6245 139.808 72.0237 138.607 72.7522 137.638L74.2151 135.688C77.2508 131.622 78.9271 126.59 78.9393 121.515C78.9393 121.448 78.9332 121.381 78.9271 121.311L75.6629 95.203L76.9125 95.7882C79.9482 97.2115 83.5202 95.9863 85.0411 92.9933L90.8412 81.4998L87.8482 79.9911L82.0237 91.5273C81.2191 92.908 79.4361 93.3773 78.0585 92.5696C77.7994 92.4172 77.5647 92.2283 77.3666 92.0058L77.3392 91.9753C72.1121 85.4986 69.2228 77.3487 69.2106 69.028V66.224C69.2106 61.0244 70.0518 55.8887 71.7098 50.9604C72.8162 47.7205 75.7238 45.4803 79.0826 45.1938V41.8351C76.8912 41.9723 74.7973 42.7037 72.9838 43.9716L71.9719 44.6787L71.7921 43.4566C71.7037 42.847 71.6458 42.2283 71.6245 41.6157C71.6245 39.79 71.911 38.0161 72.4809 36.3124C73.5324 33.164 74.0627 29.8845 74.0627 26.5623C74.0627 24.6117 73.5995 22.6611 72.7308 20.9146L70.9326 17.3182C68.3145 12.0698 66.8759 6.22096 66.754 0.353844H63.4014C63.5263 6.73909 65.0929 13.1061 67.9457 18.8177L69.7439 22.4142C70.3779 23.6973 70.7132 25.1298 70.7101 26.5593C70.7101 29.5157 70.2377 32.4386 69.302 35.2456C67.9549 39.2627 67.9396 43.6943 69.2593 47.7205L69.3599 48.0253L69.2106 48.3118C68.9424 48.8208 68.7138 49.3542 68.5218 49.8936C66.7479 55.1603 65.8457 60.6556 65.8488 66.221V69.0189C65.8701 76.1722 67.8177 83.2066 71.4812 89.3542L71.5635 89.4913L71.5849 89.6498L75.5897 121.61V121.661C75.544 126.02 74.145 130.171 71.5361 133.664L70.0731 135.617C68.6315 137.538 68.025 139.906 68.3663 142.283C68.7077 144.66 69.9512 146.763 71.8713 148.205C73.4166 149.363 75.3337 150.003 77.266 150.003H113.84C117.455 150.003 120.393 147.065 120.393 143.45C120.393 139.836 117.455 136.898 113.84 136.898H113.834Z" fill="black"/>
<path d="M81.6878 30.2806L82.782 35.7546L86.0676 35.0963L84.9765 29.6284C83.416 21.8351 83.416 13.935 84.9765 6.14166L86.0676 0.670771L82.782 0.000244141L81.6878 5.46199C80.0389 13.6942 80.0389 22.0454 81.6878 30.2776V30.2806Z" fill="black"/>
<path d="M49.4514 17.3182L47.6532 20.9146C46.7845 22.658 46.3243 24.6117 46.3212 26.5623C46.3212 29.8845 46.8516 33.167 47.9031 36.3185C48.47 38.0192 48.7595 39.793 48.7595 41.5882C48.7351 42.2313 48.6803 42.85 48.5919 43.4566L48.4121 44.6787L47.4002 43.9716C45.5867 42.7037 43.4928 41.9723 41.3014 41.8351V45.1938C44.6602 45.4803 47.5678 47.7205 48.6742 50.9573C50.3353 55.8887 51.1765 61.0244 51.1765 66.224V69.0219C51.1612 77.3456 48.2749 85.4956 43.0479 91.9723L43.0204 92.0027C42.5023 92.5788 41.7891 92.9171 41.018 92.9567C40.2438 92.9963 39.5002 92.7342 38.9272 92.2161C38.7047 92.0149 38.5157 91.7833 38.3633 91.5242L38.342 91.4846L32.5511 79.9881L29.5611 81.4968L35.3612 92.9902C36.882 95.9771 40.4511 97.2054 43.4898 95.7821L44.7425 95.1969L41.4691 121.308C41.4599 121.378 41.4569 121.448 41.4569 121.518C41.466 126.59 43.1454 131.622 46.181 135.691L47.644 137.641C48.5462 138.845 48.9272 140.329 48.7138 141.823C48.5005 143.313 47.7202 144.633 46.5163 145.535C45.5471 146.264 44.3462 146.663 43.1332 146.663H6.54983C4.78513 146.663 3.34959 145.227 3.34959 143.463C3.34959 141.698 4.78513 140.262 6.54983 140.262C8.43645 140.262 10.2987 139.766 11.9354 138.83L26.8881 130.296C27.4124 129.997 27.7354 129.436 27.7324 128.836C27.7324 114.115 25.6812 99.4791 21.6397 85.3249L19.4453 77.6413C16.0652 65.8125 18.6346 53.0146 26.3212 43.4078L26.8912 42.6946L24.2761 40.5977L22.8589 42.3624V38.1472C22.865 31.7589 21.5879 25.5413 19.0674 19.6742C16.7236 14.2216 15.5379 8.44589 15.544 2.50867V0.353844H12.1914V2.49953C12.1853 8.88783 13.4624 15.1054 15.9829 20.9726C18.3267 26.4252 19.5123 32.2008 19.5062 38.1381V47.7479L19.4179 47.9156C14.4102 57.3822 13.2734 68.263 16.2207 78.5587L18.4151 86.2423C22.2463 99.6285 24.2518 113.478 24.3828 127.404V127.852L10.2835 135.913C9.14965 136.559 7.86041 136.901 6.55593 136.901H6.55288C2.94118 136.901 0 139.839 0 143.454C0 147.068 2.94118 150.006 6.55288 150.006H43.1271C48.0859 150.006 52.1183 145.974 52.1183 141.015C52.1183 139.083 51.4782 137.166 50.32 135.621L48.8571 133.67C46.2481 130.174 44.8461 126.026 44.8034 121.664V121.613L44.8095 121.561L48.8174 89.4913L48.8997 89.3542C52.5632 83.2066 54.5108 76.1722 54.5322 69.0158V66.2179C54.5322 60.6525 53.633 55.1542 51.8561 49.8814C51.6702 49.3481 51.4386 48.8147 51.1704 48.3057L51.021 48.0192L51.1216 47.7144C52.4413 43.6882 52.4261 39.2597 51.0789 35.2456C50.1463 32.4386 49.6739 29.5157 49.68 26.5593C49.68 25.1298 50.0183 23.6973 50.6583 22.4172L52.4566 18.8208C55.3063 13.1091 56.8668 6.73909 56.9887 0.356892H53.6361C53.5142 6.22096 52.0756 12.0698 49.4575 17.3212L49.4514 17.3182Z" fill="black"/>
<path d="M39.9235 17.8789C39.9235 13.7246 39.509 9.54909 38.6952 5.47716L37.601 0.0032196L34.3154 0.673747L35.4066 6.14464C36.1777 9.99712 36.5678 13.9471 36.5708 17.8789C36.5708 21.8136 36.1807 25.7637 35.4066 29.6222L34.3154 35.0809L37.601 35.7393L38.6952 30.2745C39.509 26.2025 39.9235 22.0331 39.9235 17.8819V17.8789Z" fill="black"/>
</svg>
