<?xml version="1.0" encoding="UTF-8" standalone="no"?>
<!-- Created with Inkscape (http://www.inkscape.org/) -->

<svg
   version="1.1"
   id="svg1"
   width="1440"
   height="1800"
   viewBox="0 0 1440 1800"
   sodipodi:docname="upload_ns2gvrmyx7tjk5sofitsyffiid.pdf"
   xmlns:inkscape="http://www.inkscape.org/namespaces/inkscape"
   xmlns:sodipodi="http://sodipodi.sourceforge.net/DTD/sodipodi-0.dtd"
   xmlns="http://www.w3.org/2000/svg"
   xmlns:svg="http://www.w3.org/2000/svg">
  <defs
     id="defs1">
    <clipPath
       clipPathUnits="userSpaceOnUse"
       id="clipPath3">
      <path
         d="M 0,1350 H 1080 V 0 H 0 Z"
         transform="translate(-840.39505,-912.81272)"
         id="path3" />
    </clipPath>
  </defs>
  <sodipodi:namedview
     id="namedview1"
     pagecolor="#ffffff"
     bordercolor="#000000"
     borderopacity="0.25"
     inkscape:showpageshadow="2"
     inkscape:pageopacity="0.0"
     inkscape:pagecheckerboard="0"
     inkscape:deskcolor="#d1d1d1">
    <inkscape:page
       x="0"
       y="0"
       inkscape:label="1"
       id="page1"
       width="1440"
       height="1800"
       margin="496.56668 288.556 496.56799"
       bleed="0" />
  </sodipodi:namedview>
  <g
     id="g1"
     inkscape:groupmode="layer"
     inkscape:label="1">
    <g
       id="group-MC0">
      <path
         id="path2"
         d="m 0,0 h -110.141 c -0.979,1.417 -2.02,2.904 -3.136,4.679 -4.4,6.997 -8.83,11.907 -11.825,14.835 -2.376,2.437 -5.048,4.858 -8.082,7.227 -0.845,0.66 -1.739,1.311 -2.639,1.961 -1.381,0.998 -2.806,1.988 -4.322,2.962 -0.324,0.207 -0.652,0.415 -0.982,0.621 -0.066,0.042 -0.13,0.084 -0.197,0.126 -0.646,0.403 -1.297,0.805 -1.967,1.202 -1.049,0.619 -2.116,1.236 -3.225,1.84 -0.402,0.22 -0.826,0.435 -1.236,0.652 -0.952,0.504 -1.922,1.005 -2.92,1.498 -0.426,0.211 -0.854,0.421 -1.289,0.63 -1.395,0.67 -2.818,1.333 -4.302,1.977 l 20.786,-1.788 c -9.314,10.324 -45.748,46.948 -99.91,10.628 0,0 32.788,5.767 62.81,-14.006 0.124,-0.102 0.246,-0.201 0.368,-0.301 -1.048,0.627 -2.104,1.233 -3.173,1.802 4.059,-2.641 7.956,-5.786 11.595,-9.477 0.65,-0.659 1.309,-1.301 1.941,-1.998 0.705,-0.778 1.411,-1.557 2.093,-2.383 0.841,-1.019 1.642,-2.082 2.411,-3.176 0.038,-0.054 0.079,-0.107 0.117,-0.161 0.74,-1.061 1.444,-2.16 2.12,-3.286 0.057,-0.095 0.116,-0.186 0.173,-0.281 0.653,-1.101 1.272,-2.235 1.867,-3.391 0.068,-0.131 0.137,-0.259 0.203,-0.39 0.578,-1.142 1.125,-2.311 1.649,-3.499 0.069,-0.156 0.139,-0.31 0.207,-0.467 0.511,-1.182 0.995,-2.387 1.456,-3.609 0.065,-0.172 0.131,-0.345 0.195,-0.518 0.452,-1.221 0.879,-2.462 1.283,-3.719 0.02,-0.063 0.04,-0.127 0.061,-0.19 h -7.012 c -0.869,2.599 -1.86,5.142 -2.997,7.608 -4.402,9.546 -10.845,17.972 -20.271,24.183 -18.392,12.117 -44.125,15.911 -65.782,12.888 l 5.31,-10.699 c 0,0 -11.605,16.362 -38.891,19.785 0,0 -3.815,-12.787 8.838,-30.4 1.481,-2.063 2.544,-4.38 3.121,-6.804 l -92.157,46.729 82.248,-61.895 c -0.912,-0.245 -1.983,-0.516 -3.222,-0.814 l -2.151,-0.495 c 1.691,-5.882 6.677,-26.212 0.407,-43.033 -6.988,-18.746 -6.926,-21.884 -4.969,-26.071 0.81,-1.732 1.949,-3.567 3.293,-5.307 1.721,-2.23 3.563,-4.005 4.81,-4.636 2.085,-1.055 16.685,-1.339 20.71,0.264 2.201,0.876 3.148,5.396 3.984,9.384 0.133,0.635 0.266,1.27 0.404,1.892 0.331,1.496 0.748,3.221 1.332,4.682 2.3,5.774 19.617,22.612 27.855,26.103 4.013,1.7 11.152,8.178 13.731,16.681 2.145,7.071 0.244,13.247 -3.441,19.335 -1.271,2.098 2.621,2.31 3.803,2.292 4.616,-0.069 5.651,-7.955 6.446,-11.425 1.126,-4.915 1.191,-10.101 -0.381,-14.929 -3.027,-9.297 -11.04,-16.064 -18.956,-21.241 l -0.116,-0.069 c -3.095,-1.655 -6.294,-3.939 -9.509,-6.788 -2.558,-2.266 -5.101,-4.85 -7.558,-7.678 -1.208,-1.392 -2.353,-2.873 -3.076,-4.582 -0.67,-1.583 -1.052,-3.268 -1.414,-4.942 -0.61,-2.823 -0.722,-5.653 -0.791,-8.546 -0.037,-1.555 -0.073,-3.11 -0.11,-4.665 -0.041,-1.736 -0.082,-3.472 -0.124,-5.208 -0.04,-1.695 -0.08,-3.389 -0.12,-5.083 -0.034,-1.429 -0.068,-2.857 -0.102,-4.286 -0.022,-0.939 -0.044,-1.878 -0.066,-2.817 -0.006,-0.249 -0.012,-0.498 -0.018,-0.746 h 30.201 l -308.142,-295.233 v 123.003 c 0,13.577 11.006,24.583 24.583,24.583 h 51.316 v 101.084 h -75.899 v 26.629 c 0,12.58 10.478,19.889 23.058,19.889 l 148.293,-0.018 0.01,103.992 h -202.386 c -38.693,0 -70.059,-31.367 -70.059,-70.059 v -403.418 c 0,-61.088 73.248,-92.35 117.357,-50.089 l 438.242,419.885 h 91.567 v 77.897 C 23.188,-10.382 12.806,0 0,0"
         style="fill:#100f0d;fill-opacity:1;fill-rule:nonzero;stroke:none"
         transform="matrix(1.3333333,0,0,-1.3333333,1120.5267,582.9164)"
         clip-path="url(#clipPath3)" />
    </g>
  </g>
</svg>
