<svg width="53" height="56" viewBox="0 0 53 56" fill="none" xmlns="http://www.w3.org/2000/svg">
<path d="M52.3618 0.906596C52.6398 1.04196 52.8293 1.24857 52.9304 1.53355C53.0315 1.81141 53.022 2.10351 52.9051 2.41699C52.7187 2.86583 52.4692 3.28262 52.1597 3.6709C51.5532 4.49022 50.8709 5.24542 50.1128 5.9365C46.2876 9.54862 42.0675 12.4697 37.4526 14.6996C37.2409 14.8065 37.0293 14.9134 36.8208 15.0274C36.4986 15.1984 36.1828 15.3622 35.8732 15.5118C35.7785 15.5617 35.69 15.5546 35.6079 15.4976C35.5226 15.4406 35.4626 15.3622 35.431 15.2553C35.4215 15.1984 35.4341 15.1342 35.4689 15.0559C35.5005 14.9704 35.5384 14.9098 35.5826 14.8706C35.9617 14.6248 36.3597 14.3933 36.7829 14.1724C41.3884 11.743 45.6211 8.64025 49.481 4.86782C49.9517 4.37623 50.4066 3.87039 50.8456 3.35743C50.8962 3.28262 50.953 3.21137 51.0225 3.14369C51.2499 2.88721 51.3921 2.57373 51.4521 2.20326C51.5026 1.98596 51.4331 1.81853 51.2499 1.70454C51.0383 1.60124 50.8203 1.55493 50.5929 1.56205C50.5487 1.56205 50.5045 1.55849 50.4539 1.5478C49.5189 1.50149 48.5903 1.54068 47.6742 1.66179C46.7551 1.78647 45.8453 1.9539 44.9451 2.16051C42.8888 2.67347 40.8514 3.27193 38.8298 3.95588C36.8145 4.63271 34.8119 5.34872 32.8156 6.10748C26.8929 8.36952 21.1156 11.0091 15.4804 14.0299C13.4746 15.095 11.4909 16.21 9.52936 17.3785C7.5741 18.5469 5.65359 19.7937 3.76782 21.1117C3.25295 21.4929 2.74439 21.874 2.23899 22.2516C1.96102 22.4511 1.67674 22.6613 1.37982 22.8786C1.33875 22.8999 1.30401 22.932 1.27874 22.9783C1.09553 23.1208 0.89969 23.2455 0.697531 23.3488C0.590134 23.4165 0.476419 23.4557 0.356387 23.4628C0.239514 23.4628 0.14791 23.4165 0.0784186 23.3203C-0.00370895 23.1885 -0.022661 23.0638 0.0278788 22.9498C0.0784186 22.8358 0.154228 22.7432 0.255308 22.6648C0.264784 22.647 0.290054 22.6221 0.331117 22.5936C0.795452 22.2053 1.28506 21.8099 1.79677 21.4109C3.42036 20.1855 5.08817 19.0313 6.80021 17.9484C8.51856 16.8655 10.2653 15.836 12.0437 14.8564C19.1445 10.8773 26.4539 7.48964 33.978 4.69683C35.7974 4.02357 37.6168 3.39305 39.4363 2.80171C41.2557 2.20326 43.1036 1.68673 44.983 1.24857C45.52 1.14527 46.0633 1.03484 46.6129 0.920845C46.8656 0.874536 47.1215 0.821101 47.3836 0.764105C48.5366 0.61449 49.7022 0.55037 50.8835 0.578868C51.3889 0.589555 51.8817 0.699984 52.3618 0.906596ZM26.2327 29.1624C26.3401 29.1731 26.4475 29.2016 26.5486 29.2479C26.656 29.2871 26.7318 29.3405 26.7761 29.4046C26.8266 29.4723 26.8329 29.54 26.8013 29.6041C26.7508 29.7288 26.675 29.8036 26.5739 29.8321C26.4791 29.8606 26.3875 29.882 26.2959 29.8891C26.2707 29.8998 26.2485 29.9033 26.2327 29.9033C24.5807 30.1242 22.9256 30.4305 21.2672 30.8295C20.3891 31.0397 19.5046 31.2356 18.6139 31.4137C18.317 31.4636 18.1338 31.6666 18.0579 32.0264C18.0074 32.2829 17.9379 32.5536 17.8558 32.8386C17.8116 33.0025 17.7737 33.1628 17.7421 33.3231C17.581 33.9216 17.4325 34.5022 17.2998 35.0615C16.0932 39.9738 14.8108 44.8577 13.4462 49.7237C13.0577 51.0631 12.6281 52.3918 12.1574 53.7134C12.1574 53.7206 12.1574 53.7419 12.1574 53.7704C12.0121 54.1979 11.8163 54.6147 11.5636 55.0243C11.3614 55.3948 11.0519 55.5516 10.6412 55.4946C10.5212 55.4732 10.417 55.4233 10.3254 55.3378C10.2401 55.2594 10.1927 55.1561 10.1864 55.0243C10.1674 54.718 10.1864 54.4152 10.2369 54.1124C10.2685 53.8915 10.3064 53.6707 10.3506 53.4427C10.5338 52.2529 10.736 51.0702 10.9571 49.8947C11.9742 44.6796 13.2598 39.5499 14.8108 34.5058C14.9624 34.0213 15.1424 33.544 15.3541 33.0666C15.4109 32.9526 15.4962 32.8778 15.6068 32.8386C15.7142 32.803 15.8279 32.803 15.9479 32.8386C16.1501 32.8671 16.2385 33.0203 16.2132 33.2946C16.188 33.5618 16.1185 33.8752 16.0111 34.235C15.9005 34.5877 15.79 34.9047 15.6826 35.1897C15.5878 35.4284 15.5246 35.6029 15.493 35.7169C13.9168 41.1529 13.0482 44.3126 12.8903 45.2068C12.8208 45.5096 12.7923 45.7126 12.8018 45.8195C12.8176 45.9228 12.8587 45.962 12.9282 45.9335C12.9945 45.9121 13.0608 45.8551 13.1303 45.7625C13.1966 45.677 13.2567 45.5808 13.3072 45.4775C13.3641 45.3813 13.4083 45.3136 13.4336 45.278C13.4999 45.0108 13.5662 44.7366 13.6357 44.4516C13.8789 43.5111 14.1285 42.5636 14.3812 41.616C14.4475 41.3417 14.5202 41.071 14.596 40.8038C15.1172 38.7627 15.632 36.725 16.1374 34.691C16.1627 34.6162 16.2006 34.5022 16.2511 34.349C16.3427 34.0569 16.4407 33.7149 16.5417 33.3231C16.6428 32.9241 16.6934 32.5786 16.6934 32.2829C16.6997 31.9801 16.6176 31.8341 16.4407 31.8412C16.0932 31.8911 15.7394 31.9374 15.3793 31.9837C15.1424 32.0122 14.9055 32.0478 14.6718 32.0834C14.4854 32.1048 14.2833 32.1262 14.0653 32.1547C13.3735 32.2509 12.6881 32.3328 12.0058 32.3969C11.8289 32.4076 11.652 32.3791 11.4751 32.3114C11.4562 32.3043 11.4404 32.2758 11.4246 32.2259C11.4151 32.1796 11.4025 32.1333 11.3867 32.0834C11.3772 32.0656 11.3741 32.0478 11.3741 32.0264C11.3741 32.0086 11.3772 31.9908 11.3867 31.9694C11.4025 31.9516 11.4183 31.9374 11.4372 31.9267C11.5194 31.8341 11.6078 31.7771 11.7026 31.7557C11.7942 31.7272 11.8921 31.7058 11.9932 31.6845C12.0184 31.6845 12.0437 31.6845 12.069 31.6845C12.4543 31.6097 12.8429 31.5384 13.2314 31.4707C14.2232 31.2641 15.2214 31.0824 16.2259 30.9293C16.5702 30.883 16.8324 30.769 17.0092 30.5873C17.1861 30.3985 17.3125 30.1171 17.3883 29.7466C17.7326 28.2291 18.0769 26.708 18.4244 25.1869C18.8034 23.5732 19.1761 21.9631 19.5489 20.3565C19.8268 19.1133 20.0795 17.8736 20.307 16.6375C20.4396 15.9927 20.5755 15.3266 20.7113 14.6426C20.7113 14.6248 20.7144 14.607 20.7239 14.5856C20.7745 14.3007 20.8503 14.0299 20.9513 13.7735C21.0177 13.6595 21.1061 13.5953 21.2167 13.574C21.3241 13.5455 21.4378 13.5383 21.5578 13.5455C21.6494 13.5847 21.7252 13.6416 21.7852 13.7165C21.8516 13.7841 21.8895 13.8696 21.899 13.9729C21.8895 14.3826 21.8611 14.7851 21.8105 15.1841C21.4883 17.1612 21.1061 19.1133 20.6607 21.0404C20.626 21.0903 20.6039 21.1473 20.5976 21.2114C20.1996 23.0175 19.7795 24.8129 19.3341 26.5976C19.1382 27.4347 18.9455 28.2611 18.7529 29.0769C18.7529 29.0983 18.7529 29.1054 18.7529 29.1054C18.6928 29.3441 18.6391 29.5899 18.5886 29.8463C18.5381 30.085 18.5507 30.2453 18.6265 30.3308C18.7086 30.4163 18.8697 30.4448 19.1066 30.4163C19.4162 30.37 19.7258 30.3094 20.029 30.2311C20.1617 30.2132 20.3006 30.1954 20.4459 30.1741C20.4775 30.1741 20.4996 30.1598 20.5091 30.1313C22.278 29.8178 24.0469 29.515 25.8158 29.2194C25.9485 29.1838 26.0874 29.1624 26.2327 29.1624Z" fill="black"/>
<path d="M31.7908 32.5426C31.4686 33.0947 31.0737 33.6113 30.6031 34.0957C30.1388 34.5802 29.5923 34.9435 28.9605 35.1786C28.3288 35.4173 27.8202 35.4351 27.4317 35.2356C27.0463 35.029 26.9105 34.4733 27.0274 33.5685C27.2232 32.6281 27.5265 31.7161 27.9371 30.8327C28.0224 30.6332 28.1582 30.4872 28.3541 30.391C28.512 30.334 28.6573 30.3482 28.7837 30.4337C28.91 30.5192 28.9637 30.6403 28.9479 30.79C28.8784 31.0749 28.7963 31.3742 28.6952 31.6876C28.5941 31.994 28.5246 32.1935 28.493 32.2861C28.3162 32.8204 28.2056 33.3761 28.1645 33.9532C28.1961 34.2667 28.572 34.2346 29.2891 33.8535C30.0124 33.4652 30.6915 32.8525 31.3233 32.0154C31.955 31.1818 32.2709 30.9182 32.2709 31.2317C32.2772 31.5451 32.1193 31.9833 31.7908 32.5426ZM29.5417 28.7951C29.507 28.8236 29.4344 28.8663 29.327 28.9233C29.2164 28.9803 29.0995 29.0302 28.9732 29.0658C28.8531 29.105 28.7584 29.1014 28.6826 29.0516C28.6068 28.9946 28.5941 28.8735 28.6447 28.6811C28.711 28.3213 28.7963 28.0078 28.8974 27.7407C28.9984 27.4771 29.128 27.1778 29.2891 26.843C29.4059 26.7005 29.5354 26.615 29.6807 26.5865C29.8229 26.558 29.9492 26.5865 30.0598 26.672C30.1672 26.7504 30.2114 26.8786 30.1861 27.0567C30.1008 27.7122 29.8861 28.2928 29.5417 28.7951Z" fill="black"/>
<path d="M38.2348 30.9191C37.4262 32.2977 36.5986 33.3486 35.7584 34.0681C34.9245 34.7913 33.9769 35.119 32.9155 35.0513C31.8542 34.9872 31.3456 34.2605 31.3867 32.8712C31.4467 32.1801 31.5509 31.4855 31.7026 30.7909C32.0816 29.2164 32.4733 27.6418 32.8776 26.0744C33.004 25.4974 33.1366 24.9167 33.2819 24.3361C33.323 24.2328 33.3577 24.1152 33.383 23.9798C33.4399 23.7732 33.4967 23.5595 33.5473 23.3386C33.6231 22.9682 33.4778 22.7972 33.1177 22.8257C32.9155 22.8542 32.7134 22.8827 32.5112 22.9112C32.4164 22.9219 32.3154 22.9361 32.208 22.9539C32.1069 22.9824 32.0026 23.018 31.8921 23.0537C31.7089 23.0928 31.5257 23.1249 31.3488 23.1534C31.1719 23.1748 31.0013 23.1392 30.8308 23.0537C30.7802 23.0537 30.7423 23.0323 30.717 22.9824C30.6855 22.9361 30.6665 22.8898 30.6665 22.8399C30.676 22.8043 30.6981 22.7616 30.7297 22.7117C30.7549 22.6654 30.7897 22.6262 30.8308 22.5977C30.9824 22.5229 31.1435 22.4552 31.3109 22.3982C31.7342 22.3234 32.1637 22.2486 32.5997 22.1702C32.7671 22.1417 32.9155 22.1203 33.0419 22.099C33.3198 22.0634 33.5252 22.0242 33.661 21.985C33.8031 21.9387 33.9074 21.8389 33.9769 21.6858C34.0432 21.5361 34.1158 21.301 34.1917 20.9876C34.2422 20.8273 34.3054 20.642 34.3812 20.4318C34.5581 19.8548 34.7255 19.2563 34.8866 18.6365C34.9624 18.3515 35.0414 18.0879 35.1266 17.8385C35.193 17.5749 35.3193 17.3612 35.5057 17.1973C35.6889 17.0762 35.8626 17.0655 36.0237 17.1688C36.0648 17.1902 36.0995 17.2365 36.1248 17.3113C36.1564 17.379 36.1785 17.4395 36.188 17.4965C36.2132 17.8029 36.1753 18.1093 36.0743 18.4227C36.049 18.5011 36.0237 18.5795 35.9984 18.665C35.9384 18.9713 35.8658 19.2741 35.7837 19.5769C35.6384 20.1397 35.5057 20.7168 35.3793 21.3153C35.3446 21.4221 35.3541 21.5112 35.4046 21.586C35.4615 21.6644 35.5373 21.6964 35.632 21.6858C36.1374 21.6394 36.6239 21.5824 37.0977 21.5148C37.3504 21.4791 37.5968 21.4435 37.8432 21.415C38.617 21.3224 38.9361 21.3972 38.8034 21.643C38.7276 21.7962 38.6265 21.8924 38.5002 21.928C38.3738 21.9565 38.2475 21.9707 38.1211 21.9707C38.0453 21.9814 37.9632 21.9921 37.8811 21.9992C37.0977 22.1631 36.3206 22.2985 35.5562 22.4125C35.2024 22.4623 34.9782 22.6796 34.8866 23.0679C34.8013 23.4384 34.716 23.8053 34.6339 24.1651C34.5075 24.6495 34.3843 25.1198 34.2675 25.5757C34.1569 26.0032 34.0464 26.4449 33.939 26.9009C33.6515 28.0052 33.383 29.1237 33.1303 30.2637C32.9597 30.9868 32.8523 31.7242 32.8018 32.4723C32.6502 33.833 33.1556 34.2783 34.318 33.8117C35.4709 33.3379 36.6112 32.2122 37.7421 30.4346C38.2538 29.9502 38.418 30.114 38.2348 30.9191Z" fill="black"/>
<path d="M45.2706 29.6553C45.4475 29.7336 45.4886 29.9901 45.397 30.4247C45.2106 30.7489 45.0179 31.0624 44.8158 31.3652C44.6136 31.6608 44.3862 31.9316 44.1335 32.1773C44.1082 32.1773 44.0956 32.1845 44.0956 32.1916C43.9345 32.3733 43.7576 32.5193 43.5649 32.6333C41.954 33.5453 41.0537 33.2603 40.8611 31.7784C40.2451 32.5407 39.8281 33.0145 39.6102 33.2033C39.0953 33.6521 38.511 33.8944 37.8539 33.93C37.3738 33.9692 37.0327 33.8516 36.8305 33.5738C36.6283 33.2995 36.6031 32.8969 36.7547 32.3626C36.9758 31.5183 37.3359 30.7453 37.8413 30.04C38.4288 29.2634 39.1174 28.6008 39.9008 28.0594C40.3051 27.7566 40.7505 27.5999 41.2401 27.5892C41.7202 27.5535 42.0361 27.8243 42.1877 28.4014C42.2635 28.5652 42.2414 28.722 42.1245 28.8716C41.9982 29.0533 41.8245 29.1138 41.6065 29.0568C41.597 29.0568 41.5812 29.0568 41.556 29.0568C41.5307 29.0497 41.5086 29.039 41.4928 29.0283C41.2559 28.7362 41.0316 28.6293 40.8231 28.7148C40.621 28.7932 40.4094 28.925 40.1914 29.1138C39.1869 29.9688 38.4888 31.073 38.094 32.4196C38.0782 32.4873 38.0687 32.5549 38.0687 32.6191C38.0624 32.6867 38.0814 32.7331 38.1319 32.7616C38.274 32.7901 38.4162 32.7616 38.5615 32.6761C38.7036 32.5906 38.8458 32.473 38.9911 32.3198C39.1332 32.1595 39.2469 32.0313 39.3322 31.9351C39.348 31.9173 39.3575 31.9066 39.3575 31.9066C39.8187 31.358 40.2704 30.7916 40.7094 30.211C40.8926 29.926 41.1517 29.7408 41.4802 29.6553C41.9413 29.5912 42.1561 29.7978 42.1245 30.2822C42.0993 30.4639 42.0772 30.6491 42.0614 30.8379C41.9603 31.6074 41.9982 32.0491 42.1751 32.1631C42.352 32.27 42.6078 32.2343 42.9458 32.0634C43.2806 31.8852 43.606 31.5896 43.9187 31.1799C44.2283 30.7631 44.4873 30.382 44.6894 30.04C44.8979 29.698 45.0938 29.5698 45.2706 29.6553Z" fill="black"/>
<path d="M49.7464 29.4387C49.9549 29.1466 50.1381 28.9756 50.2898 28.9258C50.4414 28.8688 50.5424 28.883 50.593 28.9685C50.6498 29.0469 50.6372 29.1644 50.5551 29.3248C50.0149 30.2581 49.3927 31.0774 48.6851 31.7898C47.9839 32.5023 47.2353 32.9654 46.4361 33.172C45.6433 33.3822 45.1031 32.944 44.8062 31.8611C44.563 30.7995 44.9136 28.509 45.8549 24.9931C46.7962 21.47 47.529 18.5917 48.0534 16.3582C48.1039 16.1694 48.1829 15.9877 48.2934 15.8167C48.445 15.5994 48.6409 15.5281 48.8873 15.603C48.9694 15.6315 49.0547 15.6884 49.14 15.7739C49.2316 15.8523 49.2726 15.9948 49.2663 16.2014C46.872 25.5773 45.7696 30.6499 45.956 31.4194C46.1392 32.1817 46.6035 32.3099 47.3458 31.8041C48.0944 31.3018 48.6598 30.8173 49.0389 30.3507C49.4243 29.8876 49.6612 29.5812 49.7464 29.4387Z" fill="black"/>
</svg>
