<svg width="171" height="150" viewBox="0 0 171 150" fill="none" xmlns="http://www.w3.org/2000/svg">
<path d="M131.023 150H39.3488C38.6555 150 38.0119 149.641 37.6476 149.051C37.2833 148.462 37.2503 147.725 37.5599 147.105C37.5912 147.043 40.895 140.255 44.1785 123.84C47.0723 109.37 39.5574 86.6963 37.8232 81.7617C29.5138 79.3868 23.7675 71.812 23.7675 63.116C23.7675 62.0117 24.6631 61.1161 25.7674 61.1161C26.8717 61.1161 27.7673 62.0117 27.7673 63.116C27.7673 70.1931 32.5626 76.335 39.4285 78.0512L39.8331 78.1526C40.4714 78.3119 40.9903 78.7749 41.2213 79.3908C41.6453 80.5217 51.5679 107.287 48.1005 124.625C45.885 135.703 43.6685 142.512 42.3489 146H128.023C126.704 142.512 124.488 135.703 122.271 124.625C118.804 107.287 128.727 80.5217 129.151 79.3908C129.382 78.7749 129.901 78.3119 130.539 78.1526L130.945 78.0512C137.81 76.335 142.605 70.1931 142.605 63.116C142.605 62.0117 143.501 61.1161 144.605 61.1161C145.709 61.1161 146.605 62.0117 146.605 63.116C146.605 71.812 140.858 79.3868 132.549 81.7617C130.816 86.6986 123.302 109.383 126.194 123.84C129.477 140.255 132.781 147.042 132.814 147.109C133.121 147.729 133.086 148.465 132.722 149.053C132.357 149.641 131.715 150 131.023 150Z" fill="black"/>
<path d="M6.99651 97.176C2.78814 97.1764 1.62822 96.2248 1.11159 95.8011C0.108326 94.9789 0 94.0396 0 93.6739V59.7206C0 59.5056 0.0346638 59.292 0.102659 59.0883L0.625623 57.5198C6.21757 40.7473 21.8385 30.6693 42.4111 30.5617H42.4217C43.5213 30.5617 44.4156 31.4503 44.4216 32.5512C44.4272 33.6554 43.5366 34.5557 42.4321 34.5614C23.6544 34.6597 9.44435 43.7154 4.42003 58.785L3.99972 60.0456V92.8623C4.99732 93.191 8.42342 93.7459 18.5844 91.7137C34.242 88.5823 37.4211 79.5519 37.4514 79.4609C37.8004 78.413 38.9333 77.8457 39.9809 78.196C41.0288 78.5453 41.5951 79.6779 41.2455 80.7258C41.0918 81.1868 37.2771 92.054 19.3683 95.6358C13.5951 96.7897 9.677 97.176 6.99651 97.176Z" fill="black"/>
<path d="M39.0251 41.3492C38.7248 41.3492 38.4194 41.2812 38.1325 41.1376C37.1445 40.6436 36.7439 39.4423 37.2379 38.4544L40.9553 31.0193C45.3056 22.3185 52.1028 18.9634 57.0392 17.6809C60.6672 16.7379 63.82 16.7519 65.5149 16.8659L66.3112 15.6713C68.871 11.8319 68.3604 6.67662 65.0973 3.41385C64.3163 2.6329 64.3163 1.36666 65.0973 0.585709C65.8782 -0.195236 67.1444 -0.195236 67.9254 0.585709C72.5321 5.19206 73.2527 12.4699 69.6389 17.8902L68.175 20.0857C67.7401 20.7383 66.9645 21.077 66.1895 20.95C65.5992 20.858 51.5265 18.8188 44.5324 32.8075L40.8149 40.2426C40.465 40.9439 39.7587 41.3492 39.0251 41.3492Z" fill="black"/>
<path d="M163.376 97.1767C160.695 97.1767 156.778 96.7907 151.003 95.6358C133.095 92.0541 129.28 81.1865 129.126 80.7258C128.777 79.6779 129.343 78.5453 130.391 78.196C131.435 77.848 132.562 78.4087 132.916 79.4479C133.058 79.8479 136.328 88.6216 151.788 91.7137C161.948 93.7459 165.374 93.1906 166.372 92.8627V60.0456L165.952 58.7847C160.928 43.7154 146.718 34.66 127.94 34.5614C126.836 34.5554 125.945 33.6554 125.95 32.5512C125.956 31.4503 126.85 30.5617 127.95 30.5617H127.961C148.534 30.6696 164.154 40.7476 169.746 57.5198L170.269 59.0887C170.337 59.2927 170.372 59.506 170.372 59.721V93.6746C170.372 94.0402 170.263 94.9795 169.26 95.8018C168.744 96.2254 167.583 97.1767 163.376 97.1767Z" fill="black"/>
<path d="M131.347 41.3489C130.613 41.3489 129.907 40.9436 129.557 40.243L125.84 32.8078C118.845 18.8198 104.773 20.858 104.177 20.9513C103.406 21.0723 102.63 20.7353 102.197 20.086L100.733 17.8905C97.1194 12.4699 97.84 5.19206 102.447 0.585709C103.228 -0.19557 104.495 -0.194903 105.275 0.585709C106.056 1.36666 106.056 2.6329 105.275 3.41385C102.012 6.67695 101.501 11.8319 104.061 15.6717L104.858 16.8659C106.551 16.7529 109.704 16.7383 113.333 17.6809C118.27 18.9634 125.067 22.3185 129.417 31.0189L133.134 38.4541C133.628 39.442 133.228 40.6433 132.24 41.1372C131.953 41.2809 131.648 41.3489 131.347 41.3489Z" fill="black"/>
<path d="M85.1862 136.419C84.082 136.419 83.1864 135.523 83.1864 134.419V76.698C83.1864 75.5937 84.082 74.6981 85.1862 74.6981C86.2905 74.6981 87.1861 75.5937 87.1861 76.698V134.419C87.1861 135.523 86.2908 136.419 85.1862 136.419Z" fill="black"/>
<path d="M59.721 136.419C58.6167 136.419 57.7211 135.523 57.7211 134.419C57.7211 133.314 58.6167 132.419 59.721 132.419C63.1474 132.419 66.2275 130.515 67.7597 127.451L68.1184 126.734C68.6123 125.746 69.8133 125.345 70.8015 125.839C71.7895 126.333 72.1901 127.535 71.6961 128.522L71.3375 129.239C69.1233 133.668 64.6719 136.419 59.721 136.419Z" fill="black"/>
<path d="M110.651 136.419C105.7 136.419 101.249 133.668 99.0351 129.24L98.6765 128.522C98.1828 127.534 98.5835 126.333 99.5714 125.839C100.56 125.346 101.761 125.746 102.255 126.734L102.613 127.451C104.145 130.515 107.225 132.419 110.651 132.419C111.756 132.419 112.651 133.315 112.651 134.419C112.651 135.523 111.756 136.419 110.651 136.419Z" fill="black"/>
<path d="M59.721 119.442C58.6167 119.442 57.7211 118.546 57.7211 117.442C57.7211 116.338 58.6167 115.442 59.721 115.442C63.1474 115.442 66.2275 113.538 67.7597 110.474L68.1184 109.757C68.6123 108.769 69.8133 108.369 70.8015 108.863C71.7895 109.356 72.1901 110.558 71.6961 111.546L71.3375 112.263C69.1233 116.691 64.6719 119.442 59.721 119.442Z" fill="black"/>
<path d="M110.651 119.442C105.7 119.442 101.249 116.691 99.0351 112.263L98.6765 111.545C98.1828 110.557 98.5835 109.356 99.5714 108.862C100.56 108.369 101.761 108.769 102.255 109.757L102.613 110.474C104.145 113.538 107.225 115.442 110.651 115.442C111.756 115.442 112.651 116.338 112.651 117.442C112.651 118.546 111.756 119.442 110.651 119.442Z" fill="black"/>
</svg>
