<svg width="226" height="300" viewBox="0 0 226 300" fill="none" xmlns="http://www.w3.org/2000/svg">
<path d="M203.958 281.01C209.626 281.378 221.676 279.024 224.577 285.495C226.351 289.445 226.039 298.326 220.739 299.476L6.99102 300L1.42333 297.768C-0.339582 293.64 -0.172217 281.01 5.89756 281.01H24.3077V245.305C24.3077 244.915 20.0344 244.479 18.4611 240.552C15.7052 233.679 17.4346 224.652 24.3301 221.093L24.3747 206.934C17.7359 204.925 15.1027 203.999 12.8153 197.104L0.932394 129.968C1.3006 125.773 5.26158 120.417 9.49034 119.457C14.4444 118.342 33.7025 118.643 39.4376 119.167C44.7821 119.658 48.4418 122.035 50.3498 127.223C53.4293 135.647 62.1993 183.313 62.3443 192.306C62.5451 204.446 52.6371 207.536 42.1712 206.242V220.758C42.584 221.283 53.3289 219.508 55.0137 219.542C57.6692 219.598 60.1128 220.758 62.7794 220.803C72.3416 220.959 98.5622 218.962 105.725 221.372C112.632 223.693 114.004 234.895 110.702 240.742C106.618 247.983 97.1228 246.343 90.1604 246.421V281.01H148.18V254.231H126.423C122.362 254.231 122.362 234.147 126.423 234.147H187.232V228.568H126.423C126.222 228.568 123.633 225.98 123.633 225.779V209.6L186.697 207.425L187.232 202.906H127.539C127.226 202.906 124.493 201.176 124.191 200.674C123.288 197.706 122.462 181.706 126.423 181.706H187.232V176.127H126.423C122.362 176.127 122.362 156.044 126.423 156.044H148.18V147.117C133.954 150.108 133.865 129.287 148.18 132.612V17.6882H122.518C133.396 29.9171 128.242 45.8279 113.592 51.7192V209.6H101.318V50.0455C90.7295 47.8475 86.4895 37.3815 88.1967 27.4401C88.8773 23.4791 91.477 21.2699 92.392 17.6882H55.0137C53.1392 17.6882 45.0387 22.1067 43.2647 23.7915C41.4906 25.4763 36.6035 33.097 36.6035 34.9826V108.065H19.867V32.7511C19.8558 17.0969 41.5464 1.98937 56.0625 0.895917C93.3069 -1.88235 134.244 2.83735 171.857 1.23065C183.829 1.29759 203.947 20.3438 203.947 31.6242V280.998L203.958 281.01ZM187.221 156.044V34.9826C187.221 33.9785 183.751 27.3508 182.758 26.0565C178.139 20.0871 164.995 14.8877 158.501 19.3061L158.222 132.59C168.711 130.916 171.89 135.67 168.298 145.455C165.642 148.133 162.953 146.481 160.565 146.437C156.526 146.359 160.777 151.402 158.501 154.403L159.896 156.032H187.232L187.221 156.044ZM73.4127 246.421H42.1712V281.01H73.4127V246.421ZM187.221 254.231H159.885C157.352 255.782 159.327 256.63 159.327 257.021V279.336C159.327 279.671 157.91 280.195 158.211 281.01H187.221V254.231Z" fill="black"/>
</svg>
