<svg width="179" height="150" viewBox="0 0 179 150" fill="none" xmlns="http://www.w3.org/2000/svg">
<g clip-path="url(#clip0_1364_930)">
<path d="M89.0183 145.794C90.1797 145.794 91.1211 144.853 91.1211 143.692C91.1211 142.53 90.1797 141.589 89.0183 141.589C87.857 141.589 86.9155 142.53 86.9155 143.692C86.9155 144.853 87.857 145.794 89.0183 145.794Z" fill="black"/>
<path d="M24.266 43.9907C26.0604 43.2336 27.967 42.4486 29.9296 41.6495C47.481 34.486 71.495 24.6589 71.495 2.1028C71.495 0.939252 70.5557 0 69.3922 0C68.2286 0 67.2894 0.939252 67.2894 2.1028C67.2894 21.8271 45.6866 30.6589 28.3314 37.7523C26.3268 38.5654 24.4202 39.3505 22.6118 40.1215C6.08378 47.1589 5.18659 68.271 5.15855 69.1682C4.8922 71.7196 4.28939 74.1869 3.3922 76.5421C3.35014 76.6542 3.30808 76.7804 3.28005 76.8925C-2.43958 104.706 0.994999 122.355 1.13519 123.084C1.38752 124.206 2.48098 124.935 3.61649 124.724C4.73799 124.5 5.48098 123.393 5.25668 122.257C5.22864 122.089 1.87818 104.734 7.34547 77.9579C8.39687 75.1122 9.06977 72.2664 9.33612 69.3505C9.33612 69.1963 10.1212 49.9907 24.224 43.9907H24.266Z" fill="black"/>
<path d="M174.406 124.724C175.542 124.935 176.635 124.22 176.887 123.07C177.042 122.341 180.476 104.734 174.743 76.8785C174.715 76.7664 174.687 76.6402 174.644 76.528C173.747 74.2009 173.158 71.7617 172.892 69.2944C172.864 68.3411 171.939 47.1449 155.439 40.1215C153.63 39.3505 151.696 38.5654 149.719 37.7523C132.364 30.6589 110.761 21.8271 110.761 2.1028C110.761 0.939252 109.822 0 108.658 0C107.495 0 106.556 0.939252 106.556 2.1028C106.556 24.6589 130.584 34.472 148.121 41.6355C150.098 42.4346 151.99 43.2196 153.799 43.9766C167.733 49.9065 168.672 68.6495 168.701 69.4486C168.981 72.2804 169.64 75.1122 170.649 77.8318C176.13 104.579 172.808 122.061 172.78 122.229C172.556 123.364 173.285 124.486 174.42 124.71L174.406 124.724Z" fill="black"/>
<path d="M48.8833 97.7098C53.7478 99.8266 58.9347 100.92 64.2618 100.962C70.6964 101.06 76.9768 98.9154 81.9534 94.85C82.374 94.4995 82.6403 93.9808 82.6964 93.4341C82.7525 92.8733 82.5843 92.3266 82.2198 91.892C81.4908 91.0089 80.159 90.8827 79.2759 91.6116C67.2618 101.551 50.8319 93.9808 50.6637 93.8967C50.3833 93.7565 50.0749 93.7004 49.7805 93.7004C48.9955 93.7004 48.2245 94.149 47.874 94.906C47.3833 95.9574 47.8319 97.2051 48.8833 97.7098Z" fill="black"/>
<path d="M78.4346 117.617C78.743 116.495 78.0841 115.346 76.9767 115.023C76.7944 114.967 76.5982 114.953 76.4159 114.953C75.4907 114.953 74.6496 115.57 74.3832 116.495C72.0281 124.976 65.201 126.14 64.9066 126.196C64.3458 126.28 63.8411 126.561 63.5047 127.009C63.1682 127.458 63.0281 128.005 63.0982 128.565C63.2524 129.687 64.3178 130.514 65.4533 130.36C65.8458 130.304 75.2804 128.916 78.4206 117.631L78.4346 117.617Z" fill="black"/>
<path d="M113.775 100.963C119.102 100.921 124.289 99.8135 129.168 97.6967C130.205 97.192 130.654 95.9444 130.149 94.893C129.658 93.8556 128.411 93.407 127.373 93.8836C127.219 93.9537 110.761 101.51 98.7752 91.5846C98.3826 91.2621 97.92 91.1079 97.4434 91.1079C96.8406 91.1079 96.2238 91.3743 95.8172 91.8789C95.0882 92.7621 95.2144 94.0939 96.0976 94.8229C101.074 98.8883 107.369 101.103 113.775 100.935V100.963Z" fill="black"/>
<path d="M113.145 126.182C112.85 126.14 106.023 125.005 103.668 116.482C103.514 115.935 103.163 115.486 102.673 115.22C102.35 115.038 102 114.939 101.649 114.939C101.467 114.939 101.271 114.967 101.089 115.024C99.9671 115.332 99.3223 116.496 99.6307 117.617C102.771 128.902 112.191 130.304 112.598 130.36C113.762 130.5 114.799 129.687 114.953 128.538C115.093 127.416 114.294 126.351 113.173 126.182H113.145Z" fill="black"/>
<path d="M49.4859 150C50.6915 150 51.6027 149.144 51.6728 147.981C52.8363 121.486 48.4345 110.803 47.9298 109.682C44.1167 100.345 33.7288 70.4015 33.6307 70.1071C33.4485 69.5744 33.07 69.1538 32.5653 68.9015C32.0606 68.6492 31.4859 68.6211 30.9531 68.8034C30.4204 68.9856 29.9999 69.3641 29.7475 69.8688C29.4952 70.3735 29.4672 70.9482 29.6494 71.4809C30.5746 74.1585 33.7569 83.2847 37.0513 92.4809L37.0933 92.6071V92.7473C36.9531 98.1725 35.2008 113.355 28.7802 118.766C27.8971 119.509 27.7849 120.841 28.5279 121.724C29.2849 122.579 30.6027 122.691 31.4999 121.962C36.3644 117.869 38.7756 110.046 39.9391 104.229L40.4298 101.803L41.2849 104.116C42.4625 107.271 43.4017 109.724 44.0887 111.406C44.1307 111.49 48.6027 121.724 47.4531 147.799C47.3971 148.962 48.3083 149.944 49.4578 150H49.4859Z" fill="black"/>
<path d="M149.986 120.182C149.944 119.622 149.678 119.117 149.243 118.752C142.851 113.369 141.084 98.2572 140.93 92.8179V92.5796L140.958 92.4675C144.757 81.8413 148.318 71.5656 148.36 71.4675C148.739 70.374 148.164 69.1684 147.07 68.7899C146.846 68.7058 146.608 68.6777 146.384 68.6777C145.514 68.6777 144.701 69.2245 144.393 70.0936C144.281 70.402 133.921 100.276 130.094 109.654C129.575 110.804 125.187 121.5 126.351 147.995C126.407 149.117 127.318 150 128.454 150C129.701 149.944 130.612 148.963 130.556 147.799C129.421 121.935 133.739 111.827 133.921 111.407C134.65 109.626 135.561 107.285 136.739 104.117L137.594 101.804L138.084 104.215C139.248 110.047 141.659 117.855 146.538 121.963C147.421 122.692 148.753 122.58 149.51 121.71C149.86 121.29 150.042 120.743 149.986 120.182Z" fill="black"/>
<path d="M86.9155 75.0004C86.9155 76.164 87.8548 77.1032 89.0183 77.1032C90.1819 77.1032 91.1211 76.164 91.1211 75.0004V58.178C91.1211 57.0144 90.1819 56.0752 89.0183 56.0752C87.8548 56.0752 86.9155 57.0144 86.9155 58.178V75.0004Z" fill="black"/>
<path d="M58.9207 36.1539C63.1123 49.78 77.7898 49.2193 80.6917 48.967C81.9254 48.8688 82.7945 47.8455 82.6964 46.6959C82.5983 45.5464 81.5889 44.6772 80.4394 44.7754C66.0141 45.9389 63.1403 35.6772 63.0282 35.2427C62.7898 34.2894 61.9347 33.6445 60.9954 33.6445C60.8272 33.6445 60.659 33.6586 60.4908 33.7006C59.3693 33.9529 58.6824 35.0464 58.9207 36.1539Z" fill="black"/>
<path d="M95.3408 46.5702C95.3408 47.2711 95.5231 48.1824 97.1072 48.701C98.1866 49.0515 99.3782 49.0515 99.7567 49.0515C112.57 49.0515 117.995 40.6683 119.088 36.2384C119.215 35.6917 119.131 35.131 118.85 34.6543C118.556 34.1777 118.093 33.8412 117.546 33.701C117 33.5609 116.439 33.659 115.962 33.9394C115.486 34.2338 115.149 34.6964 115.009 35.2431C114.897 35.6777 112.233 45.9253 97.5978 44.7618C97.5277 44.7618 97.4436 44.7618 97.3735 44.7618C96.8969 44.7618 96.4623 44.916 96.0978 45.2104C95.6773 45.5468 95.4109 46.0375 95.3548 46.5702H95.3408Z" fill="black"/>
</g>
<defs>
<clipPath id="clip0_1364_930">
<rect width="178.037" height="150" fill="white"/>
</clipPath>
</defs>
</svg>
