<svg width="119" height="150" viewBox="0 0 119 150" fill="none" xmlns="http://www.w3.org/2000/svg">
<g clip-path="url(#clip0_1413_5049)">
<path d="M5.24714 83.1657L5.12305 83.0976L4.77441 82.9438L5.24714 83.1657Z" fill="black"/>
<path d="M4.61236 131.941C6.49145 136.763 8.11053 141.967 9.70303 148.322C9.95121 149.311 10.8346 150 11.851 150H54.3107C55.2739 150 56.1218 149.382 56.4202 148.465L59.5461 138.79L62.5007 148.432C62.7843 149.358 63.6559 150 64.622 150H107.345C108.686 150 109.528 148.822 109.667 147.657L109.685 147.565C111.112 141.861 112.719 136.734 114.595 131.893C120.738 116.05 120.448 97.8609 113.821 83.2426C108.656 71.8521 105.421 62.0858 103.923 53.3846C103.716 52.1805 102.564 51.3669 101.362 51.574C100.78 51.6746 100.269 51.997 99.9288 52.4793C99.589 52.9615 99.456 53.5503 99.5565 54.1361C101.161 63.4586 104.086 73.0237 107.797 81.071L108.281 82.1213H86.6481L87.1356 81.071C87.6054 80.0562 88.0161 78.9852 88.3558 77.8817C89.5495 73.9852 89.907 69.1686 89.3367 64.6657C89.1831 63.4527 88.0693 62.5917 86.8579 62.7426C85.6465 62.8965 84.7868 64.0089 84.9374 65.2219C85.4308 69.1243 85.1324 73.2633 84.1161 76.5799C83.5311 78.4911 82.7245 80.1982 81.652 81.7929L81.4333 82.1213H37.7712L37.5525 81.7959C36.483 80.2041 35.6764 78.497 35.0884 76.5828C34.0721 73.2663 33.7737 69.1243 34.2671 65.2219C34.4207 64.0089 33.558 62.8965 32.3466 62.7426C31.1353 62.5917 30.0244 63.4527 29.8707 64.6657C29.3005 69.1686 29.6609 73.9882 30.8516 77.8846C31.1884 78.9882 31.5991 80.0592 32.0689 81.071L32.5564 82.1213H11.0237L11.5142 81.0681C17.373 68.4882 21.016 52.3314 21.016 38.8965C21.016 31.9734 20.0764 25.9438 18.221 20.9734L10.9321 1.44379C10.5037 0.298819 9.22439 -0.28698 8.08099 0.142015C7.52553 0.349115 7.08531 0.760358 6.84008 1.29882C6.59485 1.83728 6.57417 2.44083 6.78099 2.99704L14.0669 22.5266C15.7362 27 16.5812 32.5059 16.5812 38.8965C16.5812 53.3432 12.1051 71.1686 5.44258 83.2544C-1.51831 98.1746 -1.81377 115.465 4.6094 131.938L4.61236 131.941ZM8.69553 87.0385L8.87576 86.5592H110.388L110.568 87.0385C115.786 100.882 115.744 116.648 110.456 130.287C108.698 134.822 107.117 139.775 105.755 145.006L105.61 145.559H66.25L62.4179 133.05L63.1802 132.867C66.6902 132.021 69.8043 129.953 71.9463 127.038C72.2979 126.562 72.4427 125.976 72.354 125.391C72.2654 124.805 71.9552 124.287 71.4765 123.935C71.0009 123.583 70.4159 123.438 69.8309 123.527C69.2459 123.615 68.7288 123.926 68.3802 124.405C66.8202 126.527 64.5511 128.012 61.9925 128.589C60.4236 128.944 58.7661 128.944 57.1973 128.589C54.6386 128.012 52.3695 126.527 50.8095 124.405C50.458 123.929 49.9439 123.615 49.3589 123.527C48.7739 123.438 48.1889 123.583 47.7132 123.935C47.2375 124.287 46.9243 124.802 46.8357 125.391C46.7471 125.976 46.8918 126.562 47.2434 127.038C49.3766 129.935 52.4729 132.003 55.9652 132.855L56.7364 133.044L52.6916 145.562H13.5764L13.4317 145.009C12.0371 139.651 10.5008 134.849 8.7369 130.325C3.45418 116.775 3.43941 100.997 8.69258 87.0385H8.69553Z" fill="black"/>
<path d="M108.254 1.44379L100.971 20.9734C100.233 22.9497 99.6328 25.1154 99.1837 27.4112C98.9503 28.6124 99.7333 29.7811 100.933 30.0148C101.075 30.0414 101.219 30.0562 101.361 30.0562C102.416 30.0562 103.329 29.3018 103.533 28.2633C103.935 26.2071 104.469 24.2751 105.122 22.5266L112.405 2.99704C112.612 2.44083 112.591 1.84024 112.346 1.29882C112.101 0.760355 111.661 0.349112 111.105 0.142012C110.851 0.0473373 110.591 0 110.328 0C110.015 0 109.702 0.0680473 109.409 0.201183C108.872 0.446746 108.461 0.887574 108.254 1.44379Z" fill="black"/>
<path d="M61.8146 61.3284C61.8146 60.1035 60.8219 59.1095 59.5987 59.1095C58.3755 59.1095 57.3828 60.1035 57.3828 61.3284V64.9467C57.3828 66.1716 58.3755 67.1657 59.5987 67.1657C60.8219 67.1657 61.8146 66.1716 61.8146 64.9467V61.3284Z" fill="black"/>
<path d="M60.152 47.5118C62.2201 49.8284 65.1747 51.1568 68.2651 51.1568H75.0133C79.3949 51.1568 83.3303 48.5444 85.0351 44.503C85.2655 43.9586 85.2715 43.355 85.0469 42.8047C84.8224 42.2544 84.4028 41.8254 83.8562 41.5947C83.3126 41.3639 82.7099 41.358 82.1603 41.5828C81.6108 41.8047 81.1824 42.2278 80.9519 42.7752C79.9415 45.1716 77.6074 46.7189 75.0103 46.7189H68.2622C64.7079 46.7189 61.8154 43.8225 61.8154 40.2633V27.8698L62.9174 28.497C64.5454 29.4201 66.3919 29.9083 68.2622 29.9083H75.0103C79.3919 29.9083 83.3274 27.2959 85.0321 23.2544C85.2626 22.7101 85.2685 22.1065 85.044 21.5562C84.8194 21.0059 84.3999 20.5769 83.8533 20.3462C83.3096 20.1154 82.7069 20.1095 82.1574 20.3343C81.6078 20.5562 81.1794 20.9793 80.949 21.5266C79.9385 23.9231 77.6044 25.4704 75.0074 25.4704H68.2592C64.7049 25.4704 61.8124 22.574 61.8124 19.0148V12.6953C61.8124 11.4704 60.8197 10.4763 59.5965 10.4763C58.3733 10.4763 57.3806 11.4704 57.3806 12.6953V19.0148C57.3806 22.574 54.4881 25.4704 50.9338 25.4704H44.1856C41.5886 25.4704 39.2575 23.9231 38.244 21.5266C37.7684 20.3994 36.4654 19.8698 35.3397 20.3491C34.7931 20.5799 34.3706 21.0089 34.1491 21.5592C33.9275 22.1095 33.9304 22.7101 34.1609 23.2574C35.8686 27.2988 39.8011 29.9112 44.1827 29.9112H50.9308C52.8011 29.9112 54.6477 29.4231 56.2756 28.5L57.3776 27.8728V41.0059H57.3333C56.967 44.2189 54.234 46.7219 50.9279 46.7219H44.1797C41.5827 46.7219 39.2515 45.1746 38.2381 42.7781C37.7625 41.6509 36.4595 41.1213 35.3338 41.5976C34.7902 41.8284 34.3647 42.2574 34.1431 42.8077C33.9216 43.358 33.9245 43.9615 34.155 44.5059C35.8627 48.5473 39.7952 51.1598 44.1768 51.1598H50.9249C54.0124 51.1598 56.9699 49.8314 59.0381 47.5148L59.5876 46.8965L60.1372 47.5148L60.152 47.5118Z" fill="black"/>
<path d="M101.161 42.9053C102.189 42.5296 102.564 41.5947 102.576 40.8461C102.588 40.1035 102.236 39.1657 101.226 38.7633C100.257 38.3787 99.1369 38.7219 98.5637 39.5828C98.0349 40.3964 98.0851 41.4852 98.6908 42.2278C99.2728 42.9438 100.289 43.2189 101.158 42.9024L101.161 42.9053Z" fill="black"/>
</g>
<defs>
<clipPath id="clip0_1413_5049">
<rect width="119" height="150" fill="white"/>
</clipPath>
</defs>
</svg>
