<svg width="125" height="150" viewBox="0 0 125 150" fill="none" xmlns="http://www.w3.org/2000/svg">
<path d="M4.87869 132.116C6.87621 136.985 8.5924 142.238 10.2804 148.649C10.4899 149.444 11.237 150 12.0998 150H57.0238C57.8397 150 58.5555 149.503 58.8087 148.765L62.5756 137.685L66.1361 148.738C66.3737 149.473 67.1427 150.009 67.9429 150H113.136C114.283 150 115.005 149.012 115.127 148.036L115.155 147.887C116.671 142.131 118.375 136.956 120.369 132.072C126.825 116.241 126.521 98.0776 119.56 83.4794C114.08 71.9854 110.644 62.1252 109.053 53.3336C108.878 52.3633 107.906 51.7115 106.887 51.8782C106.393 51.9586 105.962 52.2175 105.674 52.6074C105.386 52.9973 105.274 53.4705 105.358 53.9407C107.049 63.283 110.132 72.8633 114.042 80.9229L114.861 82.6133H90.5034L91.3318 80.9199C91.8195 79.9199 92.2477 78.8574 92.5978 77.7681C93.842 73.908 94.214 69.1282 93.62 64.6609C93.4887 63.6848 92.5447 62.9913 91.5225 63.1133C90.4971 63.2354 89.7688 64.1312 89.9001 65.1104C90.4284 69.0955 90.1064 73.3276 89.0154 76.7234C88.3808 78.6877 87.5087 80.4437 86.3489 82.0865L85.9769 82.6133H39.2774L38.9054 82.0865C37.7456 80.4467 36.8735 78.6937 36.2389 76.7234C35.1448 73.3276 34.8228 69.0955 35.3511 65.1104C35.4824 64.1342 34.7509 63.2383 33.7256 63.1133C32.7002 62.9913 31.7593 63.6848 31.628 64.6609C31.0341 69.1312 31.4061 73.908 32.6502 77.7711C33.0003 78.8604 33.4286 79.9199 33.9162 80.9199L34.7415 82.6133H10.4899L11.3214 80.9199C17.4953 68.3217 21.3309 52.1371 21.3309 38.6848C21.3309 31.774 20.3462 25.7592 18.405 20.8098L10.69 1.16095C10.3273 0.238333 9.24573 -0.231906 8.27667 0.113333C7.80777 0.279999 7.43577 0.610356 7.22633 1.04488C7.01688 1.4794 7.00125 1.96452 7.17631 2.41095L14.8851 22.0568C16.67 26.6044 17.5734 32.1996 17.5734 38.6818C17.5734 53.277 12.8188 71.2859 5.74147 83.5062C1.85896 91.4258 -0.0729205 99.8961 0.00210385 108.679C0.0708762 116.509 1.70891 124.396 4.87556 132.116H4.87869ZM8.32668 86.9526L8.63303 86.1818H116.687L116.993 86.9526C122.554 100.979 122.511 116.956 116.874 130.78C115.021 135.328 113.355 140.292 111.917 145.539L111.673 146.429H69.3184L65.017 133.075L66.3111 132.78C69.9186 131.953 73.1165 129.932 75.3203 127.087C75.6173 126.703 75.7392 126.232 75.6642 125.759C75.5892 125.289 75.3266 124.872 74.9233 124.59C74.5201 124.307 74.023 124.191 73.5291 124.262C73.0352 124.334 72.5976 124.584 72.3006 124.967C70.5844 127.188 68.0867 128.741 65.2671 129.348C63.5384 129.72 61.7128 129.72 59.9872 129.348C57.1707 128.744 54.673 127.188 52.9537 124.97C52.6567 124.587 52.2191 124.337 51.7252 124.265C51.2281 124.194 50.7342 124.31 50.331 124.592C49.9277 124.875 49.6651 125.292 49.5901 125.762C49.5151 126.232 49.637 126.706 49.934 127.09C52.1253 129.92 55.3076 131.938 58.8962 132.771L60.2029 133.075L55.6639 146.432H13.5659L13.3221 145.542C11.8497 140.17 10.2336 135.354 8.37358 130.822C2.74362 117.09 2.72486 101.101 8.32668 86.9556V86.9526Z" fill="black"/>
<path d="M118.053 2.41102C118.228 1.96459 118.209 1.47947 118.003 1.04495C117.797 0.610423 117.422 0.280066 116.953 0.113399C116.74 0.0360185 116.518 0.000304206 116.296 0.000304206C116.03 0.000304206 115.768 0.0538756 115.518 0.161018C115.061 0.360423 114.714 0.71459 114.539 1.16102L106.834 20.8069C106.062 22.7741 105.433 24.9289 104.964 27.2116C104.767 28.1789 105.43 29.1194 106.446 29.3069C106.565 29.3307 106.687 29.3396 106.809 29.3396C107.703 29.3396 108.475 28.7324 108.647 27.8961C109.078 25.8039 109.65 23.8366 110.351 22.0539L118.056 2.40804L118.053 2.41102Z" fill="black"/>
<path d="M62.6224 59.4616C61.5877 59.4616 60.7468 60.2622 60.7468 61.2473V64.8872C60.7468 65.8723 61.5877 66.6729 62.6224 66.6729C63.6571 66.6729 64.498 65.8723 64.498 64.8872V61.2473C64.498 60.2622 63.6571 59.4616 62.6224 59.4616Z" fill="black"/>
<path d="M63.554 47.0509C65.6515 49.286 68.6525 50.5687 71.7879 50.5687H78.9277C83.3761 50.5687 87.368 48.0479 89.0998 44.1491C89.2936 43.7086 89.2999 43.2235 89.1092 42.783C88.9216 42.3425 88.5621 41.9943 88.1026 41.8098C87.6399 41.6253 87.1304 41.6193 86.6677 41.8009C86.2051 41.9794 85.8394 42.3217 85.6455 42.7592C84.5014 45.3336 81.8631 47.0003 78.9277 47.0003H71.7879C67.7679 47.0003 64.498 43.8872 64.498 40.0598V26.8247L66.3643 27.8306C68.0148 28.7205 69.8904 29.1937 71.7879 29.1937H78.9277C83.3761 29.1937 87.368 26.6729 89.0998 22.7741C89.2936 22.3336 89.2999 21.8485 89.1092 21.408C88.9216 20.9646 88.5621 20.6193 88.1026 20.4348C87.6431 20.2503 87.1335 20.2443 86.6677 20.4259C86.202 20.6044 85.8394 20.9467 85.6455 21.3842C84.5014 23.9586 81.8662 25.6253 78.9277 25.6253H71.7879C67.7679 25.6253 64.498 22.5122 64.498 18.6848V12.3277C64.498 11.3425 63.6571 10.5419 62.6224 10.5419C61.5877 10.5419 60.7468 11.3425 60.7468 12.3277V18.6848C60.7468 22.5122 57.477 25.6253 53.457 25.6253H46.3171C43.3787 25.6253 40.7434 23.9616 39.5993 21.3842C39.1961 20.4765 38.0926 20.0509 37.1423 20.4348C36.6796 20.6193 36.3233 20.9675 36.1357 21.408C35.9481 21.8515 35.9513 22.3366 36.1451 22.7741C37.8769 26.6729 41.8719 29.1937 46.3171 29.1937H53.457C55.3544 29.1937 57.2301 28.7235 58.8806 27.8306L60.7468 26.8247V41.2503H60.6374C60.0435 44.5122 57.0487 47.0003 53.4538 47.0003H46.314C43.3787 47.0003 40.7403 45.3366 39.5962 42.7592C39.1929 41.8515 38.0926 41.4259 37.1391 41.8098C36.6765 41.9943 36.3201 42.3425 36.1326 42.783C35.945 43.2235 35.9481 43.7116 36.1419 44.1491C37.8738 48.0479 41.8688 50.5687 46.314 50.5687H53.4538C56.5892 50.5687 59.5902 49.286 61.6878 47.0509L62.6193 46.0568L63.5509 47.0509H63.554Z" fill="black"/>
<path d="M106.434 42.2949C107.296 41.9943 107.615 41.2414 107.625 40.6372C107.634 40.039 107.34 39.283 106.493 38.9646C105.686 38.658 104.72 38.9408 104.242 39.6193C103.792 40.2771 103.836 41.1551 104.348 41.7533C104.833 42.3187 105.711 42.5479 106.434 42.2949Z" fill="black"/>
</svg>
