<svg width="21" height="21" viewBox="0 0 21 21" fill="none" xmlns="http://www.w3.org/2000/svg">
<g clip-path="url(#clip0_1413_5506)">
<path d="M10.3252 18.4681C10.4978 18.4681 10.6377 18.3282 10.6377 18.1556C10.6377 17.9831 10.4978 17.8431 10.3252 17.8431C10.1526 17.8431 10.0127 17.9831 10.0127 18.1556C10.0127 18.3282 10.1526 18.4681 10.3252 18.4681Z" fill="black"/>
<path d="M8.45059 2.37508C8.45059 2.29221 8.41767 2.21273 8.35907 2.15414C8.30048 2.09554 8.221 2.06262 8.13813 2.06262C8.05526 2.06262 7.97579 2.09554 7.91719 2.15414C7.8586 2.21273 7.82568 2.29221 7.82568 2.37508C7.82583 4.52161 5.4452 5.49435 3.53233 6.27591C3.31019 6.3667 3.09569 6.45436 2.89323 6.5405C1.00851 7.34258 0.90393 9.75354 0.900803 9.84677C0.871636 10.1193 0.807383 10.3869 0.709639 10.6429C0.703166 10.6595 0.698088 10.6766 0.694459 10.6941C0.0526186 13.8116 0.438904 15.7918 0.455615 15.8746C0.473348 15.955 0.521606 16.0254 0.590222 16.071C0.658839 16.1165 0.742455 16.1336 0.823451 16.1188C0.904647 16.1024 0.976025 16.0544 1.02192 15.9855C1.06781 15.9165 1.08447 15.8322 1.06824 15.7509C1.06443 15.7319 0.694687 13.8125 1.30152 10.8447C1.41851 10.5336 1.49365 10.2082 1.52495 9.8773C1.52564 9.85624 1.6152 7.76365 3.13795 7.11561C3.33774 7.03062 3.54942 6.9441 3.76866 6.85453C5.74461 6.04711 8.45074 4.94138 8.45059 2.37508Z" fill="black"/>
<path d="M19.9562 10.6941C19.9525 10.6766 19.9474 10.6594 19.9409 10.6427C19.8435 10.3897 19.7795 10.1252 19.7504 9.85577C19.7469 9.75354 19.6423 7.34258 17.7574 6.5405C17.5549 6.45436 17.3403 6.36663 17.1181 6.27584C15.2054 5.4942 12.8248 4.52145 12.8251 2.37508C12.8251 2.29221 12.7922 2.21273 12.7336 2.15414C12.675 2.09554 12.5955 2.06262 12.5127 2.06262C12.4298 2.06262 12.3503 2.09554 12.2917 2.15414C12.2331 2.21273 12.2002 2.29221 12.2002 2.37508C12.1999 4.9413 14.9059 6.04703 16.8818 6.85445C17.1011 6.94402 17.3128 7.03055 17.5127 7.11561C19.0289 7.76075 19.125 9.8567 19.1262 9.8863C19.1579 10.2142 19.2328 10.5365 19.3491 10.8447C19.9559 13.8125 19.5862 15.7319 19.5825 15.7506C19.5744 15.7908 19.5742 15.8322 19.5821 15.8725C19.59 15.9128 19.6057 15.9511 19.6284 15.9853C19.651 16.0195 19.6802 16.0489 19.7143 16.0719C19.7483 16.0948 19.7866 16.1108 19.8268 16.1189C19.9079 16.1343 19.9918 16.1174 20.0606 16.0717C20.1294 16.0261 20.1776 15.9553 20.1949 15.8746C20.2117 15.7918 20.598 13.8116 19.9562 10.6941Z" fill="black"/>
<path d="M9.18886 12.2905C7.89716 13.3589 6.10231 12.5443 6.08324 12.5353C6.00818 12.5002 5.92223 12.4963 5.8443 12.5245C5.76636 12.5527 5.70283 12.6107 5.66768 12.6858C5.63253 12.7609 5.62864 12.8468 5.65685 12.9247C5.68507 13.0027 5.74309 13.0662 5.81815 13.1014C6.36964 13.3406 6.9636 13.4666 7.56473 13.4718C8.3005 13.4858 9.01731 13.2378 9.58706 12.7721C9.65056 12.7192 9.69051 12.6432 9.69815 12.5609C9.70579 12.4786 9.68051 12.3966 9.62783 12.3329C9.57516 12.2692 9.49939 12.229 9.41711 12.2211C9.33484 12.2131 9.25276 12.2381 9.18886 12.2905Z" fill="black"/>
<path d="M9.00281 14.8864C8.92295 14.8644 8.83761 14.8749 8.76549 14.9156C8.69337 14.9564 8.64038 15.0241 8.61812 15.1039C8.36913 16.0006 7.6613 16.1225 7.6256 16.1281C7.54734 16.1392 7.47619 16.1795 7.42648 16.241C7.37677 16.3024 7.35219 16.3804 7.35769 16.4593C7.36319 16.5381 7.39837 16.612 7.45613 16.6659C7.5139 16.7199 7.58996 16.7499 7.669 16.7501C7.68293 16.7501 7.69685 16.7492 7.71065 16.7473C7.75726 16.7411 8.85672 16.58 9.22029 15.2712C9.24245 15.1913 9.23198 15.1059 9.1912 15.0338C9.15042 14.9616 9.08265 14.9086 9.00281 14.8864Z" fill="black"/>
<path d="M14.8323 13.1013C14.9068 13.0659 14.9643 13.0024 14.9921 12.9247C15.02 12.847 15.016 12.7614 14.981 12.6867C14.946 12.6119 14.8828 12.5541 14.8053 12.5257C14.7278 12.4973 14.6422 12.5008 14.5673 12.5353C14.5494 12.5437 12.7539 13.3591 11.4615 12.2904C11.3975 12.2381 11.3155 12.2133 11.2333 12.2213C11.1511 12.2294 11.0754 12.2696 11.0228 12.3332C10.9702 12.3969 10.9449 12.4788 10.9525 12.561C10.9601 12.6433 10.9999 12.7192 11.0633 12.7721C11.633 13.2379 12.3499 13.4859 13.0857 13.4717C13.6868 13.4666 14.2808 13.3406 14.8323 13.1013Z" fill="black"/>
<path d="M13.0256 16.1282C12.9954 16.1236 12.2824 16.0043 12.0324 15.1039C12.0214 15.0644 12.0027 15.0274 11.9775 14.9951C11.9522 14.9628 11.9208 14.9357 11.8851 14.9156C11.8494 14.8954 11.81 14.8824 11.7693 14.8774C11.7286 14.8725 11.6873 14.8755 11.6477 14.8865C11.6082 14.8975 11.5712 14.9162 11.5389 14.9414C11.5066 14.9667 11.4796 14.9981 11.4594 15.0338C11.4392 15.0695 11.4262 15.1089 11.4213 15.1496C11.4163 15.1903 11.4194 15.2316 11.4303 15.2712C11.7938 16.58 12.8934 16.7411 12.94 16.7473C13.0217 16.7578 13.1042 16.7356 13.1696 16.6855C13.235 16.6355 13.278 16.5617 13.2893 16.4801C13.3006 16.3985 13.2792 16.3158 13.2298 16.2499C13.1804 16.184 13.107 16.1402 13.0256 16.1282Z" fill="black"/>
<path d="M4.22721 9.92893C4.21382 9.89008 4.1929 9.85426 4.16566 9.82351C4.13841 9.79276 4.10537 9.76768 4.06842 9.74972C4.03147 9.73175 3.99134 9.72125 3.95032 9.71881C3.90931 9.71637 3.86822 9.72205 3.8294 9.73551C3.79058 9.74898 3.7548 9.76996 3.72411 9.79727C3.69341 9.82458 3.6684 9.85767 3.65051 9.89466C3.63261 9.93164 3.62219 9.97179 3.61984 10.0128C3.61748 10.0538 3.62324 10.0949 3.63678 10.1337C3.66442 10.2135 4.05375 11.3359 4.46136 12.474C4.46128 12.4758 4.46075 12.4774 4.46071 12.4792C4.44598 13.0706 4.25573 14.7332 3.56232 15.3173C3.49895 15.3707 3.45938 15.4471 3.45231 15.5296C3.44524 15.6122 3.47126 15.6942 3.52464 15.7576C3.57907 15.8194 3.65522 15.8578 3.73723 15.8648C3.81925 15.8718 3.90081 15.8469 3.96495 15.7953C4.50975 15.3364 4.78983 14.4926 4.93393 13.7725C5.05556 14.0993 5.16441 14.3836 5.24787 14.5877C5.25283 14.5986 5.74409 15.7145 5.61731 18.6114C5.61551 18.6524 5.62181 18.6934 5.63584 18.7319C5.64987 18.7705 5.67135 18.8059 5.69907 18.8362C5.72679 18.8664 5.7602 18.8909 5.79738 18.9083C5.83457 18.9256 5.87481 18.9355 5.91581 18.9373C5.99825 18.9396 6.07835 18.9097 6.13916 18.854C6.19996 18.7982 6.23671 18.7211 6.24161 18.6387C6.37167 15.6662 5.87507 14.4598 5.81839 14.3328C5.39258 13.2888 4.2388 9.96249 4.22721 9.92893Z" fill="black"/>
<path d="M16.1896 12.4792C16.1895 12.4777 16.189 12.4762 16.189 12.4747C16.5959 11.338 16.9859 10.2135 17.0136 10.1336C17.0271 10.0948 17.0329 10.0538 17.0305 10.0127C17.0281 9.97173 17.0177 9.93158 16.9998 9.89459C16.9819 9.85761 16.9569 9.82452 16.9262 9.79722C16.8955 9.76992 16.8597 9.74894 16.8209 9.73549C16.7821 9.72203 16.741 9.71637 16.7 9.71882C16.6589 9.72126 16.6188 9.73178 16.5819 9.74975C16.5449 9.76773 16.5119 9.79282 16.4847 9.82358C16.4574 9.85434 16.4365 9.89017 16.4231 9.92901C16.4115 9.96251 15.258 13.2888 14.8319 14.3328C14.7754 14.4596 14.2788 15.6659 14.4088 18.6387C14.4123 18.7191 14.4467 18.795 14.5048 18.8507C14.5629 18.9064 14.6402 18.9375 14.7207 18.9376C14.7254 18.9376 14.73 18.9375 14.7345 18.9373C14.8173 18.9336 14.8953 18.8973 14.9513 18.8362C15.0073 18.775 15.0367 18.6942 15.0331 18.6114C14.9065 15.7145 15.3976 14.5986 15.4016 14.5896C15.404 14.5846 15.4061 14.5796 15.4083 14.5745C15.49 14.3746 15.5969 14.0953 15.7166 13.7734C15.8608 14.4933 16.1409 15.3365 16.6856 15.7953C16.7493 15.8478 16.8311 15.8732 16.9133 15.8661C16.9956 15.8591 17.0718 15.8201 17.1257 15.7576C17.1791 15.6942 17.2051 15.6122 17.1981 15.5296C17.191 15.4471 17.1514 15.3707 17.088 15.3173C16.3946 14.7332 16.2044 13.0706 16.1896 12.4792Z" fill="black"/>
<path d="M10.3252 10.8125C10.3662 10.8125 10.4068 10.8045 10.4447 10.7888C10.4826 10.7731 10.5171 10.75 10.5461 10.721C10.5751 10.692 10.5981 10.6575 10.6138 10.6196C10.6295 10.5817 10.6376 10.5411 10.6375 10.5V8.62504C10.6375 8.58402 10.6295 8.54339 10.6138 8.50549C10.5981 8.46758 10.575 8.43314 10.546 8.40413C10.517 8.37512 10.4826 8.3521 10.4447 8.3364C10.4068 8.3207 10.3661 8.31262 10.3251 8.31262C10.2841 8.31262 10.2435 8.3207 10.2056 8.3364C10.1677 8.3521 10.1332 8.37512 10.1042 8.40413C10.0752 8.43314 10.0522 8.46758 10.0365 8.50549C10.0208 8.54339 10.0127 8.58402 10.0127 8.62504V10.5C10.0127 10.5829 10.0456 10.6624 10.1042 10.721C10.1628 10.7796 10.2423 10.8125 10.3252 10.8125Z" fill="black"/>
<path d="M9.36353 7.05263C7.8204 7.17539 7.5171 6.0985 7.5039 6.04853C7.48389 5.96846 7.43294 5.89959 7.36223 5.85703C7.29151 5.81447 7.20681 5.80168 7.12669 5.82148C7.08641 5.83048 7.04837 5.84753 7.01485 5.87161C6.98133 5.89568 6.95302 5.92628 6.93162 5.96156C6.91022 5.99685 6.89617 6.0361 6.89031 6.07695C6.88445 6.1178 6.88691 6.15941 6.89753 6.19929C7.41525 7.88279 9.31455 7.68343 9.4128 7.67565C9.49531 7.66897 9.57179 7.62983 9.62547 7.56682C9.67915 7.5038 9.70563 7.42207 9.6991 7.33955C9.69257 7.25703 9.65357 7.18047 9.59066 7.12668C9.52774 7.07289 9.44606 7.04626 9.36353 7.05263Z" fill="black"/>
<path d="M11.5226 7.68724C12.9899 7.68724 13.6219 6.7344 13.753 6.19935C13.7628 6.1595 13.7646 6.11812 13.7583 6.07757C13.7521 6.03702 13.7379 5.99809 13.7167 5.96301C13.6954 5.92793 13.6674 5.89739 13.6343 5.87312C13.6012 5.84886 13.5637 5.83135 13.5239 5.82159C13.484 5.81183 13.4426 5.81002 13.4021 5.81625C13.3615 5.82248 13.3226 5.83664 13.2875 5.85792C13.2524 5.8792 13.2219 5.90718 13.1976 5.94026C13.1734 5.97334 13.1559 6.01088 13.1461 6.05073C13.1348 6.09666 12.8523 7.17767 11.2869 7.0527C11.2458 7.04834 11.2042 7.0524 11.1647 7.06464C11.1252 7.07687 11.0886 7.09702 11.0572 7.12387C11.0257 7.15071 11 7.18367 10.9817 7.22076C10.9634 7.25784 10.9529 7.29827 10.9507 7.33957C10.9504 7.68724 11.431 7.68724 11.5226 7.68724Z" fill="black"/>
</g>
<defs>
<clipPath id="clip0_1413_5506">
<rect width="20" height="20" fill="white" transform="translate(0.325195 0.5)"/>
</clipPath>
</defs>
</svg>
