<svg width="141" height="150" viewBox="0 0 141 150" fill="none" xmlns="http://www.w3.org/2000/svg">
<path d="M27.7744 0.500977H113.228C114.074 0.501119 114.86 0.939225 115.361 1.7041V1.70312C115.634 2.12666 127.858 21.4466 135.131 49.2998C142.416 77.1995 144.719 113.604 125.142 148.164C124.648 149.002 123.808 149.501 122.905 149.501H85.0264C83.9463 149.501 82.9639 148.781 82.5898 147.684L82.5234 147.459V147.458L82.0615 145.626C80.3333 138.715 74.3751 114.422 70.9863 95.085H70.001C66.6122 114.422 60.6542 138.716 58.9316 145.628L58.4727 147.461L58.4717 147.462C58.1699 148.68 57.1321 149.501 55.9756 149.501H18.0938C17.254 149.501 16.4569 149.062 15.9639 148.32L15.8691 148.168C-3.71945 113.607 -1.41801 77.2005 5.86719 49.2998C13.1528 21.3977 25.4099 2.05865 25.6416 1.70117L25.6406 1.7002C26.1454 0.937018 26.9406 0.500977 27.7744 0.500977ZM14.5303 38.5176C5.27553 65.788 -1.19692 105.849 19.4209 143.652L19.5635 143.913H53.9775L54.0713 143.533C55.4464 137.985 58.9071 123.792 61.9316 109.374C63.4439 102.166 64.8478 94.8962 65.8281 88.6211C66.8056 82.3642 67.3684 77.0525 67.1816 73.7754H67.1826C67.1826 73.7747 67.1825 73.7706 67.1836 73.7617C67.1851 73.7497 67.1877 73.7335 67.1934 73.707C67.1966 73.6916 67.2086 73.6379 67.2148 73.6074C67.223 73.5676 67.2327 73.5176 67.2383 73.4619L67.2568 73.2764L67.1494 73.124C61.9444 65.72 51.1804 58.0449 40.6602 51.7168C30.1173 45.3751 19.7342 40.3376 15.2148 38.2256L14.709 37.9893L14.5303 38.5176ZM125.783 38.2324C121.264 40.3451 110.88 45.3834 100.337 51.7256C89.8163 58.0543 79.0522 65.73 73.8486 73.1309L73.7441 73.2803L73.7598 73.4619C73.77 73.5782 73.8002 73.6884 73.8105 73.7305C73.8159 73.7523 73.8198 73.7657 73.8213 73.7734C73.6312 77.0507 74.1935 82.3633 75.1699 88.6211C76.1491 94.8963 77.5534 102.166 79.0654 109.374C82.0896 123.791 85.5502 137.985 86.9238 143.533L87.0176 143.913H121.459L121.601 143.652C142.2 105.843 135.729 65.7886 126.469 38.5244L126.289 37.9951L125.783 38.2324ZM22.1504 67.707C23.5436 67.92 24.5628 69.3185 24.3545 70.874C24.3248 71.0927 23.0198 81.1842 23.5938 94.0322C24.1669 106.862 26.6175 122.532 34.1641 133.845V133.846C34.9545 135.04 34.7488 136.653 33.7617 137.577L33.5537 137.752C33.0968 138.098 32.5829 138.262 32.0586 138.262C31.3074 138.262 30.5572 137.92 30.0566 137.246L29.96 137.106L29.9561 137.101L29.5791 136.528C21.7524 124.434 19.0717 108.433 18.3984 95.1152C17.7156 81.6073 19.1018 70.9384 19.2158 70.0752C19.4227 68.5318 20.7725 67.5285 22.1504 67.707ZM118.841 67.7148C120.12 67.543 121.399 68.4091 121.733 69.7998L121.787 70.085C121.903 70.9597 123.289 81.6217 122.606 95.1182C121.933 108.436 119.25 124.437 111.416 136.528L111.039 137.101L111.038 137.103C110.528 137.873 109.731 138.262 108.934 138.262C108.478 138.262 108.024 138.142 107.615 137.878L107.443 137.756L107.438 137.752L107.229 137.576C106.302 136.712 106.066 135.238 106.682 134.089L106.826 133.849L106.827 133.847C114.39 122.521 116.842 106.854 117.413 94.0293C117.913 82.7917 116.972 73.6669 116.71 71.4141L116.645 70.8828V70.8809L116.62 70.5918C116.565 69.1601 117.534 67.9234 118.841 67.7148ZM29.0283 6.33301C26.9848 9.76922 21.7513 19.1726 16.7588 32.335L16.5938 32.7695L17.0156 32.9658C21.3867 34.9953 31.5388 39.8744 42.167 46.207C52.8101 52.5485 63.8707 60.3135 70.1094 68.1016L70.5 68.5879L70.8896 68.1016C77.1344 60.3097 88.1963 52.5449 98.8398 46.2041C109.468 39.8723 119.62 34.9943 123.997 32.9648L124.42 32.7686L124.255 32.333C119.248 19.1654 114.008 9.76845 111.971 6.33398L111.825 6.08887H29.1729L29.0283 6.33301Z" fill="black" stroke="white"/>
</svg>
