<svg width="39" height="101" viewBox="0 0 39 101" fill="none" xmlns="http://www.w3.org/2000/svg">
<path d="M6.18456 28.0146L0.787927 42.5413C-0.200105 45.3259 2.64687 45.8733 4.42172 44.1245C7.18461 41.402 11.0136 33.8561 11.0136 33.8561L6.18456 28.0146Z" fill="#EEB29F"/>
<path d="M25.1977 2.23123C25.1977 3.46521 24.1826 4.46541 22.9333 4.46541C21.684 4.46541 20.6689 3.46521 20.6689 2.23123C20.6689 0.997246 21.684 0 22.9333 0C24.1826 0 25.1977 1.00021 25.1977 2.23123Z" fill="#756565"/>
<path d="M17.9692 4.46539C17.9692 5.69641 16.9541 6.69661 15.7048 6.69661C14.4555 6.69661 13.4404 5.69641 13.4404 4.46539C13.4404 3.23437 14.4555 2.2312 15.7048 2.2312C16.9541 2.2312 17.9692 3.23141 17.9692 4.46539Z" fill="#756565"/>
<path d="M15.5483 11.674C15.5483 12.905 14.5333 13.9052 13.281 13.9052C12.0287 13.9052 11.0166 12.905 11.0166 11.674C11.0166 10.443 12.0317 9.44275 13.281 9.44275C14.5303 9.44275 15.5483 10.443 15.5483 11.674Z" fill="#756565"/>
<path d="M16.248 7.4512C16.248 8.68518 15.2329 9.68243 13.9836 9.68243C12.7343 9.68243 11.7192 8.68222 11.7192 7.4512C11.7192 6.22018 12.7343 5.21997 13.9836 5.21997C15.2329 5.21997 16.248 6.22018 16.248 7.4512Z" fill="#756565"/>
<path d="M21.2304 2.23123C21.2304 3.46521 20.2153 4.46541 18.966 4.46541C17.7167 4.46541 16.7017 3.46521 16.7017 2.23123C16.7017 0.997246 17.7167 0 18.966 0C20.2153 0 21.2304 1.00021 21.2304 2.23123Z" fill="#756565"/>
<path d="M30.7411 7.71758C30.7411 8.95157 29.7261 9.94881 28.4768 9.94881C27.2275 9.94881 26.2124 8.94861 26.2124 7.71758C26.2124 6.48656 27.2275 5.4834 28.4768 5.4834C29.7261 5.4834 30.7411 6.4836 30.7411 7.71758Z" fill="#756565"/>
<path d="M31.5009 11.674C31.5009 12.905 30.4858 13.9052 29.2365 13.9052C27.9872 13.9052 26.9722 12.905 26.9722 11.674C26.9722 10.443 27.9872 9.44275 29.2365 9.44275C30.4858 9.44275 31.5009 10.443 31.5009 11.674Z" fill="#756565"/>
<path d="M11.9629 51.1022L15.2633 73.5949L20.8282 73.2546L21.2906 60.8793L11.9629 51.1022Z" fill="#EEB29F"/>
<path d="M30.7086 51.1022L28.3752 72.6362L23.1377 73.4914L21.3809 60.8793L30.7086 51.1022Z" fill="#EEB29F"/>
<path d="M36.5433 29.1066L38.9278 44.9737C39.3392 47.8974 36.4382 47.8767 35.0478 45.8201C32.8855 42.6123 30.6392 34.4716 30.6392 34.4716L36.5433 29.1066Z" fill="#EEB29F"/>
<path d="M36.7294 29.8848C36.7143 32.3794 34.6482 34.3916 32.1135 34.3768C29.5789 34.362 27.5398 32.3261 27.5548 29.8286C27.5698 27.331 29.6359 25.3217 32.1706 25.3365C34.7022 25.3513 36.7444 27.3872 36.7294 29.8848Z" fill="#EEB29F"/>
<path d="M14.9628 29.8848C14.9477 32.3794 12.8816 34.3916 10.3469 34.3768C7.81228 34.362 5.77315 32.3261 5.78817 29.8286C5.80318 27.331 7.86934 25.3217 10.404 25.3365C12.9386 25.3513 14.9778 27.3872 14.9628 29.8848Z" fill="#EEB29F"/>
<path d="M39.0086 45.4827C39.0086 46.6042 36.1707 42.3193 35.0325 42.3193C33.8943 42.3193 34.8883 46.6042 34.8883 45.4827C34.8883 44.3612 35.8103 43.4527 36.9485 43.4527C38.0867 43.4527 39.0086 44.3612 39.0086 45.4827Z" fill="#EEB29F"/>
<path d="M3.85742 32.6102C3.87244 35.1256 7.39512 38.0788 9.94778 38.064C11.095 35.3534 15.2093 32.193 15.1943 29.6777C15.1792 27.1624 13.0951 25.1324 10.5424 25.1472C7.98974 25.162 4.7013 28.0531 3.85742 32.6102Z" fill="#BBFFB0"/>
<path d="M38.4803 34.1283C38.4653 36.6436 34.6063 39.6946 32.0536 39.6768C30.9064 36.9662 27.5729 32.0599 27.5879 29.5416C27.603 27.0233 29.6871 24.9963 32.2398 25.0111C34.7925 25.0259 37.1589 25.8219 38.4803 34.1254V34.1283Z" fill="#BBFFB0"/>
<path d="M22.5187 100.006L21.2844 95.7475L21.7168 94.6644L21.0562 93.2825L18.4254 93.4571L17.9569 94.913L18.5275 95.928L17.8818 100.313L20.1642 101L22.5187 100.006Z" fill="#4E4C51"/>
<path d="M26.0442 85.0559L28.4317 80.9929L27.747 75.9386H24.3835L23.6567 80.9929L26.0442 85.0559Z" fill="#4E4C51"/>
<path d="M20.8371 73.3789L15.3594 73.7754L15.5576 83.5082L18.4256 93.457L21.0563 93.2824L22.5309 83.0495L20.8371 73.3789Z" fill="#EEB29F"/>
<path d="M23.2604 72.7694L28.3747 72.6362L28.5189 74.32L27.672 76.2701H24.3355L23.2153 74.3082L23.2604 72.7694Z" fill="#EEB29F"/>
<path d="M21.0742 65.3389L21.2905 60.8794C21.2905 60.8794 15.5575 49.8032 12.4192 51.1052C9.46412 52.3303 12.6294 64.6583 12.6294 64.6583C12.6294 64.6583 17.981 63.7291 21.0742 65.3389Z" fill="#4E4C51"/>
<path d="M29.7862 63.729C31.9004 61.3469 30.7052 51.1022 30.7052 51.1022L21.3774 60.8764L21.7078 65.3359C23.5097 64.8594 25.4737 60.468 29.7832 63.7261L29.7862 63.729Z" fill="#4E4C51"/>
<path d="M30.7532 51.5993C30.7532 56.7247 26.5367 60.8794 21.3353 60.8794C16.1339 60.8794 11.9175 56.7247 11.9175 51.5993C11.9175 46.474 16.1339 42.3193 21.3353 42.3193C26.5367 42.3193 30.7532 46.474 30.7532 51.5993Z" fill="#4E4C51"/>
<path d="M30.5429 36.3389H11.8334L10.6201 50.8566C10.6201 59.095 19.155 57.0265 21.3353 55.1534C24.906 52.0847 31.2757 56.343 32.0505 50.8566C31.6751 50.3625 30.5429 36.3389 30.5429 36.3389Z" fill="#BBFFB0"/>
<path d="M31.633 33.7821C31.633 39.3868 27.0232 43.9291 21.3353 43.9291C15.6473 43.9291 11.0405 39.3868 11.0405 33.7821C11.0405 28.1774 15.6503 23.635 21.3353 23.635C27.0202 23.635 31.633 28.1774 31.633 33.7821Z" fill="#BBFFB0"/>
<path d="M11.0738 35.093C11.0738 35.093 9.64733 28.349 9.79148 26.1001C9.94464 23.7031 19.0832 23.0077 21.3536 23.8511C23.6239 24.6945 11.0738 35.093 11.0738 35.093Z" fill="#BBFFB0"/>
<path d="M31.6003 35.093C31.6003 35.093 33.0268 28.349 32.8827 26.1001C32.7325 23.7031 23.5909 23.0077 21.3206 23.8511C19.0502 24.6945 31.6003 35.093 31.6003 35.093Z" fill="#BBFFB0"/>
<path d="M20.8279 73.2547C20.948 75.1486 20.2693 76.7199 18.3473 76.8471C16.4253 76.9744 15.3802 75.4889 15.26 73.595C15.1399 71.7011 15.9568 70.1179 17.8788 69.9907C19.8008 69.8635 20.7047 71.3608 20.8249 73.2547H20.8279Z" fill="#EEB29F"/>
<path d="M28.5068 73.3789C28.5008 75.2758 27.75 76.8086 25.825 76.8086C23.9 76.8086 23.2153 75.2639 23.2183 73.3671C23.2213 71.4702 23.9 69.9374 25.825 69.9374C27.75 69.9374 28.5098 71.4791 28.5068 73.3789Z" fill="#EEB29F"/>
<path d="M25.1555 24.9548L23.5218 19.5099H18.7948L17.1611 24.9548C17.1611 24.9548 17.2182 27.6713 21.3295 27.6713C25.8582 27.6772 25.1495 24.9548 25.1495 24.9548H25.1555Z" fill="#EEB29F"/>
<g style="mix-blend-mode:multiply">
<path d="M24.2666 21.9809L23.5248 19.5129H18.7979L18.0591 21.9809C19.1072 22.9249 19.9931 24.4489 21.2304 24.4489C22.4677 24.4489 23.5849 23.2415 24.2666 21.9809Z" fill="#D1D3D4"/>
</g>
<path d="M28.477 12.5706C28.477 17.5243 25.2336 22.5224 21.2305 22.5224C17.2273 22.5224 13.9839 17.5243 13.9839 12.5706C13.9839 7.61694 17.2273 4.58081 21.2305 4.58081C25.2336 4.58081 28.477 7.61694 28.477 12.5706Z" fill="#EEB29F"/>
<path d="M21.7227 98.6415L20.1041 98.7481L18.7046 99.6151L19.056 95.5018L19.3413 98.7984L20.1611 98.3663L21.7227 98.6415Z" fill="#CAFFC2"/>
<g style="mix-blend-mode:multiply">
<path d="M20.6176 95.8895C20.6956 97.017 20.4794 97.9491 20.1371 97.9728C19.7947 97.9965 19.4524 97.0999 19.3773 95.9724C19.2992 94.8449 19.5154 93.9128 19.8608 93.8891C20.2031 93.8655 20.5425 94.7621 20.6206 95.8895H20.6176Z" fill="#D1D3D4"/>
</g>
<g style="mix-blend-mode:multiply">
<path d="M27.1826 78.886C27.1826 80.0164 26.672 80.9308 26.0444 80.9308C25.4167 80.9308 24.9092 80.0164 24.9092 78.886C24.9092 77.7556 25.4167 76.8383 26.0444 76.8383C26.672 76.8383 27.1826 77.7556 27.1826 78.886Z" fill="#D1D3D4"/>
</g>
<path d="M24.558 77.6106L24.2427 80.8272L25.8253 82.3719L27.8224 80.9486L27.2578 77.6106L27.0686 80.7651L25.8253 81.8156L24.8703 80.8894L24.558 77.6106Z" fill="#CAFFC2"/>
<path d="M29.8345 15.2279C29.8345 16.3879 29.2248 17.329 28.477 17.329C27.7293 17.329 27.1196 16.3879 27.1196 15.2279C27.1196 14.0679 27.7263 13.1299 28.477 13.1299C29.2278 13.1299 29.8345 14.0709 29.8345 15.2279Z" fill="#EEB29F"/>
<path d="M15.3413 15.2279C15.3413 16.3879 14.7347 17.329 13.9839 17.329C13.2331 17.329 12.6265 16.3879 12.6265 15.2279C12.6265 14.0679 13.2361 13.1299 13.9839 13.1299C14.7317 13.1299 15.3413 14.0709 15.3413 15.2279Z" fill="#EEB29F"/>
<path d="M14.6865 10.0968C14.6865 10.0968 18.9629 11.2745 26.5609 7.7176C27.5219 9.54934 28.9394 12.0173 27.621 17.0213C30.0085 13.3164 28.4318 7.70577 28.4318 7.70577C27.0684 5.24964 29.2217 2.75801 25.6029 2.03301C17.11 0.67178 14.6865 4.58382 14.6865 4.58382C14.6865 4.58382 13.0678 6.26168 12.8996 10.301C12.7314 14.3373 13.9837 16.4087 14.8396 17.0242C13.266 14.2456 14.6895 10.0997 14.6895 10.0997L14.6865 10.0968Z" fill="#756565"/>
<path d="M34.8887 45.4827L31.5552 48.9449L32.4861 50.6287L38.7116 46.5924L34.8887 45.4827Z" fill="#EEB29F"/>
<path d="M31.2821 46.4326L28.1528 46.7522L28.1047 47.3766L30.5403 47.5216L30.4472 47.6607L29.8856 47.5689L27.5552 48.1046V50.3091L29.8856 50.8448L32.4863 50.6287V47.998L31.2821 46.4326Z" fill="#EEB29F"/>
<path d="M0.607974 43.0207C0.382739 44.1185 1.10649 45.1898 2.22066 45.4117C3.33783 45.6336 4.42196 44.9205 4.64719 43.8226C4.87243 42.7248 4.14867 41.6535 3.03151 41.4316C1.91734 41.2097 0.830206 41.9228 0.604971 43.0207H0.607974Z" fill="#EEB29F"/>
<path d="M11.7227 43.9381L14.8099 43.7576L14.879 44.5181L11.9539 45.3082L11.7227 43.9381Z" fill="#EEB29F"/>
<path d="M11.7227 43.938L12.6657 45.5123L10.4644 45.4649L11.7227 43.938Z" fill="#EEB29F"/>
<path d="M3.50917 41.5884L11.017 45.1216L10.3743 48.0956L1.89648 45.2015L3.50917 41.5884Z" fill="#EEB29F"/>
<path d="M10.4646 45.465L10.3745 48.0957L12.9662 48.3946L13.0773 45.1217L10.4646 45.465Z" fill="#EEB29F"/>
<path d="M16.96 45.678L16.8849 47.8826L12.9658 48.3946L13.0769 45.1217L16.96 45.678Z" fill="#EEB29F"/>
<path d="M24.0235 19.6075L22.4859 18.7908L21.1975 19.0719L19.9422 18.7908L18.4046 19.6075L14.5786 16.5833L17.4616 21.6464C17.4616 21.6464 17.9541 23.2177 21.2065 22.7206H21.2246C24.48 23.2177 24.9695 21.6464 24.9695 21.6464L27.8525 16.5833L24.0235 19.6075ZM23.2096 21.1374L21.5189 21.096L21.2155 20.4391L20.9122 21.096L19.2185 21.1374L19.0653 19.9005L20.1434 19.3353L21.2155 19.4122L22.2877 19.3353L23.3658 19.9005L23.2096 21.1374Z" fill="#756565"/>
</svg>
