<svg width="179" height="150" viewBox="0 0 179 150" fill="none" xmlns="http://www.w3.org/2000/svg">
<g clip-path="url(#clip0_1413_5026)">
<path d="M89.0188 145.794C90.1802 145.794 91.1216 144.853 91.1216 143.692C91.1216 142.53 90.1802 141.589 89.0188 141.589C87.8575 141.589 86.916 142.53 86.916 143.692C86.916 144.853 87.8575 145.794 89.0188 145.794Z" fill="black"/>
<path d="M24.266 43.9907C26.0604 43.2336 27.967 42.4486 29.9296 41.6495C47.481 34.486 71.495 24.6589 71.495 2.1028C71.495 0.939252 70.5557 0 69.3922 0C68.2286 0 67.2894 0.939252 67.2894 2.1028C67.2894 21.8271 45.6866 30.6589 28.3314 37.7523C26.3268 38.5654 24.4202 39.3505 22.6118 40.1215C6.08378 47.1589 5.18659 68.271 5.15855 69.1682C4.8922 71.7196 4.28939 74.1869 3.3922 76.5421C3.35014 76.6542 3.30808 76.7804 3.28005 76.8925C-2.43958 104.706 0.994999 122.355 1.13519 123.084C1.38752 124.206 2.48098 124.935 3.61649 124.724C4.73799 124.5 5.48098 123.393 5.25668 122.257C5.22864 122.089 1.87818 104.734 7.34547 77.9579C8.39687 75.1122 9.06977 72.2664 9.33612 69.3505C9.33612 69.1963 10.1212 49.9907 24.224 43.9907H24.266Z" fill="black"/>
<path d="M174.406 124.724C175.542 124.935 176.635 124.22 176.887 123.07C177.042 122.341 180.476 104.734 174.743 76.8785C174.715 76.7664 174.687 76.6402 174.644 76.528C173.747 74.2009 173.158 71.7617 172.892 69.2944C172.864 68.3411 171.939 47.1449 155.439 40.1215C153.63 39.3505 151.696 38.5654 149.719 37.7523C132.364 30.6589 110.761 21.8271 110.761 2.1028C110.761 0.939252 109.822 0 108.658 0C107.495 0 106.556 0.939252 106.556 2.1028C106.556 24.6589 130.584 34.472 148.121 41.6355C150.098 42.4346 151.99 43.2196 153.799 43.9766C167.733 49.9065 168.672 68.6495 168.701 69.4486C168.981 72.2804 169.64 75.1122 170.649 77.8318C176.13 104.579 172.808 122.061 172.78 122.229C172.556 123.364 173.285 124.486 174.42 124.71L174.406 124.724Z" fill="black"/>
<path d="M48.8828 97.71C53.7473 99.8268 58.9342 100.92 64.2613 100.962C70.6959 101.06 76.9763 98.9156 81.9529 94.8502C82.3735 94.4997 82.6399 93.981 82.6959 93.4343C82.752 92.8736 82.5838 92.3268 82.2193 91.8923C81.4903 91.0091 80.1585 90.8829 79.2754 91.6119C67.2613 101.551 50.8314 93.981 50.6632 93.8969C50.3828 93.7567 50.0744 93.7007 49.78 93.7007C48.995 93.7007 48.224 94.1493 47.8735 94.9063C47.3828 95.9577 47.8314 97.2053 48.8828 97.71Z" fill="black"/>
<path d="M78.4341 117.617C78.7425 116.495 78.0837 115.346 76.9762 115.023C76.7939 114.967 76.5977 114.953 76.4154 114.953C75.4902 114.953 74.6491 115.57 74.3827 116.495C72.0276 124.977 65.2005 126.14 64.9061 126.196C64.3453 126.28 63.8407 126.561 63.5042 127.009C63.1678 127.458 63.0276 128.005 63.0977 128.565C63.2519 129.687 64.3173 130.514 65.4528 130.36C65.8453 130.304 75.2799 128.916 78.4201 117.631L78.4341 117.617Z" fill="black"/>
<path d="M113.776 100.963C119.103 100.921 124.29 99.8134 129.168 97.6966C130.206 97.1919 130.654 95.9443 130.149 94.8929C129.659 93.8555 128.411 93.4069 127.374 93.8835C127.22 93.9536 110.762 101.51 98.7756 91.5844C98.3831 91.262 97.9205 91.1078 97.4439 91.1078C96.8411 91.1078 96.2242 91.3742 95.8177 91.8788C95.0887 92.762 95.2149 94.0938 96.0981 94.8228C101.075 98.8882 107.369 101.103 113.776 100.935V100.963Z" fill="black"/>
<path d="M113.145 126.183C112.85 126.141 106.023 125.005 103.668 116.482C103.514 115.935 103.163 115.486 102.673 115.22C102.35 115.038 102 114.94 101.649 114.94C101.467 114.94 101.271 114.968 101.089 115.024C99.9671 115.332 99.3223 116.496 99.6307 117.617C102.771 128.902 112.191 130.304 112.598 130.36C113.762 130.5 114.799 129.687 114.953 128.538C115.093 127.416 114.294 126.351 113.173 126.183H113.145Z" fill="black"/>
<path d="M49.4854 150C50.691 150 51.6022 149.145 51.6723 147.981C52.8358 121.486 48.434 110.803 47.9293 109.682C44.1162 100.346 33.7284 70.4016 33.6302 70.1072C33.448 69.5745 33.0695 69.1539 32.5648 68.9016C32.0601 68.6492 31.4854 68.6212 30.9527 68.8035C30.4199 68.9857 29.9994 69.3642 29.747 69.8689C29.4947 70.3735 29.4667 70.9483 29.6489 71.481C30.5741 74.1586 33.7564 83.2848 37.0508 92.481L37.0928 92.6072V92.7474C36.9527 98.1726 35.2003 113.355 28.7798 118.766C27.8966 119.509 27.7844 120.841 28.5274 121.724C29.2844 122.579 30.6022 122.691 31.4994 121.962C36.3639 117.869 38.7751 110.046 39.9386 104.229L40.4293 101.803L41.2844 104.117C42.462 107.271 43.4013 109.724 44.0882 111.406C44.1302 111.49 48.6022 121.724 47.4527 147.799C47.3966 148.962 48.3078 149.944 49.4573 150H49.4854Z" fill="black"/>
<path d="M149.986 120.183C149.944 119.622 149.678 119.117 149.243 118.753C142.851 113.369 141.084 98.2573 140.93 92.8181V92.5798L140.958 92.4676C144.757 81.8415 148.318 71.5657 148.36 71.4676C148.739 70.3742 148.164 69.1686 147.07 68.79C146.846 68.7059 146.608 68.6779 146.384 68.6779C145.514 68.6779 144.701 69.2246 144.393 70.0938C144.281 70.4022 133.921 100.276 130.094 109.655C129.575 110.804 125.187 121.5 126.351 147.996C126.407 149.117 127.318 150 128.454 150C129.701 149.944 130.612 148.963 130.556 147.799C129.421 121.935 133.739 111.827 133.921 111.407C134.65 109.626 135.561 107.285 136.739 104.117L137.594 101.804L138.084 104.215C139.248 110.047 141.659 117.855 146.538 121.963C147.421 122.692 148.753 122.58 149.51 121.711C149.86 121.29 150.042 120.743 149.986 120.183Z" fill="black"/>
<path d="M86.916 75C86.916 76.1636 87.8553 77.1028 89.0188 77.1028C90.1824 77.1028 91.1216 76.1636 91.1216 75V58.1776C91.1216 57.014 90.1824 56.0748 89.0188 56.0748C87.8553 56.0748 86.916 57.014 86.916 58.1776V75Z" fill="black"/>
<path d="M58.9212 36.1542C63.1128 49.7804 77.7903 49.2196 80.6922 48.9673C81.9258 48.8692 82.795 47.8458 82.6969 46.6963C82.5987 45.5467 81.5894 44.6776 80.4399 44.7757C66.0146 45.9393 63.1408 35.6776 63.0286 35.243C62.7903 34.2897 61.9352 33.6449 60.9959 33.6449C60.8277 33.6449 60.6595 33.6589 60.4913 33.7009C59.3698 33.9533 58.6828 35.0467 58.9212 36.1542Z" fill="black"/>
<path d="M95.3408 46.5698C95.3408 47.2708 95.5231 48.182 97.1072 48.7007C98.1866 49.0512 99.3782 49.0512 99.7567 49.0512C112.57 49.0512 117.995 40.668 119.088 36.2381C119.215 35.6913 119.131 35.1306 118.85 34.654C118.556 34.1773 118.093 33.8409 117.546 33.7007C117 33.5605 116.439 33.6586 115.962 33.939C115.486 34.2334 115.149 34.696 115.009 35.2427C114.897 35.6773 112.233 45.925 97.5978 44.7614C97.5277 44.7614 97.4436 44.7614 97.3735 44.7614C96.8969 44.7614 96.4623 44.9156 96.0978 45.21C95.6773 45.5465 95.4109 46.0371 95.3548 46.5698H95.3408Z" fill="black"/>
</g>
<defs>
<clipPath id="clip0_1413_5026">
<rect width="178.037" height="150" fill="white"/>
</clipPath>
</defs>
</svg>
