<svg width="24" height="24" viewBox="0 0 24 24" fill="none" xmlns="http://www.w3.org/2000/svg">
<g clip-path="url(#clip0_1413_5386)">
<path d="M23.484 9.12502C23.165 8.94802 22.777 8.95902 22.468 9.15302L21.811 9.56502C21.922 9.13702 21.999 8.69802 21.999 8.25002C21.999 6.91902 21.485 5.71602 20.666 4.78902C21.012 4.71202 21.371 4.61102 21.757 4.45402C22.794 4.03302 23.492 3.10602 23.891 2.41402C24.155 1.95602 23.917 1.37202 23.409 1.22902C22.64 1.01102 21.494 0.835024 20.457 1.25602C19.545 1.62702 18.765 2.48802 18.221 3.23502C17.751 3.09702 17.264 2.99902 16.75 2.99902C14.642 2.99902 12.832 4.25602 11.998 6.05202L11.425 4.75202C11.143 4.11202 11 3.43402 11 2.73502V1.99902C11.553 1.99902 12 1.55202 12 0.999023C12 0.446023 11.553 -0.000976562 11 -0.000976562H4.00005C3.44705 -0.000976562 3.00005 0.446023 3.00005 0.999023C3.00005 1.55202 3.44705 1.99902 4.00005 1.99902V2.73502C4.00005 3.43302 3.85705 4.11202 3.57505 4.75202L2.67905 6.78502C2.30205 7.63802 2.09005 8.53902 2.02705 9.46402L1.53005 9.15202C1.22205 8.95902 0.835047 8.94902 0.514047 9.12402C0.196047 9.30002 -0.00195312 9.63502 -0.00195312 9.99902V19.499C-0.00195312 21.98 2.01705 23.999 4.49805 23.999H19.498C21.979 23.999 23.998 21.98 23.998 19.499V9.99902C23.998 9.63502 23.801 9.30002 23.482 9.12402L23.484 9.12502ZM16.75 5.00002C18.542 5.00002 20 6.45802 20 8.25002C20 8.88802 19.803 9.50302 19.456 10.03L18.04 9.15002C17.718 8.94902 17.308 8.94902 16.985 9.15002L14.756 10.535L14.096 10.125C13.706 9.57502 13.499 8.92702 13.499 8.25002C13.499 6.45802 14.958 5.00002 16.75 5.00002ZM4.51005 7.59302L5.40605 5.56002C5.80105 4.66402 6.00105 3.71402 6.00105 2.73702V2.00102H9.00105V2.73702C9.00105 3.71502 9.20105 4.66402 9.59605 5.56002L10.492 7.59302C10.755 8.19002 10.914 8.81702 10.973 9.46202L9.24405 10.536L7.01505 9.15102C6.69305 8.95002 6.28305 8.95002 5.96005 9.15102L4.00005 10.369V10.013C4.00005 9.17402 4.17205 8.36002 4.51005 7.59302ZM2.00005 19.5V11.808L3.19905 12.56C3.52105 12.764 3.93305 12.765 4.25805 12.563L6.48705 11.178L8.71605 12.562C9.03805 12.763 9.44805 12.763 9.77105 12.562L12 11.177L14 12.419V19.5C14 20.425 14.282 21.284 14.762 22H4.50005C3.12105 22 2.00005 20.879 2.00005 19.5ZM22 19.5C22 20.879 20.879 22 19.5 22H18.5C17.121 22 16 20.879 16 19.5V12.117L17.513 11.178L19.742 12.563C20.066 12.766 20.478 12.765 20.801 12.56L22 11.808V19.5Z" fill="black"/>
</g>
<defs>
<clipPath id="clip0_1413_5386">
<rect width="24" height="24" fill="white"/>
</clipPath>
</defs>
</svg>
