<svg width="24" height="24" viewBox="0 0 24 24" fill="none" xmlns="http://www.w3.org/2000/svg">
<g clip-path="url(#clip0_1413_5382)">
<path d="M20.5 0H8.499C6.57 0 5 1.57 5 3.5V17H3C1.346 17 0 18.346 0 20V20.5C0 22.43 1.57 24 3.5 24H9C9.552 24 10 23.553 10 23C10 22.447 9.552 22 9 22H6.649C6.868 21.544 7 21.039 7 20.5V3.5C7 2.673 7.673 2 8.5 2C9.327 2 10 2.673 10 3.5V4C10 5.654 11.346 7 13 7H19V9C19 9.553 19.448 10 20 10C20.552 10 21 9.553 21 9V7C22.654 7 24 5.654 24 4V3.5C24 1.57 22.43 0 20.5 0ZM2 20.5V20C2 19.448 2.449 19 3 19H5V20.5C5 21.327 4.327 22 3.5 22C2.673 22 2 21.327 2 20.5ZM22 4C22 4.552 21.551 5 21 5H13C12.449 5 12 4.552 12 4V3.5C12 2.964 11.878 2.455 11.662 2H20.5C21.327 2 22 2.673 22 3.5V4ZM9 11C9 10.447 9.448 10 10 10H16C16.552 10 17 10.447 17 11C17 11.553 16.552 12 16 12H10C9.448 12 9 11.553 9 11ZM23.973 13.095C23.583 14.629 22.364 17.543 19.858 19.567C18.726 20.481 17.563 21.037 16.501 21.374C16.501 21.374 17.501 17.999 20.567 14.433C17.464 16.151 15.253 19.258 14.29 21.845C14.11 22.304 13.963 22.781 13.834 23.253C13.713 23.698 13.299 24 12.837 24C12.153 24 11.645 23.349 11.832 22.691C11.973 22.195 12.136 21.691 12.332 21.196C12.498 19.836 13.324 16.521 16.087 14.29C18.546 12.304 21.585 12 23.104 12.001C23.683 12.001 24.116 12.534 23.973 13.095ZM11.5 16H10C9.448 16 9 15.553 9 15C9 14.447 9.448 14 10 14H11.5C12.052 14 12.5 14.447 12.5 15C12.5 15.553 12.052 16 11.5 16Z" fill="black"/>
</g>
<defs>
<clipPath id="clip0_1413_5382">
<rect width="24" height="24" fill="white"/>
</clipPath>
</defs>
</svg>
