<svg width="230" height="300" viewBox="0 0 230 300" fill="none" xmlns="http://www.w3.org/2000/svg">
<g clip-path="url(#clip0_1357_5816)">
<path d="M85.2835 219.304L83.2721 179.581C82.5883 173.949 80.6473 171.686 76.6951 168.056C66.6887 158.864 51.5736 152.076 41.1146 143.296C29.8009 133.813 30.3641 116.103 24.9938 103.1C23.4451 99.3486 19.3923 94.3102 17.9139 89.9959L16.5764 89.6942C12.4532 91.3535 4.3978 98.3127 1.32047 91.5647C-1.53562 85.2894 7.6461 81.9304 12.1917 79.3459C23.1937 73.0906 47.9129 59.3734 59.5988 58.3677C73.8792 57.1307 89.9095 59.3633 104.391 58.4079C103.355 52.3136 106.483 52.5952 110.294 49.729L110.465 32.9344C91.599 26.2669 94.5054 -0.87604 115.986 0.00894553C130.649 0.612345 137.156 19.2272 126.566 28.771C124.384 30.732 121.025 30.8527 120.482 33.749L120.421 50.7347C124.293 51.9918 126.938 54.0132 125.51 58.3878C139.408 59.2426 154.534 57.2816 168.291 58.3576C182.401 59.4639 210.076 74.5991 222.728 82.3629C226.439 84.6357 230.914 86.3755 228.571 91.5647C224.789 99.9419 213.576 88.4069 212.007 89.5735C211.334 94.6823 206.738 98.9262 204.897 103.1C200.462 113.146 199.416 129.991 193.322 138.791C187.218 147.6 163.233 159.628 153.749 167.603C146.75 173.496 146.257 178.706 145.633 187.646C144.899 198.085 145.543 208.855 144.618 219.314H161.211C161.573 219.314 167.145 221.195 167.989 221.587C172.786 223.78 177.915 229.683 178.74 234.973C180.258 244.657 179.967 279.031 178.8 289.218C177.362 301.789 161.01 303.609 156.444 293.472C152.522 284.773 153.779 264.75 151.406 254.261C150.139 248.66 148.912 246.95 143.149 246.427C129.311 245.18 101.565 245.17 87.7473 246.427C82.9604 246.86 80.6373 248.328 79.4707 253.235C76.7655 264.66 78.1734 281.414 74.2614 292.275C69.9973 304.112 53.4642 301.688 51.3221 288.967C49.6829 279.242 50.055 248.298 51.0908 237.929C51.7848 231 54.8621 225.107 61.228 221.919C62.2135 221.426 68.1469 219.314 68.6799 219.314H85.2734L85.2835 219.304ZM104.25 69.611C90.0704 70.6368 72.5015 67.66 58.7238 69.5406C53.1323 70.3049 46.6559 75.0919 41.5069 77.4452C40.8733 94.0085 46.7464 109.727 54.1581 124.219L90.0201 143.668L140.313 143.095L177.282 122.74C179.444 115.087 184.673 106.157 186.423 98.6949C187.972 92.0575 186.453 83.7507 189.853 78.0083L188.857 77.0328C182.29 74.8505 177.433 70.2446 170.272 69.4602C156.454 67.9617 140.223 70.6368 126.134 69.3998C125.349 76.8619 104.532 76.9926 104.26 69.6211L104.25 69.611Z" fill="black"/>
<path d="M104.245 69.6226C104.516 76.9941 125.334 76.8634 126.118 69.4014C140.218 70.6383 156.439 67.9632 170.257 69.4617C177.418 70.236 182.275 74.8521 188.842 77.0343L189.838 78.0098C186.439 83.7522 187.957 92.059 186.409 98.6964C184.669 106.158 179.439 115.089 177.267 122.742L140.298 143.096L90.0042 143.67L54.1418 124.22C46.74 109.739 40.8568 94.01 41.4903 77.4467C46.6394 75.0934 53.116 70.3064 58.7075 69.5421C72.4853 67.6515 90.0545 70.6383 104.235 69.6125L104.245 69.6226ZM110.158 91.8377C81.8381 96.1319 86.3235 141.678 117.882 137.766C147.67 134.066 142.118 87.0005 110.158 91.8377Z" fill="white"/>
<path d="M110.158 91.8377C142.118 86.9904 147.67 134.066 117.882 137.766C86.3235 141.689 81.8382 96.1319 110.158 91.8377Z" fill="black"/>
</g>
<defs>
<clipPath id="clip0_1357_5816">
<rect width="228.44" height="300" fill="white" transform="translate(0.780273)"/>
</clipPath>
</defs>
</svg>
