<svg width="24" height="24" viewBox="0 0 24 24" fill="none" xmlns="http://www.w3.org/2000/svg">
<path d="M20 0H5C3.346 0 2 1.346 2 3V21C2 22.654 3.346 24 5 24H22V2C22 0.897 21.103 0 20 0ZM5 2H20V18H5C4.648 18 4.314 18.072 4 18.184V3C4 2.448 4.449 2 5 2ZM5 22C4.449 22 4 21.552 4 21C4 20.448 4.449 20 5 20H20V22H5ZM8 10.829V15H16V10.829C17.164 10.416 18 9.304 18 8C18 6.346 16.654 5 15 5C14.512 5 14.035 5.124 13.605 5.357C12.596 4.886 11.403 4.886 10.394 5.357C9.965 5.124 9.487 5 8.999 5C7.345 5 5.999 6.346 5.999 8C5.999 9.304 6.836 10.416 8 10.829ZM9 7C9.302 7 9.526 7.149 9.661 7.274L10.26 7.831L10.925 7.355C11.574 6.89 12.428 6.89 13.077 7.355L13.742 7.831L14.341 7.274C14.475 7.149 14.699 7 15.002 7C15.553 7 16.002 7.448 16.002 8C16.002 8.552 15.553 9 15.002 9H14.002V13H10.002V9H9.002C8.451 9 8.002 8.552 8.002 8C8.002 7.448 8.451 7 9.002 7H9Z" fill="black"/>
</svg>
