<svg width="20" height="20" viewBox="0 0 20 20" fill="none" xmlns="http://www.w3.org/2000/svg">
<g clip-path="url(#clip0_1413_5174)">
<path d="M2.95763 7.62663L3.096 7.62507C5.02566 7.62507 6.76179 8.70374 7.64468 10.3929C8.20005 10.1424 8.80225 10 9.42924 10C10.4651 10 11.4392 10.3693 12.2104 11.0125C12.2252 10.3326 12.3138 9.65536 12.4002 9.05375C12.4743 8.53939 12.5453 8.04031 12.5499 7.62473L10.5487 7.62507C10.2317 7.62507 9.93329 7.50138 9.70908 7.27717L8.12576 5.69386C7.67322 5.24131 7.6701 4.51547 8.10208 4.05035C7.9512 3.82421 7.87932 3.55335 7.90697 3.27678C7.94214 2.92154 8.1327 2.60381 8.42998 2.40587L9.39094 1.76538C9.85517 1.45574 10.396 1.29187 10.9545 1.29187C12.1188 1.29187 13.2131 1.7453 14.0365 2.56863C15.553 4.08504 16.7462 5.82143 17.5843 7.72983C18.5939 10.029 19.1057 11.7252 19.1057 12.7708C19.1057 13.37 19.1575 13.8566 19.2599 14.2177C19.4787 14.9888 19.1343 15.8114 18.4226 16.2181C15.5718 17.847 12.3295 18.7082 9.04613 18.7082H8.47365C6.43846 18.7082 4.42765 18.382 2.49681 17.7384L2.21964 17.6456C1.08668 17.2683 0.325169 16.2119 0.325169 15.0175V10.3994C0.325207 8.90881 1.50612 7.66489 2.95763 7.62663ZM1.11689 15.0175C1.11689 15.8706 1.66075 16.6251 2.47057 16.8949L2.74774 16.9877C4.59698 17.6039 6.52355 17.9166 8.47369 17.9166H9.04617C12.1919 17.9166 15.2986 17.0917 18.03 15.5308C18.425 15.3051 18.6175 14.8539 18.4985 14.4337C18.3759 14.0027 18.3141 13.443 18.3141 12.7708C18.3141 11.8485 17.8112 10.2157 16.8591 8.04833C16.0613 6.23 14.9233 4.5748 13.4768 3.12834C12.8031 2.4546 11.9074 2.08351 10.9546 2.08351C10.5529 2.08351 10.1641 2.2014 9.83009 2.42406L8.86912 3.06455C8.76978 3.13064 8.7064 3.23655 8.69478 3.35486C8.6828 3.47353 8.72454 3.58949 8.80845 3.67377L10.0729 4.93817C10.2082 5.07347 10.4142 5.10672 10.585 5.0213C10.7141 4.95673 10.8015 4.83805 10.8247 4.69545C10.8479 4.55284 10.8026 4.41249 10.7006 4.31044L10.3368 3.9467C10.1822 3.79207 10.1822 3.54159 10.3368 3.38699C10.4915 3.23236 10.742 3.23236 10.8966 3.38699L11.2603 3.75073C11.5444 4.03484 11.6708 4.42566 11.6063 4.82262C11.5417 5.21923 11.2986 5.54973 10.9391 5.72948C10.4636 5.96683 9.88961 5.87484 9.5131 5.49792L8.64728 4.6321C8.5403 4.78625 8.54828 4.99695 8.68551 5.13418L10.2688 6.7175C10.3427 6.79135 10.4447 6.83346 10.5487 6.83346L12.397 6.83317C12.3721 6.79209 12.3483 6.74982 12.316 6.7175C12.1614 6.56287 12.1614 6.31238 12.316 6.15779C12.4706 6.00316 12.7211 6.00316 12.8757 6.15779C13.5232 6.80526 13.3658 7.8996 13.1838 9.16668C13.0895 9.82458 12.9917 10.5049 12.9917 11.1875C12.9917 12.818 14.2255 13.1651 14.2781 13.1791C14.4884 13.2336 14.616 13.4473 14.563 13.6584C14.5182 13.8385 14.357 13.9583 14.1796 13.9583C14.1479 13.9583 14.1154 13.9545 14.0833 13.9464C13.6094 13.8279 12.8326 13.3731 12.4422 12.4401C12.4368 12.4329 12.4281 12.4302 12.4231 12.4226C11.7628 11.4013 10.6438 10.7917 9.42924 10.7917C8.48375 10.7917 7.59314 11.1582 6.92169 11.8238C6.76628 11.9777 6.51543 11.9769 6.36198 11.8215C6.20813 11.6661 6.20891 11.4156 6.36432 11.2618C6.54745 11.0802 6.74821 10.9236 6.95579 10.7794C6.2118 9.33823 4.73658 8.41675 3.09604 8.41675L2.97893 8.4183C1.95224 8.44536 1.11692 9.33404 1.11692 10.3994L1.11689 15.0175Z" fill="black"/>
</g>
<defs>
<clipPath id="clip0_1413_5174">
<rect width="19" height="19" fill="white" transform="matrix(-1 0 0 1 19.3252 0.5)"/>
</clipPath>
</defs>
</svg>
