<svg width="20" height="20" viewBox="0 0 20 20" fill="none" xmlns="http://www.w3.org/2000/svg">
<path d="M13.6416 15.0116C13.4614 15.0125 13.2838 14.8454 13.2824 14.6399V4.13755C13.274 2.87531 12.4994 1.79399 11.449 1.50696C7.80645 0.597628 4.09784 0.50632 0.425606 1.23547C0.250809 1.27021 0.0848045 1.13302 0.0550098 0.929051C0.0252151 0.725131 0.14287 0.531652 0.317747 0.496909C4.07153 -0.248536 7.86295 -0.15484 11.5865 0.775139C12.8253 1.07299 13.9134 2.43212 13.9248 4.13175V14.6341C13.9263 14.841 13.819 15.0108 13.6416 15.0116Z" fill="black"/>
<path d="M0.175943 6.07717C0.0353184 5.95107 0.00897789 5.71583 0.117117 5.55185C0.225296 5.38787 0.426918 5.3572 0.567623 5.48325C3.0186 7.68128 5.65048 6.12034 8.1125 5.55199C8.28637 5.51209 8.45555 5.64376 8.49 5.8467C8.52446 6.04964 8.4113 6.24677 8.23726 6.2869C5.80865 6.84738 2.90628 8.52567 0.175943 6.07717Z" fill="black"/>
<path d="M8.73895 6.29198C8.95937 6.22755 9.16737 6.18616 9.36915 6.16612C9.55226 5.55684 9.87427 5.01438 10.3853 4.57465C10.528 4.45183 10.7292 4.48718 10.8345 4.65369C10.9399 4.82015 10.9095 5.05464 10.7668 5.17756C8.08887 7.48174 11.9177 13.7319 11.4721 16.2123C11.3879 16.681 11.1674 17.883 11.2972 18.3324C11.5347 19.1546 12.3862 19.4027 13.0389 19.1612C15.0519 18.4165 16.0813 19.6973 18.3989 19.0699C18.7898 18.9642 18.7747 18.2992 18.3752 18.2172C17.0746 17.9505 15.3208 17.618 14.2745 16.7138C14.132 16.5906 14.1021 16.356 14.2077 16.1898C14.3134 16.0236 14.5146 15.9887 14.6571 16.1119C15.5933 16.921 17.3178 17.2397 18.4866 17.4794C19.5735 17.7024 19.6156 19.5098 18.5442 19.7998C16.0922 20.4632 15.0371 19.2082 13.2331 19.8754C12.2911 20.2241 11.0503 19.8246 10.6883 18.5716C10.5194 17.9867 10.6779 16.9779 10.8397 16.0782C11.1452 14.3804 8.84187 10.0632 9.21114 6.94307C9.10923 6.9619 9.00438 6.98681 8.89516 7.01869C8.72454 7.0687 8.54893 6.94869 8.50545 6.74646C8.46232 6.54572 8.56684 6.34227 8.73895 6.29198Z" fill="black"/>
</svg>
