<?xml version="1.0" standalone="no"?>
<!DOCTYPE svg PUBLIC "-//W3C//DTD SVG 20010904//EN"
 "http://www.w3.org/TR/2001/REC-SVG-20010904/DTD/svg10.dtd">
<svg version="1.0" xmlns="http://www.w3.org/2000/svg"
 width="1280.000000pt" height="1280.000000pt" viewBox="0 0 1280.000000 1280.000000"
 preserveAspectRatio="xMidYMid meet">
<metadata>
Created by potrace 1.16, written by Peter Selinger 2001-2019
</metadata>
<g transform="translate(0.000000,1280.000000) scale(0.100000,-0.100000)"
fill="#000000" stroke="none">
<path d="M3205 12793 c-627 -30 -989 -60 -1485 -124 -488 -63 -1098 -168
-1168 -201 -84 -40 -128 -132 -120 -250 9 -114 77 -198 173 -213 27 -5 109 6
255 34 1553 293 3166 353 4740 175 616 -69 1283 -185 1897 -330 274 -64 322
-79 460 -144 156 -74 271 -157 413 -300 311 -310 488 -714 520 -1182 6 -89 10
-1420 10 -3516 l0 -3372 21 -45 c25 -53 86 -109 137 -126 51 -17 133 -7 172
21 19 13 44 47 59 79 l26 56 0 3490 c0 3297 -1 3497 -18 3615 -97 679 -431
1253 -930 1598 -101 70 -266 157 -372 197 -84 31 -301 86 -606 154 -967 214
-1886 336 -2884 381 -193 9 -1137 11 -1300 3z"/>
<path d="M7080 9902 c-51 -24 -253 -231 -336 -342 -135 -182 -241 -381 -313
-585 -37 -106 -40 -110 -72 -117 -19 -4 -92 -19 -164 -32 -235 -45 -281 -67
-330 -156 -25 -47 -29 -66 -29 -130 0 -64 4 -83 29 -129 58 -106 136 -131 293
-92 148 36 135 37 128 -1 -3 -18 -10 -118 -16 -223 -26 -509 51 -1150 231
-1910 88 -374 186 -728 434 -1570 202 -686 278 -971 340 -1277 57 -283 69
-385 69 -588 0 -174 -2 -199 -42 -420 -108 -610 -139 -1069 -87 -1328 74 -378
320 -706 651 -870 197 -98 325 -127 569 -127 205 0 228 4 466 80 306 98 455
120 757 112 221 -6 320 -18 697 -87 483 -88 677 -110 987 -110 312 0 581 34
876 110 154 40 239 86 332 180 161 162 229 357 217 622 -11 243 -100 440 -261
576 -101 86 -159 106 -526 182 -445 93 -641 140 -905 215 -555 158 -928 328
-1229 559 -54 41 -114 80 -133 87 -84 27 -180 -14 -230 -98 -25 -43 -28 -57
-28 -138 0 -129 21 -160 188 -286 322 -241 772 -444 1342 -604 208 -59 546
-139 881 -209 171 -36 322 -70 336 -75 42 -16 88 -61 116 -115 23 -44 27 -63
27 -141 0 -82 -3 -95 -31 -145 -56 -99 -122 -127 -434 -184 -192 -35 -325 -46
-551 -46 -284 0 -435 17 -939 109 -472 85 -666 104 -937 90 -237 -12 -388 -42
-658 -129 -203 -66 -249 -74 -408 -68 -112 5 -146 10 -227 36 -255 83 -440
271 -520 527 -57 184 -33 542 77 1185 47 271 48 278 47 490 -1 474 -91 890
-487 2245 -262 894 -369 1301 -456 1725 -179 880 -184 1526 -14 2040 46 140
148 343 231 460 37 52 122 150 189 217 110 111 124 128 139 180 47 163 -50
323 -195 323 -32 0 -71 -8 -91 -18z"/>
<path d="M544 9321 c-43 -26 -89 -85 -103 -130 -33 -112 -1 -223 89 -304 386
-347 875 -609 1345 -722 283 -68 511 -90 835 -82 546 14 984 104 1974 406 493
151 664 201 846 246 80 19 158 41 174 47 143 57 183 279 73 405 -34 39 -67 58
-117 67 -63 11 -336 -62 -1055 -280 -622 -190 -821 -244 -1129 -309 -495 -104
-934 -123 -1326 -59 -464 77 -911 290 -1300 619 -54 46 -111 90 -128 99 -44
23 -139 21 -178 -3z"/>
</g>
</svg>
