<svg width="115" height="150" viewBox="0 0 115 150" fill="none" xmlns="http://www.w3.org/2000/svg">
<path d="M89.6049 2.56536C89.6049 1.16196 88.4659 0.0229721 87.0625 0.0229721C85.6591 0.0229721 84.5201 1.16196 84.5201 2.56536C84.5201 9.70439 79.954 15.979 73.1607 18.1655L37.9537 29.535C15.5299 36.7757 0.46875 57.4606 0.46875 81.0133V89.1795C0.46875 93.6439 1.43486 97.9761 3.33656 102.064L3.4586 102.329L2.86876 107.261C1.25181 120.868 1.83147 134.576 4.58742 147.99C4.71962 148.631 5.12641 149.221 5.6959 149.597C6.2654 149.973 6.93659 150.105 7.58744 149.973C8.96033 149.688 9.85525 148.346 9.5705 146.973C7.17049 135.278 6.4993 123.278 7.58744 111.308L7.78066 109.132L9.31626 110.678C12.662 114.054 16.8214 116.627 21.3367 118.132C22.6486 118.569 24.1231 117.827 24.5503 116.525C24.9977 115.193 24.2757 113.749 22.9435 113.312C16.5875 111.186 11.401 106.742 8.35015 100.783L8.29931 100.681C6.4993 97.1321 5.55353 93.1558 5.55353 89.1795V81.0133C5.55353 59.6674 19.2011 40.9249 39.5097 34.3757L74.7268 23.0062C83.6252 20.1282 89.6049 11.9214 89.6049 2.56536Z" fill="black"/>
<path d="M112.415 116.902H81.2862C71.1472 116.902 61.7505 111.003 57.3471 101.861L55.0284 97.0507C54.6115 96.1761 53.7064 95.6168 52.7301 95.6168C52.3437 95.6168 51.9775 95.6982 51.6318 95.871C50.3708 96.4812 49.8419 98.0066 50.4419 99.2677L52.7606 104.078C53.7165 106.071 54.8962 107.963 56.2691 109.722L56.4827 109.997V111.197C56.4827 118.895 55.0589 126.441 52.2623 133.61L47.208 146.556C46.964 147.187 46.9741 147.878 47.2487 148.498C47.5233 149.119 48.0216 149.597 48.6521 149.841C49.9436 150.349 51.4487 149.678 51.947 148.397L57.7335 133.57L58.4657 147.593C58.5369 148.946 59.6454 150.004 60.9979 150.004H61.1505C62.5335 149.922 63.6115 148.732 63.5403 147.329L61.8827 115.356L63.5708 116.495C68.8692 120.075 74.9912 121.966 81.276 121.966H112.405C113.808 121.966 114.947 120.827 114.947 119.424C114.947 118.02 113.808 116.881 112.405 116.881L112.415 116.902Z" fill="black"/>
<path d="M51.9572 45.3995L49.425 57.9284C48.0623 64.681 45.7436 71.1997 42.5504 77.3014C42.2351 77.9014 42.1741 78.593 42.3775 79.2336C42.5809 79.8845 43.0182 80.4133 43.6283 80.7286C44.8385 81.3693 46.425 80.8608 47.0657 79.6608C50.4928 73.1319 52.964 66.1556 54.4182 58.9352L56.9505 46.4063C57.0827 45.7453 56.9505 45.0639 56.5742 44.4944C56.1979 43.9249 55.6284 43.5385 54.9572 43.4063C54.7843 43.3758 54.6115 43.3554 54.4487 43.3554C53.9504 43.3554 53.4725 43.4978 53.0555 43.7826C52.486 44.1588 52.0996 44.7283 51.9674 45.3995H51.9572Z" fill="black"/>
<path d="M80.1065 34.1317C79.7709 35.4944 80.6048 36.8673 81.9676 37.2029L111.805 44.5249C112.456 44.6877 113.137 44.5758 113.727 44.2199C114.307 43.8639 114.724 43.3148 114.876 42.6639C115.212 41.3012 114.378 39.9181 113.015 39.5927L83.1777 32.2706C82.9743 32.2198 82.771 32.1994 82.5676 32.1994C82.1099 32.1994 81.6625 32.3215 81.2557 32.5656C80.676 32.9215 80.2692 33.4706 80.1065 34.1317Z" fill="black"/>
<path d="M9.76985 31.2199C16.2285 30.2636 16.2874 30.3526 16.9475 29.884C17.1682 29.7277 17.3218 29.5795 17.4819 29.3731C17.9763 28.7395 17.8556 28.8764 19.1205 22.2502C19.5769 19.8588 16.6828 18.2992 14.932 19.9787C14.2155 20.666 14.197 21.3731 13.9596 22.6173L8.4 16.8215C7.44418 15.8251 5.86137 15.7922 4.86496 16.748C3.86855 17.7038 3.83564 19.2866 4.79145 20.283L10.3511 26.0788C9.07511 26.2678 8.38049 26.2633 7.67434 26.9407C5.92263 28.6206 7.36288 31.5762 9.76985 31.2199Z" fill="black"/>
</svg>
