<svg width="20" height="19" viewBox="0 0 20 19" fill="none" xmlns="http://www.w3.org/2000/svg">
<g clip-path="url(#clip0_1413_5159)">
<path d="M2.11615 15.7582C2.02526 15.5745 1.80275 15.4993 1.61895 15.5902C1.57198 15.6134 1.53212 15.6453 1.50022 15.6828C1.23886 15.3678 1.08318 14.9715 1.06709 14.5536C1.05912 14.3488 0.885746 14.188 0.681934 14.1971C0.477108 14.205 0.317509 14.3775 0.325481 14.5822C0.350994 15.2442 0.627575 15.8675 1.08608 16.3296C1.01577 16.3933 0.969677 16.4836 0.964313 16.5858C0.953731 16.7906 1.11101 16.965 1.31569 16.9756L2.12239 17.0175C2.12891 17.0177 2.13529 17.0179 2.14167 17.0179C2.26604 17.0179 2.38288 16.9554 2.45159 16.8508C2.52392 16.7406 2.53262 16.6004 2.4742 16.4823L2.11615 15.7582Z" fill="black"/>
<path d="M0.681934 9.85326C0.686863 9.85355 0.691646 9.85355 0.69643 9.85355C0.894878 9.85355 1.05926 9.69671 1.06709 9.49681C1.08318 9.07889 1.23886 8.68243 1.50022 8.36744C1.53212 8.40513 1.57198 8.43702 1.61895 8.46021C1.67186 8.48645 1.72795 8.49877 1.78318 8.49877C1.91988 8.49877 2.05136 8.42296 2.11615 8.29206L2.4742 7.56799C2.53262 7.44999 2.52392 7.30982 2.45159 7.19965C2.37925 7.08963 2.25488 7.02628 2.12239 7.03295L1.31569 7.0747C1.11101 7.08528 0.953731 7.25981 0.964313 7.46449C0.969532 7.56669 1.01563 7.65729 1.08593 7.72092C0.627575 8.18305 0.350994 8.80623 0.325481 9.46811C0.317509 9.67293 0.477108 9.84543 0.681934 9.85326Z" fill="black"/>
<path d="M18.9684 14.1971C18.7649 14.1888 18.5913 14.3487 18.5833 14.5535C18.5672 14.9715 18.4115 15.3678 18.1501 15.6828C18.1183 15.6452 18.0784 15.6133 18.0314 15.5901C17.8475 15.4992 17.6251 15.5745 17.5342 15.7581L17.1762 16.4822C17.1178 16.6003 17.1263 16.7405 17.1988 16.8507C17.2675 16.9554 17.3843 17.0178 17.5087 17.0178C17.5151 17.0178 17.5216 17.0177 17.528 17.0174L18.3347 16.9755C18.5394 16.9649 18.6966 16.7905 18.6861 16.5857C18.6807 16.4835 18.6347 16.3931 18.5644 16.3294C19.0228 15.8673 19.2994 15.2441 19.3249 14.5821C19.3329 14.3774 19.1733 14.2049 18.9684 14.1971Z" fill="black"/>
<path d="M17.5342 8.29208C17.5989 8.42298 17.7304 8.49879 17.8672 8.49879C17.9224 8.49879 17.9785 8.48632 18.0313 8.46023C18.0784 8.43704 18.1183 8.40515 18.1502 8.36746C18.4115 8.68245 18.5672 9.07891 18.5833 9.49683C18.591 9.69673 18.7555 9.85357 18.9538 9.85357C18.9586 9.85357 18.9635 9.85343 18.9684 9.85328C19.1733 9.84531 19.3329 9.67295 19.3249 9.46813C19.2992 8.80625 19.0228 8.18307 18.5644 7.72094C18.6348 7.65731 18.6807 7.56671 18.6861 7.46451C18.6967 7.25983 18.5394 7.0853 18.3347 7.07472L17.528 7.03297C17.3958 7.02616 17.271 7.0895 17.1987 7.19967C17.1263 7.3097 17.1178 7.44987 17.1762 7.56801L17.5342 8.29208Z" fill="black"/>
<path d="M17.0122 9.87811C17.0122 9.87796 17.0122 9.87782 17.0122 9.87753C16.8891 8.89326 16.6473 7.97437 16.2938 7.14651C16.2935 7.14593 16.2932 7.14535 16.2929 7.14477C16.1607 6.83427 16.0094 6.52986 15.8432 6.23994C15.6725 5.94176 15.5719 5.65474 15.4653 5.35091L15.4405 5.28017C15.3602 5.052 14.9133 2.98809 14.8494 1.32179C14.8417 1.12262 14.6781 0.965046 14.4786 0.965046H8.45194C8.24697 0.965046 8.08085 1.13117 8.08085 1.33614C8.08085 1.54097 8.24697 1.70723 8.45194 1.70723H14.1265C14.2114 3.00621 14.4783 4.42057 14.6356 5.11579L11.9167 5.65895C10.5288 5.93611 9.12122 5.93611 7.73324 5.65895L5.01469 5.11622C5.18646 4.35649 5.48899 2.73803 5.54219 1.35035C5.55002 1.14552 5.39042 0.973164 5.18559 0.965336C4.98106 0.956204 4.80841 1.11711 4.80058 1.32179C4.73666 2.98577 4.29135 5.04606 4.21017 5.27973C4.21002 5.27988 4.21002 5.28002 4.21002 5.28017L4.18292 5.357C4.07666 5.6588 3.97635 5.94393 3.80689 6.23979C3.64208 6.52739 3.49089 6.8318 3.35723 7.14462C3.35723 7.14477 3.35709 7.14491 3.35709 7.14506C3.00296 7.97292 2.76102 8.8921 2.63795 9.87695C2.63795 9.87738 2.6378 9.87782 2.6378 9.87811C2.53025 10.7373 2.51097 11.6695 2.58011 12.6487C2.67796 14.0373 3.0521 16.02 4.27873 17.5809H4.27888C4.36165 17.6869 4.45022 17.7924 4.54212 17.8945C4.61547 17.9758 4.71651 18.0172 4.81798 18.0172C4.90655 18.0172 4.99526 17.9856 5.06615 17.9219C5.2185 17.7846 5.23068 17.5499 5.09355 17.3977C5.04267 17.3413 4.99309 17.2837 4.94525 17.2258C4.95569 16.651 4.93902 16.0528 4.89553 15.4451C4.72231 13.0257 4.1387 10.8519 3.39391 9.82056C3.499 9.06474 3.67933 8.35416 3.93141 7.70228C4.75304 7.83956 5.5061 8.05815 5.98533 8.30183C6.91814 8.77555 7.73251 9.4728 8.34032 10.3181C8.55994 10.6239 8.77346 10.9436 8.97524 11.2681C8.98133 11.2783 8.98785 11.2881 8.99481 11.2975C8.99481 11.2975 8.99496 11.2975 8.99496 11.2977C8.99583 11.2988 8.9967 11.3 8.99757 11.3012C8.99844 11.3023 8.99916 11.3033 9.00003 11.3044C9.00061 11.3052 9.00134 11.3059 9.00191 11.3068C9.00351 11.3088 9.0051 11.3109 9.0067 11.3128C9.00699 11.313 9.00728 11.3135 9.00757 11.3139C9.02264 11.332 9.03931 11.3486 9.05714 11.3633C9.05729 11.3635 9.05743 11.3636 9.05758 11.3636C9.06178 11.3671 9.06613 11.3706 9.07048 11.3738C9.07121 11.3744 9.07178 11.3748 9.07236 11.3752C9.07381 11.3764 9.07526 11.3774 9.07671 11.3784C9.07831 11.3796 9.08005 11.3807 9.08179 11.382C9.08237 11.3825 9.08309 11.3829 9.08367 11.3834C9.13252 11.4168 9.18964 11.4389 9.25153 11.4458C9.25153 11.4458 9.25168 11.4458 9.25168 11.446C9.25371 11.4461 9.25559 11.4464 9.25748 11.4466C9.25849 11.4466 9.25951 11.4467 9.26052 11.4468C9.26284 11.447 9.26501 11.4471 9.26733 11.4473C9.26893 11.4474 9.27052 11.4476 9.27212 11.4476C9.27313 11.4477 9.27415 11.4477 9.27516 11.4479C9.27777 11.4479 9.28038 11.448 9.28299 11.4482H9.28487C9.28763 11.4482 9.29053 11.4483 9.29343 11.4483H9.43244C9.29415 13.5112 8.16435 17.5019 8.15231 17.5445C8.09621 17.7417 8.21044 17.9469 8.40773 18.003C8.44151 18.0127 8.47572 18.0174 8.50935 18.0174C8.67112 18.0174 8.8197 17.9108 8.86609 17.7476C8.90102 17.6248 9.44549 15.7017 9.82484 13.8168C10.2042 15.7017 10.7488 17.625 10.7837 17.7478C10.8301 17.9108 10.9789 18.0174 11.1405 18.0174C11.1741 18.0174 11.2083 18.0127 11.2422 18.003C11.4394 17.9469 11.5536 17.7417 11.4975 17.5445C11.4853 17.5019 10.3552 13.5115 10.2171 11.4483H10.3529C10.4812 11.4483 10.6005 11.3819 10.6682 11.2729C10.8704 10.947 11.085 10.6258 11.3059 10.3183C12.2248 9.04068 13.8976 8.05728 15.721 7.7088C15.9717 8.35894 16.1511 9.06735 16.2559 9.8207C15.5113 10.8521 14.9275 13.0257 14.7543 15.4452C14.711 16.0529 14.6943 16.651 14.7046 17.2258C14.6567 17.2839 14.6072 17.3413 14.5564 17.3977C14.4192 17.55 14.4315 17.7846 14.5837 17.9219C14.6546 17.9858 14.7434 18.0172 14.832 18.0172C14.9335 18.0172 15.0345 17.9758 15.1079 17.8945C15.1998 17.7924 15.2883 17.6869 15.3711 17.5811C15.3711 17.5809 15.3711 17.5809 15.3711 17.5809C16.5977 16.02 16.9719 14.0373 17.0699 12.6488C17.139 11.6695 17.1196 10.7373 17.0122 9.87811ZM4.18683 16.0429C3.60236 14.8608 3.38912 13.5721 3.32041 12.5965C3.28649 12.117 3.2749 11.6501 3.28548 11.1993C3.71093 12.2691 4.03607 13.8327 4.15523 15.4981C4.16828 15.6808 4.17886 15.8626 4.18683 16.0429ZM10.7033 9.88506C10.5122 10.1509 10.326 10.4263 10.148 10.7061H9.4984C9.3201 10.426 9.13383 10.1505 8.94292 9.88492C8.26611 8.9437 7.35968 8.16745 6.32149 7.64009C5.67193 7.30988 4.82711 7.11114 4.23974 7.00329C4.30686 6.86862 4.37745 6.73686 4.4508 6.60886C4.6062 6.3375 4.711 6.0799 4.80203 5.83058L7.58799 6.38693C9.07222 6.68308 10.5776 6.68308 12.062 6.38693L14.8481 5.83029C14.939 6.07961 15.0436 6.33721 15.1992 6.60871C15.2747 6.74063 15.3469 6.87587 15.4153 7.01329C13.4756 7.42468 11.7008 8.49825 10.7033 9.88506ZM16.3296 12.5965C16.2607 13.5721 16.0476 14.8608 15.463 16.0429C15.4711 15.8626 15.4816 15.6808 15.4946 15.4981C15.6139 13.8327 15.9389 12.2691 16.3645 11.1991C16.3751 11.6501 16.3633 12.117 16.3296 12.5965Z" fill="black"/>
<path d="M9.8252 4.30054C9.62022 4.30054 9.4541 4.13428 9.4541 3.92945V3.78638C9.4541 3.58155 9.62022 3.41528 9.8252 3.41528C10.0302 3.41528 10.1963 3.58155 10.1963 3.78638V3.92945C10.1963 4.13442 10.0302 4.30054 9.8252 4.30054Z" fill="black"/>
<path d="M6.94922 1.70704C6.92516 1.70704 6.90051 1.70472 6.87688 1.69994C6.85311 1.69516 6.82977 1.68805 6.80745 1.67878C6.78484 1.6695 6.76338 1.65805 6.74323 1.64471C6.72279 1.63094 6.7038 1.61572 6.68684 1.59833C6.66974 1.58122 6.65423 1.56223 6.64089 1.54194C6.62712 1.52179 6.61596 1.50033 6.60668 1.47801C6.5974 1.45569 6.59001 1.43235 6.58523 1.40872C6.5803 1.38451 6.57812 1.3603 6.57812 1.33595C6.57812 1.31174 6.58044 1.28768 6.58523 1.26362C6.59001 1.2397 6.5974 1.21636 6.60668 1.19418C6.61596 1.17157 6.62712 1.14997 6.64046 1.12996C6.65423 1.10953 6.66974 1.09068 6.68684 1.07358C6.70395 1.05647 6.72279 1.04096 6.74323 1.02748C6.76324 1.01414 6.78484 1.00269 6.80745 0.993414C6.82977 0.984137 6.85311 0.977034 6.87688 0.97225C6.92472 0.962538 6.97372 0.962538 7.02155 0.97225C7.04533 0.977034 7.06866 0.984137 7.09099 0.993414C7.1136 1.00269 7.13506 1.01414 7.1552 1.02748C7.17564 1.04096 7.19449 1.05647 7.21159 1.07358C7.2287 1.09068 7.24421 1.10953 7.25755 1.12996C7.27088 1.14997 7.28248 1.17157 7.29176 1.19418C7.30103 1.21636 7.30843 1.2397 7.31277 1.26362C7.3177 1.28768 7.32031 1.31174 7.32031 1.33595C7.32031 1.3603 7.3177 1.38451 7.31277 1.40872C7.30843 1.43235 7.30103 1.45583 7.29176 1.47801C7.28248 1.50033 7.27088 1.52179 7.25755 1.54194C7.24421 1.56223 7.2287 1.58122 7.21159 1.59833C7.19449 1.61572 7.1755 1.63094 7.1552 1.64471C7.13506 1.65805 7.1136 1.6695 7.09099 1.67878C7.06866 1.68805 7.04533 1.69516 7.02155 1.69994C6.99778 1.70472 6.97328 1.70704 6.94922 1.70704Z" fill="black"/>
</g>
<defs>
<clipPath id="clip0_1413_5159">
<rect width="19" height="19" fill="white" transform="translate(0.325195)"/>
</clipPath>
</defs>
</svg>
