<svg width="145" height="151" viewBox="0 0 145 151" fill="none" xmlns="http://www.w3.org/2000/svg">
<g clip-path="url(#clip0_1357_5845)">
<path d="M42.6193 112.853C43.9703 112.859 45.3027 111.606 45.313 110.065V31.2973C45.3765 21.8304 51.1857 13.7206 59.0633 11.5678C86.3828 4.74784 114.197 4.06303 141.739 9.53165C143.05 9.79223 144.295 8.76326 144.519 7.23351C144.742 5.70411 143.86 4.25302 142.548 3.99244C114.395 -1.5984 85.9591 -0.895678 58.0327 6.07917C48.7417 8.31305 40.5807 18.5065 40.4949 31.2537V110.022C40.4837 111.573 41.2888 112.847 42.6193 112.853Z" fill="black"/>
<path d="M143.612 45.8444C144.666 44.8987 144.864 43.1343 144.053 41.9045C143.241 40.6746 141.729 40.4446 140.674 41.39C122.292 57.8752 102.553 46.1682 84.0874 41.9055C82.7834 41.6063 81.5145 42.5938 81.2561 44.1159C80.9977 45.6379 81.8464 47.1164 83.1517 47.4174C101.366 51.621 123.134 64.2081 143.612 45.8444Z" fill="black"/>
<path d="M79.389 47.4555C77.7359 46.9722 76.1759 46.6618 74.6625 46.5115C73.2892 41.9419 70.8741 37.8734 67.0415 34.5755C65.9708 33.6543 64.4623 33.9195 63.6723 35.1683C62.882 36.4167 63.1097 38.1755 64.1804 39.0973C84.2646 56.3787 55.5483 103.255 58.8907 121.858C59.5222 125.373 61.1756 134.388 60.202 137.759C58.4209 143.925 52.0349 145.786 47.1397 143.975C32.0416 138.389 24.3212 147.996 6.93905 143.29C4.0078 142.497 4.12104 137.509 7.11735 136.895C16.8715 134.894 30.025 132.401 37.8722 125.619C38.9411 124.695 39.1654 122.936 38.3734 121.689C37.5807 120.443 36.0718 120.181 35.003 121.105C27.9816 127.173 15.0474 129.563 6.28191 131.361C-1.87038 133.034 -2.1857 146.589 5.84973 148.764C24.2396 153.74 32.1528 144.327 45.6827 149.331C52.7481 151.946 62.0541 148.95 64.7686 139.553C66.0359 135.166 64.8472 127.6 63.6332 120.852C61.3422 108.119 78.6171 75.7394 75.8476 52.3387C76.6119 52.4799 77.3983 52.6667 78.2175 52.9058C79.4971 53.2809 80.8141 52.3808 81.1403 50.8641C81.4638 49.3585 80.6798 47.8326 79.389 47.4555Z" fill="black"/>
<path d="M99.8479 64.6007C101.016 65.3336 102.479 64.8279 103.111 63.4566C103.741 62.0898 103.301 60.3865 102.13 59.6519C101.144 59.0341 94.7088 54.9544 92.4877 53.6294C91.3029 52.9228 89.8513 53.4696 89.2453 54.8512C88.6394 56.2324 89.1083 57.9251 90.2928 58.632C93.4237 60.5 96.7344 62.6499 99.8479 64.6007Z" fill="black"/>
<path d="M126.16 72.446C126.3 70.9029 125.34 69.5203 124.016 69.3581C120.997 68.9876 117.762 68.0074 114.127 66.3618C112.886 65.7999 111.491 66.5174 111.009 67.9639C110.528 69.4104 111.143 71.0381 112.383 71.6C116.422 73.4283 120.062 74.5229 123.512 74.9461C124.824 75.1091 126.02 74.0011 126.16 72.446Z" fill="black"/>
<path d="M140.675 63.7506C139.157 65.1118 137.583 66.244 135.997 67.1153C134.794 67.7772 134.278 69.451 134.846 70.8543C135.409 72.2481 136.84 72.8634 138.052 72.1976C139.95 71.1542 141.82 69.8113 143.612 68.2053C144.666 67.2596 144.864 65.4956 144.053 64.2654C143.243 63.0356 141.73 62.8052 140.675 63.7506Z" fill="black"/>
<path d="M133.222 90.4858C128.092 86.2372 128.11 86.1192 127.339 85.9857C127.081 85.9408 126.875 85.9415 126.626 85.9843C125.86 86.1136 126.035 86.0964 120.735 90.4858C118.822 92.07 119.795 95.586 122.133 95.586C123.089 95.586 123.574 95.027 124.569 94.2027V103.227C124.569 104.779 125.648 106.037 126.978 106.037C128.309 106.037 129.388 104.779 129.388 103.227V94.2027C130.401 95.0421 130.881 95.586 131.824 95.586C134.163 95.5864 135.133 92.0693 133.222 90.4858Z" fill="black"/>
<path d="M102.909 81.241C102.355 80.4778 101.483 80.1084 100.629 80.298C100.308 80.3676 100.642 80.2404 94.6564 82.9287C93.4147 83.4864 92.7958 85.1124 93.2741 86.5603C93.7502 88.0012 95.1413 88.7321 96.3884 88.1719L97.5829 87.6353L95.6687 96.3801C95.2783 98.1627 96.4369 99.8849 98.0048 99.8849C99.0797 99.8849 100.059 99.04 100.338 97.7698L102.252 89.0256L103.079 90.1638C103.556 90.8191 104.235 91.1563 104.918 91.1563C106.943 91.1563 108.091 88.3675 106.755 86.5298L102.909 81.241Z" fill="black"/>
</g>
<defs>
<clipPath id="clip0_1357_5845">
<rect width="144.561" height="150" fill="white" transform="translate(-0.0078125 0.265625)"/>
</clipPath>
</defs>
</svg>
