<svg width="17" height="17" viewBox="0 0 17 17" fill="none" xmlns="http://www.w3.org/2000/svg">
<g clip-path="url(#clip0_1434_492)">
<path d="M15.6389 4.07666C14.7258 4.07666 13.8833 3.77416 13.2067 3.26385C12.4308 2.67885 11.8733 1.82072 11.6764 0.83166C11.6276 0.587285 11.6014 0.335098 11.5989 0.0766602H8.99044V7.20416L8.98732 11.1082C8.98732 12.152 8.30763 13.037 7.36544 13.3482C7.09201 13.4385 6.79669 13.4813 6.48919 13.4645C6.09669 13.4429 5.72888 13.3245 5.40919 13.1332C4.72888 12.7263 4.26763 11.9882 4.25513 11.1438C4.23544 9.82416 5.30232 8.74822 6.62107 8.74822C6.88138 8.74822 7.13138 8.79072 7.36544 8.86791V6.91979V6.21947C7.11857 6.18291 6.86732 6.16385 6.61326 6.16385C5.16982 6.16385 3.81982 6.76385 2.85482 7.84479C2.12544 8.66166 1.68794 9.70385 1.62044 10.7967C1.53201 12.2323 2.05732 13.597 3.07607 14.6038C3.22576 14.7517 3.38294 14.8888 3.54732 15.0154C4.42076 15.6876 5.48857 16.052 6.61326 16.052C6.86732 16.052 7.11857 16.0332 7.36544 15.9967C8.41607 15.841 9.38544 15.3601 10.1504 14.6038C11.0904 13.6748 11.6098 12.4413 11.6154 11.1285L11.602 5.29854C12.0504 5.64447 12.5408 5.93072 13.067 6.15291C13.8854 6.49822 14.7533 6.67322 15.6464 6.67291V4.77885V4.07604C15.647 4.07666 15.6395 4.07666 15.6389 4.07666Z" fill="#BF2033"/>
</g>
<defs>
<clipPath id="clip0_1434_492">
<rect width="16" height="16" fill="white" transform="translate(0.628906 0.0644531)"/>
</clipPath>
</defs>
</svg>
