<svg width="24" height="24" viewBox="0 0 24 24" fill="none" xmlns="http://www.w3.org/2000/svg">
<g clip-path="url(#clip0_1413_5399)">
<path d="M23 2V1C23 0.447 22.553 0 22 0C21.447 0 21 0.447 21 1V2H3V1C3 0.447 2.553 0 2 0C1.447 0 1 0.447 1 1V2C0.447 2 0 2.447 0 3C0 3.553 0.447 4 1 4V6C1 6.553 1.447 7 2 7C2.553 7 3 6.553 3 6V4H3.974L9 11.311V23C9 23.553 9.447 24 10 24C10.553 24 11 23.553 11 23V19H13V23C13 23.553 13.447 24 14 24C14.553 24 15 23.553 15 23V11.311L20.026 4H21V5C21 5.553 21.447 6 22 6C22.553 6 23 5.553 23 5V4C23.553 4 24 3.553 24 3C24 2.447 23.553 2 23 2ZM11 17V12H13V17H11ZM13.474 10H10.527L6.402 4H17.599L13.474 10ZM10 7C10 5.895 10.895 5 12 5C13.105 5 14 5.895 14 7C14 8.105 13.105 9 12 9C10.895 9 10 8.105 10 7Z" fill="black"/>
</g>
<defs>
<clipPath id="clip0_1413_5399">
<rect width="24" height="24" fill="white"/>
</clipPath>
</defs>
</svg>
