<svg width="132" height="300" viewBox="0 0 132 300" fill="none" xmlns="http://www.w3.org/2000/svg">
<path d="M39.0452 137.094C37.8191 139.221 38.2214 181.701 38.9015 186.165C40.8555 199.048 57.7136 224.086 62.1197 238.616C65.8745 251.001 65.5105 281.442 55.5968 291.097C38.7195 307.524 8.01098 300.302 2.69493 276.969C-5.41802 241.385 14.6872 217.467 26.3346 186.155L26.4687 137.334C26.4495 135.294 23.643 135.351 22.4936 133.608C21.0856 131.472 21.0568 110.026 22.3116 107.411C23.0683 105.821 24.6967 105.37 25.9131 104.307L26.6028 4.42307C29.5721 -1.28569 37.6659 -1.93703 38.7962 5.24682L39.3325 104.326C40.3287 105.476 42.4839 105.83 43.1735 107.19C45.8651 112.564 42.5509 126.826 43.4513 133.34C42.7137 135.849 39.4666 136.395 39.0644 137.094H39.0452ZM50.3286 241.298L32.6085 201.059L14.8883 241.298H50.3286ZM52.2443 253.75H12.9726V273.386C12.9726 274.028 15.7025 279.516 16.3826 280.513C23.9208 291.49 41.7272 292.294 49.2079 280.896C49.7539 280.062 52.2347 274.766 52.2347 274.344V253.75H52.2443Z" fill="black"/>
<path d="M106.004 104.903C106.541 105.823 109.903 105.957 110.564 109.434C111.225 112.911 111.052 126.464 110.65 130.535C110.209 134.999 109.156 134.951 105.784 137.384C107.47 152.489 103.552 172.431 105.861 186.933C108.169 201.435 127.307 226.722 130.276 242.977C131.445 249.394 131.368 265.515 130.698 272.229C128.198 297.411 97.1923 308.043 78.4855 291.894C76.9338 290.553 72.3362 285.86 71.8572 284.231C71.5028 283.024 73.8591 276.444 74.0794 274.04C74.4817 269.653 75.1714 261.971 75.1522 257.871C75.1235 251.272 71.9339 239.414 72.317 234.04C72.8821 226.052 88.4088 199.519 91.8954 189.376C96.4164 176.224 91.5314 153.524 93.3609 139.098C86.359 133.533 86.8954 122.652 87.5659 114.166C88.0736 107.738 88.9165 107.011 93.4279 102.739L93.5524 4.25281C96.5122 -1.47511 104.836 -0.680096 105.746 6.02483L106.004 104.913V104.903ZM81.8476 241.109H117.288L98.6195 201.828L81.8476 241.109ZM78.974 273.197C78.974 273.829 81.7039 279.337 82.3935 280.314C89.769 290.927 106.732 291.223 114.922 281.358C121.991 272.833 117.767 264.806 119.922 254.95C119.405 253.494 118.121 253.628 116.857 253.503C104.769 252.364 91.1195 254.27 78.974 254.509V273.197Z" fill="black"/>
</svg>
