<svg width="280" height="300" viewBox="0 0 280 300" fill="none" xmlns="http://www.w3.org/2000/svg">
<path d="M0 166.667C0 162.985 2.98477 160 6.66667 160C10.3486 160 13.3333 162.985 13.3333 166.667V186.667C13.3333 190.349 10.3486 193.333 6.66667 193.333C2.98477 193.333 0 190.349 0 186.667V166.667Z" fill="black"/>
<path d="M140 60C156.542 60 170 46.542 170 30C170 13.458 156.542 0 140 0C123.458 0 110 13.458 110 30C110 46.542 123.458 60 140 60Z" fill="black"/>
<path d="M266.667 166.667C266.667 162.985 269.651 160 273.333 160C277.015 160 280 162.985 280 166.667V186.667C280 190.349 277.015 193.333 273.333 193.333C269.651 193.333 266.667 190.349 266.667 186.667V166.667Z" fill="black"/>
<path d="M240 173.333H200V108.445C200 85.4078 181.259 66.6665 158.222 66.6665H121.777C98.7413 66.6665 80 85.4078 80 108.445V173.333H40V146.666H30C24.4772 146.666 20 151.144 20 156.666V196.666C20 202.189 24.4772 206.666 30 206.666H40V180H110V286.666C110 294.018 115.981 300 123.333 300C130.685 300 136.667 294.018 136.667 286.666V230C136.667 228.158 138.159 226.666 140 226.666C141.841 226.666 143.333 228.158 143.333 230V286.666C143.333 294.018 149.315 300 156.667 300C164.019 300 170 294.018 170 286.666V180H240V206.666H250C255.523 206.666 260 202.189 260 196.666V156.666C260 151.144 255.523 146.666 250 146.666H240V173.333ZM110 173.333H103.333V136.666C103.333 134.826 104.826 133.333 106.667 133.333C108.507 133.333 110 134.826 110 136.666V173.333ZM176.667 173.333H170V136.666C170 134.826 171.492 133.333 173.333 133.333C175.175 133.333 176.667 134.826 176.667 136.666V173.333Z" fill="black"/>
</svg>
