<svg width="97" height="89" viewBox="0 0 97 89" fill="none" xmlns="http://www.w3.org/2000/svg">
<path d="M94.9808 1.16952C95.48 1.3851 95.8204 1.71414 96.0019 2.16799C96.1835 2.61049 96.1665 3.07568 95.9566 3.57491C95.6219 4.28972 95.1737 4.95348 94.6177 5.57184C93.5285 6.87665 92.3031 8.07935 90.9416 9.17993C84.0714 14.9324 76.4922 19.5844 68.2038 23.1357C67.8237 23.3059 67.4436 23.4761 67.0692 23.6577C66.4905 23.93 65.9232 24.1909 65.3673 24.4292C65.1971 24.5086 65.0382 24.4973 64.8907 24.4065C64.7375 24.3157 64.6298 24.1909 64.573 24.0207C64.556 23.93 64.5787 23.8278 64.6411 23.703C64.6978 23.5669 64.7659 23.4704 64.8453 23.408C65.5261 23.0166 66.2409 22.6478 67.0011 22.2961C75.2725 18.4271 82.8744 13.4858 89.8069 7.478C90.6522 6.69511 91.4691 5.88954 92.2577 5.07261C92.3485 4.95348 92.4506 4.84001 92.5754 4.73223C92.9839 4.32376 93.2392 3.82453 93.3469 3.23453C93.4377 2.88847 93.3129 2.62184 92.9839 2.4403C92.6038 2.27578 92.2123 2.20203 91.8039 2.21337C91.7244 2.21337 91.645 2.2077 91.5542 2.19068C89.875 2.11693 88.2071 2.17934 86.5619 2.37222C84.9111 2.57078 83.2772 2.83741 81.6604 3.16645C77.9672 3.98338 74.3081 4.93646 70.6773 6.02569C67.0578 7.10358 63.4611 8.24387 59.8757 9.45224C49.2387 13.0546 38.8626 17.2584 28.7418 22.0692C25.1394 23.7654 21.5767 25.5411 18.0537 27.4019C14.542 29.2627 11.0928 31.2482 7.70597 33.3473C6.78126 33.9543 5.86789 34.5613 4.9602 35.1627C4.46097 35.4804 3.95039 35.8151 3.41712 36.1611C3.34337 36.1952 3.28096 36.2462 3.23558 36.32C2.90654 36.5469 2.55481 36.7455 2.19173 36.91C1.99885 37.0178 1.79461 37.0802 1.57904 37.0915C1.36913 37.0915 1.20461 37.0178 1.0798 36.8646C0.932304 36.6547 0.898266 36.4561 0.989035 36.2746C1.0798 36.0931 1.21596 35.9456 1.3975 35.8208C1.41452 35.7924 1.4599 35.7527 1.53365 35.7073C2.3676 35.0889 3.24692 34.4592 4.16597 33.8238C7.08193 31.8723 10.0773 30.0342 13.1521 28.3096C16.2383 26.585 19.3755 24.9454 22.5695 23.3853C35.3226 17.0485 48.4501 11.6534 61.9634 7.20569C65.2311 6.13348 68.4988 5.12934 71.7665 4.18761C75.0342 3.23453 78.353 2.41193 81.7285 1.71414C82.6929 1.54962 83.6686 1.37376 84.6558 1.19222C85.1096 1.11847 85.5691 1.03337 86.04 0.942601C88.1107 0.70433 90.204 0.602215 92.3258 0.6476C93.2335 0.66462 94.1185 0.840484 94.9808 1.16952ZM48.053 46.1685C48.2459 46.1855 48.4388 46.2309 48.6203 46.3046C48.8132 46.367 48.9493 46.4521 49.0288 46.5542C49.1195 46.662 49.1309 46.7698 49.0741 46.8719C48.9834 47.0705 48.8472 47.1896 48.6657 47.235C48.4955 47.2804 48.331 47.3144 48.1665 47.3258C48.1211 47.3428 48.0814 47.3485 48.053 47.3485C45.086 47.7002 42.1133 48.1881 39.1349 48.8235C37.5578 49.1582 35.9693 49.4702 34.3695 49.7539C33.8362 49.8333 33.5072 50.1567 33.371 50.7296C33.2803 51.1381 33.1555 51.5693 33.008 52.0231C32.9285 52.2841 32.8605 52.5394 32.8037 52.7946C32.5144 53.7477 32.2478 54.6724 32.0095 55.5631C29.8424 63.3863 27.5391 71.1641 25.0883 78.9136C24.3905 81.0466 23.619 83.1627 22.7737 85.2674C22.7737 85.2788 22.7737 85.3128 22.7737 85.3582C22.5127 86.039 22.161 86.7027 21.7072 87.3551C21.3441 87.9451 20.7881 88.1947 20.0506 88.104C19.835 88.0699 19.6478 87.9905 19.4833 87.8543C19.3301 87.7295 19.245 87.565 19.2337 87.3551C19.1997 86.8672 19.2337 86.385 19.3245 85.9028C19.3812 85.5511 19.4493 85.1993 19.5287 84.8363C19.8577 82.9414 20.2208 81.058 20.6179 79.1859C22.4447 70.8805 24.7536 62.7112 27.5391 54.6781C27.8114 53.9066 28.1348 53.1464 28.5149 52.3862C28.617 52.2046 28.7702 52.0855 28.9687 52.0231C29.1616 51.9664 29.3658 51.9664 29.5814 52.0231C29.9445 52.0685 30.1033 52.3124 30.0579 52.7493C30.0126 53.1747 29.8878 53.674 29.6949 54.247C29.4963 54.8086 29.2978 55.3135 29.1049 55.7673C28.9347 56.1474 28.8212 56.4254 28.7645 56.607C25.9336 65.2641 24.3735 70.2961 24.0899 71.7201C23.9651 72.2023 23.914 72.5257 23.931 72.6958C23.9594 72.8604 24.0331 72.9228 24.1579 72.8774C24.2771 72.8434 24.3962 72.7526 24.521 72.6051C24.6401 72.4689 24.7479 72.3158 24.8387 72.1512C24.9408 71.9981 25.0202 71.8903 25.0656 71.8335C25.1848 71.4081 25.3039 70.9712 25.4287 70.5174C25.8655 69.0197 26.3137 67.5106 26.7676 66.0016C26.8867 65.5648 27.0172 65.1336 27.1533 64.7081C28.0894 61.4575 29.0141 58.2124 29.9218 54.9731C29.9672 54.854 30.0353 54.6724 30.126 54.4285C30.2905 53.9633 30.4664 53.4187 30.648 52.7946C30.8295 52.1593 30.9203 51.609 30.9203 51.1381C30.9316 50.6559 30.7841 50.4233 30.4664 50.4346C29.8424 50.5141 29.207 50.5878 28.5603 50.6616C28.1348 50.707 27.7093 50.7637 27.2895 50.8204C26.9548 50.8544 26.5917 50.8885 26.2002 50.9339C24.9578 51.087 23.7268 51.2175 22.5014 51.3196C22.1837 51.3367 21.866 51.2913 21.5483 51.1835C21.5143 51.1721 21.4859 51.1268 21.4575 51.0473C21.4405 50.9736 21.4178 50.8998 21.3895 50.8204C21.3724 50.792 21.3668 50.7637 21.3668 50.7296C21.3668 50.7013 21.3724 50.6729 21.3895 50.6389C21.4178 50.6105 21.4462 50.5878 21.4802 50.5708C21.6277 50.4233 21.7866 50.3325 21.9568 50.2985C22.1213 50.2531 22.2972 50.2191 22.4787 50.185C22.5241 50.185 22.5695 50.185 22.6149 50.185C23.307 50.0659 24.0048 49.9524 24.7026 49.8446C26.4839 49.5156 28.2766 49.2263 30.0806 48.9823C30.699 48.9086 31.1699 48.727 31.4876 48.4377C31.8053 48.137 32.0322 47.6889 32.1683 47.0989C32.7867 44.6821 33.4051 42.2597 34.0291 39.8373C34.7099 37.2674 35.3793 34.7032 36.0487 32.1446C36.548 30.1647 37.0018 28.1905 37.4103 26.2219C37.6485 25.1951 37.8925 24.1342 38.1364 23.045C38.1364 23.0166 38.1421 22.9882 38.1591 22.9542C38.2499 22.5003 38.386 22.0692 38.5676 21.6607C38.6867 21.4792 38.8456 21.3771 39.0441 21.343C39.237 21.2976 39.4412 21.2863 39.6568 21.2976C39.8213 21.3601 39.9575 21.4508 40.0653 21.57C40.1844 21.6777 40.2525 21.8139 40.2695 21.9784C40.2525 22.6308 40.2014 23.2719 40.1107 23.9073C39.532 27.0558 38.8456 30.1647 38.0457 33.2338C37.9833 33.3133 37.9435 33.404 37.9322 33.5061C37.2174 36.3824 36.4629 39.2416 35.663 42.0839C35.3112 43.417 34.9652 44.7332 34.6191 46.0323C34.6191 46.0664 34.6191 46.0777 34.6191 46.0777C34.5113 46.4578 34.4149 46.8492 34.3241 47.2577C34.2333 47.6378 34.256 47.8931 34.3922 48.0293C34.5397 48.1654 34.829 48.2108 35.2545 48.1654C35.8105 48.0917 36.3664 47.9952 36.911 47.8704C37.1493 47.842 37.3989 47.8137 37.6599 47.7796C37.7166 47.7796 37.7563 47.7569 37.7734 47.7116C40.9503 47.2123 44.1272 46.7301 47.3041 46.2592C47.5424 46.2025 47.792 46.1685 48.053 46.1685Z" fill="white"/>
<path d="M58.0351 51.5517C57.4565 52.4311 56.7473 53.2537 55.902 54.0252C55.0681 54.7968 54.0867 55.3754 52.952 55.7498C51.8174 56.1299 50.9041 56.1583 50.2063 55.8406C49.5141 55.5116 49.2702 54.6266 49.4801 53.1856C49.8318 51.6879 50.3765 50.2356 51.114 48.8287C51.2671 48.511 51.5111 48.2784 51.8628 48.1252C52.1465 48.0344 52.4074 48.0571 52.6343 48.1933C52.8613 48.3294 52.9577 48.5223 52.9293 48.7606C52.8045 49.2144 52.657 49.691 52.4755 50.1902C52.294 50.6781 52.1692 50.9958 52.1124 51.1433C51.7947 51.9942 51.5962 52.8792 51.5224 53.7983C51.5792 54.2975 52.2542 54.2465 53.542 53.6394C54.8412 53.0211 56.0609 52.0453 57.1955 50.7121C58.3301 49.3846 58.8974 48.9648 58.8974 49.464C58.9088 49.9633 58.6251 50.6611 58.0351 51.5517ZM53.9959 45.5837C53.9335 45.629 53.803 45.6971 53.6101 45.7879C53.4116 45.8787 53.2017 45.9581 52.9747 46.0148C52.7592 46.0772 52.589 46.0715 52.4528 45.9921C52.3167 45.9013 52.294 45.7085 52.3847 45.4021C52.5039 44.8291 52.657 44.3299 52.8386 43.9044C53.0201 43.4846 53.2527 43.0081 53.542 42.4748C53.7519 42.2479 53.9845 42.1117 54.2455 42.0663C54.5008 42.021 54.7277 42.0663 54.9263 42.2025C55.1192 42.3273 55.1986 42.5315 55.1532 42.8152C55 43.859 54.6143 44.7837 53.9959 45.5837Z" fill="white"/>
<path d="M69.6091 48.9663C68.1568 51.1618 66.6704 52.8353 65.1614 53.9813C63.6637 55.1329 61.9618 55.6549 60.0556 55.5471C58.1494 55.445 57.2361 54.2877 57.3098 52.0751C57.4176 50.9746 57.6048 49.8683 57.8771 48.7621C58.5579 46.2546 59.2614 43.7471 59.9875 41.2509C60.2144 40.3319 60.4527 39.4071 60.7137 38.4824C60.7874 38.3179 60.8498 38.1307 60.8952 37.9151C60.9973 37.5861 61.0994 37.2457 61.1902 36.894C61.3264 36.304 61.0654 36.0316 60.4187 36.077C60.0556 36.1224 59.6925 36.1678 59.3294 36.2132C59.1593 36.2302 58.9777 36.2529 58.7848 36.2813C58.6033 36.3267 58.4161 36.3834 58.2175 36.4401C57.8885 36.5025 57.5594 36.5536 57.2417 36.599C56.9241 36.633 56.6177 36.5763 56.3114 36.4401C56.2206 36.4401 56.1525 36.4061 56.1071 36.3267C56.0504 36.2529 56.0164 36.1791 56.0164 36.0997C56.0334 36.043 56.0731 35.9749 56.1298 35.8955C56.1752 35.8217 56.2376 35.7593 56.3114 35.714C56.5837 35.5948 56.873 35.487 57.1737 35.3963C57.9339 35.2771 58.7054 35.158 59.4883 35.0332C59.789 34.9878 60.0556 34.9538 60.2825 34.9197C60.7818 34.863 61.1505 34.8006 61.3944 34.7382C61.6497 34.6644 61.8369 34.5056 61.9618 34.2616C62.0809 34.0234 62.2114 33.649 62.3475 33.1497C62.4383 32.8944 62.5518 32.5994 62.6879 32.2647C63.0056 31.3457 63.3063 30.3926 63.5956 29.4055C63.7318 28.9516 63.8736 28.5318 64.0268 28.1347C64.1459 27.7149 64.3728 27.3745 64.7075 27.1136C65.0366 26.9207 65.3486 26.9036 65.6379 27.0682C65.7117 27.1022 65.7741 27.176 65.8195 27.2951C65.8762 27.4029 65.9159 27.4993 65.9329 27.5901C65.9783 28.078 65.9102 28.5659 65.7287 29.0651C65.6833 29.1899 65.6379 29.3147 65.5925 29.4509C65.4847 29.9388 65.3543 30.421 65.2068 30.9032C64.9458 31.7995 64.7075 32.7186 64.4806 33.6716C64.4182 33.8418 64.4352 33.9837 64.526 34.1028C64.6281 34.2276 64.7643 34.2787 64.9345 34.2616C65.8422 34.1879 66.7158 34.0971 67.5668 33.9893C68.0206 33.9326 68.4631 33.8759 68.9056 33.8305C70.2955 33.683 70.8685 33.8021 70.6302 34.1936C70.4941 34.4375 70.3125 34.5907 70.0856 34.6474C69.8587 34.6928 69.6318 34.7155 69.4049 34.7155C69.2687 34.7325 69.1212 34.7495 68.9737 34.7609C67.5668 35.0218 66.1712 35.2374 64.7983 35.419C64.1629 35.4984 63.7601 35.8444 63.5956 36.4628C63.4424 37.0528 63.2893 37.6371 63.1418 38.2101C62.9148 38.9817 62.6936 39.7305 62.4837 40.4567C62.2851 41.1374 62.0866 41.8409 61.8937 42.567C61.3774 44.3257 60.8952 46.1071 60.4414 47.9224C60.135 49.0741 59.9421 50.2484 59.8514 51.4398C59.5791 53.6069 60.4868 54.316 62.5744 53.5728C64.6451 52.8183 66.6931 51.0256 68.7241 48.1948C69.6431 47.4232 69.9381 47.6842 69.6091 48.9663Z" fill="white"/>
<path d="M82.2449 46.9534C82.5625 47.0782 82.6363 47.4867 82.4718 48.1788C82.1371 48.6951 81.791 49.1943 81.4279 49.6765C81.0649 50.1474 80.6564 50.5785 80.2025 50.97C80.1572 50.97 80.1345 50.9813 80.1345 50.9927C79.8451 51.282 79.5274 51.5146 79.1814 51.6961C76.2881 53.1484 74.6713 52.6946 74.3252 50.3346C73.219 51.5486 72.4701 52.3031 72.0787 52.6038C71.154 53.3186 70.1044 53.7044 68.9244 53.7611C68.0621 53.8235 67.4494 53.6363 67.0864 53.1938C66.7233 52.757 66.6779 52.1159 66.9502 51.265C67.3473 49.9204 67.9941 48.6894 68.9017 47.5661C69.9569 46.3294 71.1937 45.2742 72.6006 44.4119C73.3268 43.9297 74.1267 43.68 75.006 43.663C75.8683 43.6063 76.4356 44.0375 76.7079 44.9565C76.8441 45.2175 76.8044 45.4671 76.5945 45.7053C76.3675 45.9947 76.0555 46.0911 75.6641 46.0003C75.647 46.0003 75.6187 46.0003 75.5733 46.0003C75.5279 45.989 75.4882 45.972 75.4598 45.955C75.0344 45.4898 74.6316 45.3196 74.2571 45.4557C73.8941 45.5805 73.514 45.7904 73.1225 46.0911C71.3185 47.4527 70.0647 49.2113 69.3556 51.3557C69.3272 51.4635 69.3102 51.5713 69.3102 51.6734C69.2989 51.7812 69.3329 51.855 69.4237 51.9004C69.679 51.9457 69.9342 51.9004 70.1952 51.7642C70.4505 51.628 70.7058 51.4408 70.9667 51.1969C71.222 50.9416 71.4263 50.7374 71.5794 50.5842C71.6078 50.5558 71.6248 50.5388 71.6248 50.5388C72.4531 49.6652 73.2644 48.7631 74.0529 47.8384C74.382 47.3846 74.8471 47.0896 75.4371 46.9534C76.2654 46.8513 76.6512 47.1803 76.5945 47.9519C76.5491 48.2412 76.5094 48.5362 76.481 48.8369C76.2995 50.0623 76.3675 50.7657 76.6852 50.9473C77.0029 51.1175 77.4624 51.0607 78.0695 50.7884C78.6708 50.5048 79.2551 50.0339 79.8168 49.3815C80.3727 48.7178 80.8379 48.1107 81.201 47.5661C81.5754 47.0215 81.9272 46.8173 82.2449 46.9534Z" fill="white"/>
<path d="M90.2838 46.6087C90.6582 46.1435 90.9873 45.8712 91.2596 45.7918C91.5319 45.701 91.7134 45.7237 91.8042 45.8599C91.9063 45.9847 91.8836 46.1719 91.7361 46.4272C90.766 47.9135 89.6484 49.2184 88.3776 50.353C87.1182 51.4876 85.7737 52.2251 84.3384 52.5541C82.9145 52.8888 81.9444 52.1911 81.4111 50.4664C80.9743 48.7759 81.604 45.1281 83.2946 39.5287C84.9851 33.918 86.3013 29.3342 87.243 25.7771C87.3338 25.4765 87.4756 25.1871 87.6742 24.9148C87.9465 24.5688 88.2982 24.4553 88.7407 24.5745C88.8882 24.6198 89.0414 24.7106 89.1946 24.8468C89.3591 24.9716 89.4328 25.1985 89.4215 25.5275C85.1213 40.4591 83.1414 48.5376 83.4761 49.763C83.8051 50.977 84.6391 51.1812 85.9723 50.3757C87.3168 49.5758 88.3323 48.8042 89.013 48.061C89.7051 47.3235 90.1306 46.8357 90.2838 46.6087Z" fill="white"/>
</svg>
