<svg width="97" height="89" viewBox="0 0 97 89" fill="none" xmlns="http://www.w3.org/2000/svg">
<path d="M94.9808 1.16965C95.48 1.38522 95.8204 1.71426 96.0019 2.16811C96.1835 2.61061 96.1665 3.0758 95.9566 3.57504C95.6218 4.28985 95.1737 4.9536 94.6177 5.57196C93.5285 6.87677 92.3031 8.07947 90.9416 9.18005C84.0714 14.9326 76.4922 19.5845 68.2038 23.1359C67.8237 23.306 67.4436 23.4762 67.0692 23.6578C66.4905 23.9301 65.9232 24.191 65.3673 24.4293C65.1971 24.5087 65.0382 24.4974 64.8907 24.4066C64.7375 24.3159 64.6298 24.191 64.573 24.0209C64.556 23.9301 64.5787 23.828 64.6411 23.7032C64.6978 23.567 64.7659 23.4706 64.8453 23.4082C65.5261 23.0167 66.2409 22.648 67.0011 22.2962C75.2725 18.4272 82.8744 13.4859 89.8069 7.47812C90.6522 6.69524 91.4691 5.88966 92.2577 5.07273C92.3485 4.9536 92.4506 4.84014 92.5754 4.73235C92.9839 4.32388 93.2392 3.82465 93.3469 3.23465C93.4377 2.88859 93.3129 2.62196 92.9839 2.44042C92.6038 2.2759 92.2123 2.20215 91.8039 2.2135C91.7244 2.2135 91.645 2.20782 91.5542 2.1908C89.875 2.11705 88.2071 2.17946 86.5619 2.37234C84.9111 2.5709 83.2772 2.83753 81.6604 3.16657C77.9672 3.9835 74.3081 4.93658 70.6773 6.02581C67.0578 7.1037 63.4611 8.24399 59.8757 9.45236C49.2387 13.0548 38.8626 17.2585 28.7418 22.0693C25.1394 23.7656 21.5767 25.5412 18.0537 27.402C14.542 29.2628 11.0928 31.2484 7.70597 33.3474C6.78126 33.9544 5.86789 34.5615 4.9602 35.1628C4.46097 35.4805 3.95039 35.8152 3.41712 36.1613C3.34337 36.1953 3.28096 36.2464 3.23558 36.3201C2.90654 36.547 2.55481 36.7456 2.19173 36.9101C1.99885 37.0179 1.79461 37.0803 1.57904 37.0917C1.36913 37.0917 1.20461 37.0179 1.0798 36.8647C0.932304 36.6548 0.898266 36.4563 0.989035 36.2747C1.0798 36.0932 1.21596 35.9457 1.3975 35.8209C1.41452 35.7925 1.4599 35.7528 1.53365 35.7074C2.3676 35.0891 3.24692 34.4593 4.16597 33.824C7.08193 31.8724 10.0773 30.0343 13.1521 28.3097C16.2383 26.5851 19.3755 24.9456 22.5695 23.3855C35.3226 17.0486 48.4501 11.6535 61.9634 7.20581C65.2311 6.1336 68.4988 5.12946 71.7665 4.18773C75.0342 3.23465 78.353 2.41205 81.7285 1.71426C82.6929 1.54974 83.6686 1.37388 84.6558 1.19234C85.1096 1.11859 85.5691 1.03349 86.04 0.942723C88.1107 0.704452 90.204 0.602337 92.3258 0.647722C93.2335 0.664742 94.1185 0.840606 94.9808 1.16965ZM48.053 46.1686C48.2459 46.1856 48.4388 46.231 48.6203 46.3048C48.8132 46.3672 48.9493 46.4523 49.0288 46.5544C49.1195 46.6622 49.1309 46.7699 49.0741 46.8721C48.9834 47.0706 48.8472 47.1898 48.6657 47.2351C48.4955 47.2805 48.331 47.3146 48.1665 47.3259C48.1211 47.3429 48.0814 47.3486 48.053 47.3486C45.086 47.7003 42.1133 48.1882 39.1349 48.8236C37.5578 49.1583 35.9693 49.4703 34.3695 49.754C33.8362 49.8334 33.5072 50.1568 33.371 50.7298C33.2803 51.1382 33.1555 51.5694 33.008 52.0232C32.9285 52.2842 32.8605 52.5395 32.8037 52.7948C32.5144 53.7478 32.2478 54.6726 32.0095 55.5632C29.8424 63.3864 27.5391 71.1642 25.0883 78.9137C24.3905 81.0468 23.619 83.1628 22.7737 85.2675C22.7737 85.2789 22.7737 85.3129 22.7737 85.3583C22.5127 86.0391 22.161 86.7028 21.7072 87.3552C21.3441 87.9452 20.7881 88.1949 20.0506 88.1041C19.835 88.07 19.6478 87.9906 19.4833 87.8545C19.3301 87.7297 19.245 87.5651 19.2337 87.3552C19.1997 86.8674 19.2337 86.3851 19.3245 85.9029C19.3812 85.5512 19.4493 85.1995 19.5287 84.8364C19.8577 82.9416 20.2208 81.0581 20.6179 79.186C22.4447 70.8806 24.7536 62.7113 27.5391 54.6782C27.8114 53.9067 28.1348 53.1465 28.5149 52.3863C28.617 52.2048 28.7702 52.0856 28.9687 52.0232C29.1616 51.9665 29.3658 51.9665 29.5814 52.0232C29.9445 52.0686 30.1033 52.3126 30.0579 52.7494C30.0126 53.1749 29.8878 53.6741 29.6949 54.2471C29.4963 54.8087 29.2978 55.3136 29.1049 55.7675C28.9347 56.1476 28.8212 56.4255 28.7645 56.6071C25.9336 65.2642 24.3735 70.2963 24.0899 71.7202C23.965 72.2024 23.914 72.5258 23.931 72.696C23.9594 72.8605 24.0331 72.9229 24.1579 72.8775C24.2771 72.8435 24.3962 72.7527 24.521 72.6052C24.6401 72.469 24.7479 72.3159 24.8387 72.1514C24.9408 71.9982 25.0202 71.8904 25.0656 71.8337C25.1848 71.4082 25.3039 70.9714 25.4287 70.5175C25.8655 69.0198 26.3137 67.5108 26.7676 66.0017C26.8867 65.5649 27.0172 65.1337 27.1533 64.7083C28.0894 61.4576 29.0141 58.2126 29.9218 54.9732C29.9672 54.8541 30.0353 54.6726 30.126 54.4286C30.2905 53.9634 30.4664 53.4188 30.648 52.7948C30.8295 52.1594 30.9203 51.6091 30.9203 51.1382C30.9316 50.656 30.7841 50.4234 30.4664 50.4348C29.8424 50.5142 29.207 50.5879 28.5603 50.6617C28.1348 50.7071 27.7093 50.7638 27.2895 50.8205C26.9548 50.8546 26.5917 50.8886 26.2002 50.934C24.9578 51.0872 23.7268 51.2177 22.5014 51.3198C22.1837 51.3368 21.866 51.2914 21.5483 51.1836C21.5143 51.1723 21.4859 51.1269 21.4575 51.0475C21.4405 50.9737 21.4178 50.9 21.3895 50.8205C21.3724 50.7922 21.3668 50.7638 21.3668 50.7298C21.3668 50.7014 21.3724 50.673 21.3895 50.639C21.4178 50.6106 21.4462 50.5879 21.4802 50.5709C21.6277 50.4234 21.7866 50.3326 21.9568 50.2986C22.1213 50.2532 22.2972 50.2192 22.4787 50.1851C22.5241 50.1851 22.5695 50.1851 22.6149 50.1851C23.307 50.066 24.0048 49.9526 24.7026 49.8448C26.4839 49.5157 28.2766 49.2264 30.0806 48.9825C30.699 48.9087 31.1699 48.7272 31.4876 48.4378C31.8053 48.1372 32.0322 47.689 32.1683 47.099C32.7867 44.6823 33.4051 42.2598 34.0291 39.8374C34.7099 37.2675 35.3793 34.7033 36.0487 32.1447C36.548 30.1648 37.0018 28.1906 37.4103 26.222C37.6485 25.1952 37.8925 24.1343 38.1364 23.0451C38.1364 23.0167 38.1421 22.9884 38.1591 22.9543C38.2499 22.5005 38.386 22.0693 38.5676 21.6608C38.6867 21.4793 38.8456 21.3772 39.0441 21.3432C39.237 21.2978 39.4412 21.2864 39.6568 21.2978C39.8213 21.3602 39.9575 21.4509 40.0653 21.5701C40.1844 21.6779 40.2525 21.814 40.2695 21.9785C40.2525 22.6309 40.2014 23.272 40.1107 23.9074C39.532 27.056 38.8456 30.1648 38.0457 33.234C37.9833 33.3134 37.9435 33.4041 37.9322 33.5063C37.2174 36.3825 36.4629 39.2418 35.663 42.084C35.3112 43.4172 34.9652 44.7333 34.6191 46.0324C34.6191 46.0665 34.6191 46.0778 34.6191 46.0778C34.5113 46.4579 34.4149 46.8494 34.3241 47.2578C34.2333 47.6379 34.256 47.8932 34.3922 48.0294C34.5397 48.1655 34.829 48.2109 35.2545 48.1655C35.8105 48.0918 36.3664 47.9953 36.911 47.8705C37.1493 47.8422 37.3989 47.8138 37.6599 47.7798C37.7166 47.7798 37.7563 47.7571 37.7734 47.7117C40.9503 47.2124 44.1272 46.7302 47.3041 46.2594C47.5424 46.2026 47.792 46.1686 48.053 46.1686Z" fill="white"/>
</svg>
