<svg width="151" height="150" viewBox="0 0 151 150" fill="none" xmlns="http://www.w3.org/2000/svg">
<g clip-path="url(#clip0_1413_5039)">
<path fill-rule="evenodd" clip-rule="evenodd" d="M91.8326 101.354C98.1903 101.354 103.342 100.051 107.141 97.486C110.552 95.1834 112.755 91.8052 113.344 87.9737C113.435 87.3754 113.29 86.7801 112.933 86.2936C112.577 85.8071 112.051 85.4868 111.452 85.3961C110.22 85.2088 109.062 86.0549 108.875 87.2877C108.473 89.8955 106.999 92.1285 104.608 93.7421C101.013 96.1715 93.6336 98.4166 78.9058 95.3073L77.1079 94.9266V76.6906L79.7972 77.2013C84.1877 78.0353 88.2368 78.4614 91.8326 78.4614C98.1903 78.4614 103.339 77.159 107.141 74.5936C110.552 72.2911 112.755 68.9128 113.344 65.0813C113.435 64.483 113.29 63.8877 112.933 63.4012C112.577 62.9147 112.051 62.5944 111.452 62.5038C110.857 62.4101 110.259 62.5582 109.772 62.9147C109.286 63.2713 108.966 63.7971 108.875 64.3923C108.473 67.0001 106.999 69.2331 104.608 70.8467C101.013 73.2761 93.6336 75.5182 78.9058 72.4119L77.1079 72.0312V59.3038C77.1079 58.0558 76.0926 57.0436 74.8477 57.0436C73.6027 57.0436 72.5874 58.0589 72.5874 59.3038V72.3787L70.7472 72.7322C63.1718 74.1826 52.8407 75.0317 46.6401 70.8467C44.25 69.2331 42.7754 67.0001 42.3735 64.3923C42.1831 63.1595 41.0258 62.3134 39.793 62.5008C39.1977 62.5914 38.6719 62.9117 38.3154 63.3982C37.9588 63.8847 37.8138 64.483 37.9044 65.0783C38.4937 68.9098 40.6965 72.288 44.108 74.5906C47.9062 77.156 53.0552 78.4583 59.4159 78.4583C62.5766 78.4583 66.118 78.126 69.9374 77.4702L72.5874 77.017V95.2741L70.7472 95.6276C63.1718 97.078 52.8376 97.9301 46.6401 93.7421C44.25 92.1285 42.7754 89.8955 42.3735 87.2877C42.1831 86.0579 41.0258 85.2088 39.793 85.3961C39.1977 85.4868 38.6719 85.8071 38.3154 86.2936C37.9588 86.7801 37.8108 87.3784 37.9044 87.9737C38.4937 91.8052 40.6965 95.1834 44.108 97.486C47.9062 100.051 53.0552 101.354 59.4159 101.354C62.5766 101.354 66.118 101.021 69.9374 100.366L72.5874 99.9124V106.388C72.5874 107.636 73.6027 108.648 74.8477 108.648C76.0926 108.648 77.1079 107.633 77.1079 106.388V99.583L79.7972 100.094C84.1908 100.928 88.2368 101.354 91.8296 101.354H91.8326Z" fill="black"/>
<path d="M29.3833 23.1462C30.6316 23.1462 31.6435 22.1342 31.6435 20.8859C31.6435 19.6377 30.6316 18.6257 29.3833 18.6257C28.135 18.6257 27.123 19.6377 27.123 20.8859C27.123 22.1342 28.135 23.1462 29.3833 23.1462Z" fill="black"/>
<path fill-rule="evenodd" clip-rule="evenodd" d="M149.988 2.05174C149.931 1.45042 149.644 0.906515 149.178 0.519738C148.713 0.132961 148.13 -0.0483405 147.529 0.00907177C146.287 0.123896 145.371 1.22984 145.486 2.47175C146.619 14.6159 142.343 24.1766 133.124 30.1203C121.418 37.6685 103.031 37.9042 90.352 30.6732C85.0218 27.6334 78.4435 21.9798 77.3889 12.3225L77.3648 12.114L77.3799 11.9055C77.4675 10.7542 77.4917 9.59087 77.4464 8.44867C77.398 7.21582 76.3918 6.24585 75.1469 6.27607L74.9897 6.28211C73.7962 6.28211 72.7839 7.2551 72.7386 8.44867C72.6932 9.58785 72.7174 10.7512 72.805 11.9055L72.8202 12.114L72.796 12.3225C71.7384 21.9798 65.1632 27.6304 59.8329 30.6732C47.1569 37.9072 28.7668 37.6685 17.0608 30.1203C7.84463 24.1766 3.56893 14.6159 4.69904 2.47175C4.75645 1.87044 4.57213 1.28423 4.18837 0.818886C3.80462 0.353545 3.26071 0.066484 2.6594 0.00907177C2.05808 -0.0483405 1.46885 0.132961 1.00653 0.519738C0.541187 0.906515 0.254126 1.45042 0.196714 2.05174C-0.948509 14.3319 2.89811 24.515 11.3166 31.5012L11.6308 31.7641L11.8333 32.1206C14.4531 36.6894 17.3025 54.9888 16.8916 69.8284C16.7617 74.509 16.3598 79.2289 15.97 83.7947C15.5228 89.0494 15.0574 94.4824 15.0212 99.852L15.0151 100.082C14.9758 102.683 14.9456 135.151 14.9396 147.737C14.9396 148.982 15.9549 149.997 17.1998 149.997C18.4447 149.997 19.46 148.982 19.46 147.737V126.026L23.63 132.462C27.54 138.502 32.7797 144.077 39.6419 149.51C40.1526 149.915 40.6844 150 41.041 150C41.739 150 42.3856 149.689 42.8177 149.142C43.1924 148.667 43.3616 148.078 43.2921 147.477C43.2226 146.879 42.9235 146.341 42.4491 145.966C30.7914 136.738 24.0379 127.108 21.1915 115.658C18.6593 105.478 19.5446 95.1321 20.4814 84.1814C20.8772 79.5401 21.2851 74.7568 21.4181 69.9553C21.6749 60.6908 20.6929 48.9817 18.9191 40.1311L18.1184 36.1334L21.9378 37.5657C27.0656 39.4875 32.8643 40.5058 38.7022 40.5028C47.1116 40.5028 55.4152 38.4088 62.081 34.6045C66.8402 31.891 70.578 28.4674 73.1948 24.4304L75.0955 21.4994L76.9961 24.4304C79.6129 28.4644 83.3538 31.888 88.1099 34.6045C94.7788 38.4088 103.082 40.5028 111.489 40.5028C117.375 40.5028 123.213 39.4724 128.368 37.5204L132.199 36.073L131.393 40.0888C129.613 48.9454 128.628 60.6696 128.885 69.9583C129.018 74.7568 129.426 79.5371 129.818 84.1573C130.755 95.1381 131.64 105.484 129.108 115.664C126.262 127.114 119.508 136.744 107.851 145.972C107.376 146.347 107.077 146.885 107.008 147.483C106.938 148.084 107.107 148.673 107.482 149.148C107.914 149.692 108.561 150.006 109.259 150.006C109.615 150.006 110.15 149.921 110.658 149.517C117.52 144.084 122.757 138.508 126.667 132.468L130.837 126.032V147.743C130.837 148.991 131.852 150.003 133.097 150.003C134.342 150.003 135.357 148.988 135.357 147.743C135.348 135.157 135.321 102.695 135.282 100.091L135.276 100.066V99.861C135.236 94.4884 134.774 89.0554 134.324 83.8037C133.934 79.2349 133.532 74.515 133.402 69.8374C133.206 62.7093 133.725 54.4691 134.865 46.6369C135.366 43.1951 136.726 34.9006 138.59 31.9152L138.796 31.5767L139.08 31.338C147.347 24.3579 151.118 14.2352 149.985 2.06383L149.988 2.05174Z" fill="black"/>
<path d="M120.801 23.1462C122.05 23.1462 123.061 22.1342 123.061 20.8859C123.061 19.6377 122.05 18.6257 120.801 18.6257C119.553 18.6257 118.541 19.6377 118.541 20.8859C118.541 22.1342 119.553 23.1462 120.801 23.1462Z" fill="black"/>
<path fill-rule="evenodd" clip-rule="evenodd" d="M77.4101 130.534C77.4101 129.286 76.3948 128.274 75.1499 128.274C73.9049 128.274 72.8896 129.289 72.8896 130.534C72.8896 131.779 73.9049 132.794 75.1499 132.794C76.3948 132.794 77.4101 131.779 77.4101 130.534Z" fill="black"/>
</g>
<defs>
<clipPath id="clip0_1413_5039">
<rect width="150.184" height="150" fill="white"/>
</clipPath>
</defs>
</svg>
