<svg width="150" height="150" viewBox="0 0 150 150" fill="none" xmlns="http://www.w3.org/2000/svg">
<path d="M34.0896 60.9876C34.0553 60.4231 33.8079 59.8928 33.3976 59.5037C32.9872 59.1147 32.4444 58.8959 31.8789 58.8918H31.8597C31.2983 58.8916 30.7574 59.103 30.3448 59.4839C29.9323 59.8647 29.6784 60.3871 29.6338 60.9468C29.6121 61.2148 27.5176 87.9125 25.1371 99.4751C24.3713 103.202 23.894 107.613 23.2915 113.199C22.4134 121.344 21.2098 132.501 18.3622 147.313C18.2507 147.895 18.3748 148.497 18.7073 148.988C19.0397 149.478 19.5533 149.817 20.1351 149.928C20.2748 149.955 20.4167 149.968 20.5588 149.968C21.0777 149.967 21.5802 149.786 21.9801 149.455C22.3799 149.125 22.6523 148.665 22.7503 148.156C25.6311 133.162 26.8462 121.901 27.7282 113.678C28.3178 108.212 28.7837 103.894 29.5087 100.375C30.3804 96.1425 31.2024 90.0785 31.9031 83.9877C32.2758 86.7191 32.6996 89.476 33.1795 92.1283C35.8509 107.021 33.9453 120.854 32.2605 133.059C31.5547 138.188 30.8859 143.032 30.6013 147.597C30.5789 147.892 30.6155 148.188 30.7088 148.469C30.802 148.75 30.9502 149.009 31.1446 149.232C31.339 149.455 31.5757 149.638 31.8412 149.768C32.1066 149.899 32.3953 149.976 32.6907 149.994C32.986 150.013 33.282 149.972 33.5615 149.875C33.841 149.778 34.0985 149.626 34.3189 149.429C34.5393 149.231 34.7183 148.992 34.8454 148.725C34.9726 148.458 35.0454 148.168 35.0596 147.872C35.3327 143.478 35.9901 138.713 36.6857 133.668C38.4139 121.135 40.3718 106.928 37.5791 91.3395C35.14 77.7692 34.0998 61.1535 34.0896 60.9876Z" fill="black"/>
<path d="M38.5679 22.9377C50.3525 21.2351 63.7199 19.3052 63.7199 2.23384C63.7199 1.64144 63.4846 1.07331 63.0657 0.654423C62.6468 0.235535 62.0787 0.000205994 61.4863 0.000205994C60.8939 0.000205994 60.3257 0.235535 59.9068 0.654423C59.4879 1.07331 59.2526 1.64144 59.2526 2.23384C59.2526 14.7996 51.1503 16.607 37.9297 18.5164C29.5363 19.7277 20.0236 21.1023 13.6073 27.479C2.84757 38.1737 4.19158 59.2873 5.2701 76.2476C5.79214 84.4431 6.28354 92.1843 5.1948 96.5826C0.063818 117.326 0 146.508 0 147.739C0 148.332 0.235329 148.9 0.654217 149.319C1.0731 149.738 1.64124 149.973 2.23364 149.973C2.82603 149.973 3.39417 149.738 3.81306 149.319C4.23194 148.9 4.46727 148.332 4.46727 147.739C4.46727 147.443 4.52471 117.872 9.53061 97.6573C10.7865 92.5889 10.2964 84.8847 9.72844 75.9591C8.70735 59.8974 7.43099 39.907 16.7574 30.6482C22.1245 25.3118 30.4834 24.1056 38.5679 22.9377Z" fill="black"/>
<path d="M126.679 113.205C126.077 107.62 125.601 103.209 124.834 99.4816C122.456 87.919 120.361 61.2213 120.34 60.9482C120.296 60.3876 120.043 59.864 119.63 59.4821C119.218 59.1002 118.676 58.888 118.114 58.8881H118.095C117.529 58.8922 116.986 59.111 116.576 59.5C116.166 59.8891 115.918 60.4194 115.884 60.9839C115.874 61.1498 114.834 77.7655 112.397 91.3409C109.602 106.929 111.56 121.136 113.29 133.669C113.986 138.714 114.643 143.479 114.917 147.874C114.931 148.169 115.004 148.459 115.131 148.726C115.258 148.993 115.437 149.233 115.657 149.43C115.878 149.627 116.135 149.779 116.415 149.876C116.694 149.973 116.99 150.014 117.285 149.996C117.581 149.977 117.87 149.901 118.135 149.77C118.4 149.639 118.637 149.457 118.832 149.234C119.026 149.011 119.174 148.751 119.267 148.47C119.361 148.19 119.397 147.893 119.375 147.598C119.092 143.034 118.423 138.19 117.716 133.06C116.032 120.856 114.125 107.022 116.797 92.1297C117.271 89.48 117.69 86.7205 118.073 83.9891C118.774 90.0799 119.596 96.1439 120.467 100.376C121.192 103.895 121.657 108.213 122.247 113.68C123.134 121.902 124.348 133.164 127.224 148.157C127.323 148.667 127.595 149.126 127.995 149.457C128.395 149.787 128.897 149.969 129.416 149.969C129.558 149.969 129.7 149.956 129.84 149.93C130.422 149.818 130.935 149.48 131.268 148.989C131.6 148.499 131.724 147.896 131.613 147.315C128.764 132.507 127.56 121.351 126.679 113.205Z" fill="black"/>
<path d="M144.776 96.5824C143.688 92.1853 144.179 84.4442 144.701 76.2487C145.779 59.2845 147.126 38.1735 136.364 27.4788C129.947 21.097 120.435 19.7275 112.041 18.5162C98.8208 16.6068 90.7184 14.7994 90.7184 2.23364C90.7184 1.64124 90.4831 1.0731 90.0642 0.654217C89.6453 0.235329 89.0772 0 88.4848 0C87.8924 0 87.3243 0.235329 86.9054 0.654217C86.4865 1.0731 86.2512 1.64124 86.2512 2.23364C86.2512 19.305 99.6134 21.2349 111.403 22.9375C119.488 24.1054 127.847 25.3116 133.214 30.648C142.531 39.9132 141.264 59.9036 140.243 75.9589C139.675 84.8794 139.184 92.5823 140.439 97.6571C145.44 117.864 145.504 147.443 145.504 147.739C145.504 148.331 145.739 148.9 146.158 149.318C146.577 149.737 147.145 149.973 147.737 149.973C148.33 149.973 148.898 149.737 149.317 149.318C149.736 148.9 149.971 148.331 149.971 147.739C149.971 146.507 149.907 117.326 144.776 96.5824Z" fill="black"/>
<path d="M74.9864 67.7121C74.394 67.7121 73.8259 67.9474 73.407 68.3663C72.9881 68.7852 72.7528 69.3533 72.7528 69.9457V135.657C72.7528 136.249 72.9881 136.817 73.407 137.236C73.8259 137.655 74.394 137.89 74.9864 137.89C75.5788 137.89 76.1469 137.655 76.5658 137.236C76.9847 136.817 77.22 136.249 77.22 135.657V69.9444C77.2197 69.3522 76.9842 68.7844 76.5654 68.3658C76.1465 67.9472 75.5786 67.7121 74.9864 67.7121Z" fill="black"/>
<path d="M62.308 39.3276C62.0164 39.2917 61.7207 39.3139 61.4377 39.3929C61.1548 39.4719 60.8904 39.6062 60.6597 39.788C60.429 39.9699 60.2366 40.1956 60.0936 40.4522C59.9506 40.7088 59.8599 40.9912 59.8267 41.283L58.789 50.0083C58.4643 52.735 57.5653 55.362 56.1513 57.7161C54.7373 60.0701 52.8405 62.0978 50.5858 63.6653L46.5015 66.504C46.0149 66.8425 45.6827 67.3604 45.5779 67.9439C45.4732 68.5273 45.6046 69.1285 45.9431 69.6151C46.2816 70.1017 46.7995 70.4339 47.383 70.5387C47.9664 70.6434 48.5676 70.512 49.0542 70.1735L53.1347 67.3298C55.9081 65.4011 58.2412 62.9066 59.9805 60.0107C61.7199 57.1149 62.8259 53.8833 63.2257 50.529L64.2621 41.8038C64.3304 41.2165 64.1631 40.626 63.7968 40.1618C63.4305 39.6977 62.8951 39.3977 62.308 39.3276Z" fill="black"/>
<path d="M103.472 66.5043L99.3876 63.6657C97.133 62.098 95.2361 60.0703 93.822 57.7163C92.4078 55.3623 91.5085 52.7354 91.1832 50.0086L90.1467 41.2834C90.1175 40.9879 90.0296 40.7011 89.8883 40.4399C89.7469 40.1788 89.5549 39.9484 89.3234 39.7623C89.092 39.5763 88.8257 39.4382 88.5403 39.3563C88.2548 39.2743 87.9559 39.2501 87.661 39.2851C87.3661 39.3201 87.0811 39.4135 86.8227 39.5599C86.5643 39.7063 86.3377 39.9028 86.1562 40.1379C85.9747 40.3729 85.8418 40.6418 85.7654 40.9288C85.6891 41.2157 85.6707 41.5151 85.7114 41.8093L86.7478 50.5345C87.1481 53.8878 88.2542 57.1183 89.9933 60.0132C91.7324 62.9081 94.065 65.4019 96.8374 67.3302L100.922 70.1688C101.408 70.5073 102.01 70.6386 102.593 70.5339C103.176 70.4292 103.694 70.097 104.033 69.6104C104.371 69.1238 104.503 68.5226 104.398 67.9392C104.293 67.3557 103.961 66.8378 103.475 66.4992L103.472 66.5043Z" fill="black"/>
</svg>
