<svg width="151" height="150" viewBox="0 0 151 150" fill="none" xmlns="http://www.w3.org/2000/svg">
<path d="M34.6877 84.127C33.9739 85.9591 33.2914 87.8033 32.676 89.6719L32.511 90.1699L33.0168 90.3105C53.6762 96.0221 68.8374 113.149 75.1018 121.353L75.4993 121.873L75.8967 121.353C82.1612 113.149 97.3216 96.0215 117.983 90.3105L118.489 90.1709L118.324 89.6729C117.714 87.8165 117.037 85.9822 116.327 84.1621L116.103 83.585L115.585 83.9268C106.993 89.6143 92.5882 93.251 75.5012 93.251C58.3946 93.251 44.0094 89.5948 35.4299 83.8926L34.9133 83.5488L34.6877 84.127ZM75.4963 64.25C77.3081 64.25 78.7708 65.7083 78.7708 67.5C78.7706 69.2916 77.3081 70.75 75.4963 70.75C73.6846 70.75 72.2221 69.2916 72.2219 67.5C72.2219 65.7083 73.6845 64.25 75.4963 64.25ZM16.5588 31.459C17.7988 30.2275 19.7835 30.1891 21.0696 31.3438L21.1917 31.459L32.5159 42.708C33.7538 43.9377 33.7927 45.9044 32.634 47.1807L32.5188 47.3008L21.1946 58.5508C20.555 59.1858 19.7169 59.5029 18.8762 59.5029C18.0882 59.5028 17.3026 59.224 16.6809 58.666L16.5588 58.5508C15.321 57.3209 15.2823 55.3547 16.4426 54.0791L16.5588 53.958L21.4407 49.1084L22.301 48.2539H3.77661C1.96375 48.2537 0.502398 46.7967 0.502197 45.0039C0.502197 43.2109 1.96362 41.7542 3.77661 41.7539H22.2991L21.4387 40.8994L16.5588 36.0518C15.321 34.8219 15.2823 32.8557 16.4426 31.5801L16.5588 31.459ZM129.803 31.459C131.043 30.2275 133.028 30.1891 134.314 31.3438L134.436 31.459C135.674 32.6889 135.712 34.6551 134.552 35.9307L134.436 36.0518L129.556 40.8984L128.696 41.7539H147.22C149.033 41.7539 150.497 43.2129 150.497 45.0059C150.497 46.7988 149.036 48.2557 147.223 48.2559H128.698L129.559 49.1104L134.439 53.957C135.676 55.1868 135.715 57.1531 134.555 58.4287L134.439 58.5508C133.8 59.1857 132.961 59.5029 132.12 59.5029C131.332 59.5029 130.547 59.2239 129.925 58.666L129.803 58.5508L118.479 47.3008C117.241 46.0708 117.202 44.1047 118.363 42.8291L118.479 42.708L129.803 31.459ZM72.2268 128.497L72.137 128.368C70.5884 126.144 65.8727 119.732 58.804 113.112C51.739 106.496 42.2929 99.6423 31.2815 96.5811L30.7727 96.4395L30.6594 96.9561C27.761 110.165 28.9326 124.935 40.5764 144.602V144.603C41.4613 146.1 41.0051 148.017 39.5569 148.963L39.4143 149.051L39.4133 149.052C38.8917 149.357 38.3203 149.5 37.7561 149.5C36.7009 149.5 35.6741 148.995 35.0471 148.083L34.927 147.896C24.7595 130.725 21.9963 116.87 22.8596 104.766C23.6162 94.157 27.1582 84.8577 31.0256 75.7832L32.6956 71.9053C36.8084 62.4056 40.8439 53.0932 42.0881 42.4688C43.2956 32.1581 41.8736 20.6418 35.425 6.51367L34.7854 5.1377C34.0429 3.56525 34.6745 1.69882 36.2034 0.887695L36.3547 0.8125H36.3557C37.9925 0.0428014 39.9424 0.746849 40.7161 2.37012V2.37109C48.3576 18.5056 49.9716 31.6125 48.6311 43.123C47.4564 53.2098 44.0124 62.0949 40.3088 70.7666L38.7112 74.4727C38.3488 75.3123 37.9904 76.1468 37.6311 76.9805L37.4768 77.3389L37.7864 77.5752C44.3683 82.6205 58.3202 86.751 75.4993 86.751C92.6652 86.7509 106.629 82.6259 113.216 77.5859L113.527 77.3486L113.371 76.9902L112.286 74.4717C108.016 64.608 103.708 54.6504 102.365 43.123C101.025 31.6127 102.639 18.5062 110.281 2.37207C111.027 0.802022 112.884 0.0911117 114.49 0.745117L114.644 0.8125C116.23 1.55419 116.935 3.39521 116.281 4.98535L116.212 5.13867C109.219 19.8976 107.663 31.8256 108.91 42.4688C110 51.7652 113.226 60.0569 116.773 68.3486L118.307 71.9053C122.775 82.2293 127.279 92.6429 128.144 104.767C128.98 116.493 126.413 129.861 117.008 146.296L116.076 147.896C115.466 148.926 114.373 149.5 113.247 149.5C112.754 149.5 112.255 149.391 111.788 149.159L111.59 149.052L111.447 148.963C109.998 148.015 109.541 146.097 110.425 144.603L110.426 144.604C122.076 124.926 123.24 110.152 120.339 96.9355L120.226 96.4199L119.717 96.5615C108.736 99.6091 99.3186 106.427 92.261 113.031C85.1998 119.639 80.4702 126.061 78.8665 128.36L78.7766 128.489V146.248C78.7766 148.041 77.3144 149.498 75.5012 149.498C73.6882 149.498 72.2268 148.041 72.2268 146.248V128.497Z" fill="black" stroke="white"/>
</svg>
