<svg width="34" height="102" viewBox="0 0 34 102" fill="none" xmlns="http://www.w3.org/2000/svg">
<g clip-path="url(#clip0_1413_5229)">
<path d="M27.4205 15.2442C27.4205 16.42 26.8064 17.3733 26.0547 17.3733C25.3031 17.3733 24.689 16.42 24.689 15.2442C24.689 14.0684 25.2999 13.1118 26.0547 13.1118C26.8096 13.1118 27.4205 14.0652 27.4205 15.2442Z" fill="#E5A282"/>
<path d="M15.3814 15.2442C15.3814 16.42 14.7705 17.3733 14.0157 17.3733C13.2608 17.3733 12.6499 16.42 12.6499 15.2442C12.6499 14.0684 13.2608 13.1118 14.0157 13.1118C14.7705 13.1118 15.3814 14.0652 15.3814 15.2442Z" fill="#E5A282"/>
<path d="M21.8425 5.82818C21.8425 5.82818 19.1269 -3.99143 15.6886 1.8622C12.2502 7.71584 10.3023 8.13214 5.92676 8.65648C9.04209 10.0389 15.6502 11.1924 18.9766 6.31757C20.4223 5.49451 21.4555 6.49236 21.8425 5.82818Z" fill="#372419"/>
<path d="M22.6001 5.7869C22.6001 7.29004 21.3751 8.51034 19.8622 8.51034C18.3493 8.51034 17.1211 7.29321 17.1211 5.7869C17.1211 4.2806 18.3493 3.06665 19.8622 3.06665C21.3751 3.06665 22.6001 4.28377 22.6001 5.7869Z" fill="#D6FFCF"/>
<path d="M26.9501 11.6182C26.9501 15.5079 23.7772 18.6604 19.8623 18.6604C15.9473 18.6604 12.7744 15.5079 12.7744 11.6182C12.7744 7.7285 15.9473 4.57288 19.8623 4.57288C23.7772 4.57288 26.9501 7.72532 26.9501 11.6182Z" fill="#372419"/>
<g style="mix-blend-mode:multiply">
<path d="M14.572 11.6182C14.572 7.7285 16.9389 4.57288 19.8623 4.57288C16.3632 4.57288 13.5293 7.72532 13.5293 11.6182C13.5293 15.5111 16.3632 18.6604 19.8623 18.6604C16.9421 18.6604 14.572 15.5079 14.572 11.6182Z" fill="#D1D3D4"/>
<path d="M19.8589 4.57288C22.7791 4.57288 25.1492 7.72532 25.1492 11.6182C25.1492 15.5111 22.7823 18.6604 19.8589 18.6604C23.358 18.6604 26.1919 15.5079 26.1919 11.6182C26.1919 7.7285 23.358 4.57288 19.8589 4.57288Z" fill="#D1D3D4"/>
</g>
<g style="mix-blend-mode:multiply">
<path d="M16.507 11.6182C16.507 7.7285 18.0071 4.57288 19.8623 4.57288C17.6457 4.57288 15.8481 7.72532 15.8481 11.6182C15.8481 15.5111 17.6457 18.6604 19.8623 18.6604C18.0103 18.6604 16.507 15.5079 16.507 11.6182Z" fill="#D1D3D4"/>
<path d="M19.8589 4.57288C21.7108 4.57288 23.2109 7.72532 23.2109 11.6182C23.2109 15.5111 21.7108 18.6604 19.8589 18.6604C22.0754 18.6604 23.873 15.5079 23.873 11.6182C23.873 7.7285 22.0754 4.57288 19.8589 4.57288Z" fill="#D1D3D4"/>
</g>
<g style="mix-blend-mode:multiply">
<path d="M18.5574 11.6182C18.5574 7.7285 19.1395 4.57288 19.8592 4.57288C18.9988 4.57288 18.2983 7.72532 18.2983 11.6182C18.2983 15.5111 18.9956 18.6604 19.8592 18.6604C19.1395 18.6604 18.5574 15.5079 18.5574 11.6182Z" fill="#D1D3D4"/>
<path d="M19.8594 4.57288C20.579 4.57288 21.1612 7.72532 21.1612 11.6182C21.1612 15.5111 20.579 18.6604 19.8594 18.6604C20.7198 18.6604 21.4202 15.5079 21.4202 11.6182C21.4202 7.7285 20.7198 4.57288 19.8594 4.57288Z" fill="#D1D3D4"/>
</g>
<path d="M6.42254 81.0165L5.78604 71.3335H2.93618L2.24211 74.362L1.42969 81.1023L3.99168 81.8649L6.42254 81.0165Z" fill="#4E4C51"/>
<g style="mix-blend-mode:multiply">
<path d="M5.14957 73.8791L3.8158 73.4659C3.48316 74.0062 3.19849 74.9023 3.07055 75.9351C2.85625 77.6703 3.15691 79.1384 3.74543 79.2084C4.33396 79.2783 4.98645 77.9308 5.20075 76.1957C5.3127 75.2996 5.28391 74.4765 5.15277 73.8791H5.14957Z" fill="#D1D3D4"/>
</g>
<path d="M5.30906 73.9426L5.68969 79.7167L3.97209 80.3174L2.16175 79.7803L2.73747 75.0199L3.13729 73.2752V72.1725H3.09571L2.51038 74.718L1.8291 80.3841L3.97849 81.0228L6.02233 80.311L5.60333 73.9426H5.30906Z" fill="#D6FFCF"/>
<path d="M24.5866 68.3782C23.4672 68.3782 22.5012 69.1726 22.0406 70.323L14.409 70.1069L4.57685 71.483C4.57685 71.483 3.11194 73.1672 4.57685 74.5337C5.34449 75.0708 14.409 75.9097 14.409 75.9097L24.5866 75.2964C26.1539 75.2964 27.4205 73.7488 27.4205 71.8389C27.4205 69.929 26.1507 68.3813 24.5866 68.3813V68.3782Z" fill="#E5A282"/>
<g style="mix-blend-mode:multiply">
<path d="M24.676 68.3845C25.159 69.0042 25.4564 69.84 25.4564 70.7616C25.4564 72.6715 24.1898 74.2191 22.6226 74.2191L12.4449 74.8324C12.4449 74.8324 6.83479 74.3112 4.07129 73.8282C4.17364 74.0634 4.33357 74.3017 4.57985 74.5305C5.34749 75.0676 14.412 75.9065 14.412 75.9065L24.5896 75.2932C26.1569 75.2932 27.4235 73.7456 27.4235 71.8357C27.4235 69.9258 26.2017 68.4417 24.6792 68.3845H24.676Z" fill="#D1D3D4"/>
</g>
<path d="M23.8765 29.017C23.8893 30.9619 25.4822 32.5286 27.4397 32.5159C29.3971 32.5063 30.974 30.9174 30.9612 28.9757C30.9484 27.0309 29.3524 25.4642 27.3981 25.4769C25.4406 25.4896 23.8637 27.0754 23.8765 29.0202V29.017Z" fill="#E5A282"/>
<path d="M8.53027 29.017C8.54307 30.9619 10.1391 32.5286 12.0966 32.5159C14.0541 32.5063 15.6309 30.9174 15.6181 28.9757C15.6053 27.0309 14.0093 25.4642 12.055 25.4769C10.0975 25.4896 8.52068 27.0754 8.53347 29.0202L8.53027 29.017Z" fill="#E5A282"/>
<path d="M18.3401 72.0295H13.0914L12.7939 82.2782L14.1821 93.2958H17.2526L18.6376 82.2782L18.3401 72.0295Z" fill="#E5A282"/>
<path d="M19.7153 101.151L17.5019 94.6845L17.4092 92.0215H14.0219V94.497L13.7085 96.48L14.7224 101.24L17.2812 102L19.7153 101.151Z" fill="#4E4C51"/>
<path d="M18.4456 71.8389C18.4456 73.7488 17.179 75.2964 15.6117 75.2964C14.0444 75.2964 12.7778 73.7488 12.7778 71.8389C12.7778 69.929 14.0476 68.3813 15.6117 68.3813C17.1758 68.3813 18.4456 69.9321 18.4456 71.8389Z" fill="#E5A282"/>
<path d="M27.8682 51.7229L27.4012 72.2392C27.4012 72.2392 24.7241 70.3992 21.7527 70.1069L20.3325 58.1295L27.8682 51.7261V51.7229Z" fill="#4E4C51"/>
<path d="M30.3921 43.6479L31.3261 52.6413H33.6642L34 43.6479H30.3921Z" fill="#E5A282"/>
<path d="M30.7183 27.7078L33.9264 43.1999C34.2846 45.7803 31.745 45.7612 30.5295 43.9467C29.0135 40.8482 25.7798 31.3687 25.7798 31.3687L30.7183 27.7109V27.7078Z" fill="#E5A282"/>
<g style="mix-blend-mode:multiply">
<path d="M30.5294 42.9647L25.9204 32.4745L26.6753 30.4185L30.5294 42.9647Z" fill="#D1D3D4"/>
</g>
<path d="M34 43.6479C34 44.6362 33.194 45.437 32.196 45.437C31.1981 45.437 30.3921 44.6362 30.3921 43.6479C30.3921 42.6596 31.1981 41.8556 32.196 41.8556C33.194 41.8556 34 42.6596 34 43.6479Z" fill="#E5A282"/>
<path d="M30.6577 50.5979L28.5723 52.3171L28.9881 52.8478L31.694 51.7483L30.6577 50.5979Z" fill="#E5A282"/>
<path d="M30.6577 50.5979L31.259 52.3203L32.3849 50.8362L30.6577 50.5979Z" fill="#E5A282"/>
<path d="M32.3848 50.8363L33.6642 52.6413L32.564 54.2112L30.5073 52.1678L32.3848 50.8363Z" fill="#E5A282"/>
<path d="M28.3066 53.5121L29.6884 54.8913L32.5638 54.2112L30.5072 52.1678L28.3066 53.5121Z" fill="#E5A282"/>
<path d="M12.0742 51.7229L12.9698 71.0698C12.9698 71.0698 16.712 70.1069 18.4328 71.9659L20.0385 58.0024L12.0742 51.7229Z" fill="#4E4C51"/>
<path d="M28.1272 49.4857C28.1272 54.4178 24.4649 58.4155 19.9454 58.4155C15.4259 58.4155 11.7637 54.4178 11.7637 49.4857H28.124H28.1272Z" fill="#4E4C51"/>
<path d="M26.6018 36.5963C27.0336 35.6874 28.5657 28.0923 28.4601 26.2237C28.3482 24.2344 21.6377 23.656 19.9457 24.3488C18.2537 23.656 11.5433 24.2344 11.4313 26.2237C11.3258 28.0923 13.2993 36.6852 13.2993 36.6852C13.2993 36.6852 14.4123 42.7009 11.5113 49.2474C12.119 54.4305 16.8944 52.7017 18.6375 51.9327C22.367 50.2897 27.7756 54.4273 28.3834 49.2474C26.1572 44.2263 26.3779 38.8367 26.6018 36.5994V36.5963Z" fill="#D6FFCF"/>
<path d="M19.9458 24.3456C19.2229 24.0501 17.5821 23.9865 15.9316 24.1645L15.8165 24.5395C15.8165 24.5395 14.2364 33.2024 20.0513 33.2024C25.8662 33.2024 23.8031 24.5395 23.8031 24.5395L23.6784 24.1359C22.1271 23.9929 20.627 24.066 19.9458 24.3456Z" fill="#FDFEFF"/>
<path d="M23.4221 24.7078L21.9508 19.9506H17.6936L16.2223 24.7078C16.2223 24.7078 14.799 32.519 20.0381 32.519C25.2773 32.519 23.4221 24.7078 23.4221 24.7078Z" fill="#E5A282"/>
<g style="mix-blend-mode:multiply">
<path d="M22.4466 21.5554L21.9508 19.9506H17.6936L17.2778 21.298C18.135 22.191 18.9634 23.1602 19.9774 23.1602C20.9017 23.1602 21.6534 22.3085 22.4498 21.5554H22.4466Z" fill="#D1D3D4"/>
</g>
<path d="M26.1924 12.3619C26.1924 16.973 23.4065 22.3372 19.9713 22.3372C16.5361 22.3372 13.7534 16.973 13.7534 12.3619C13.7534 7.75079 16.5361 10.9191 19.9713 10.9191C23.4065 10.9191 26.1924 7.75079 26.1924 12.3619Z" fill="#E5A282"/>
<path d="M9.87995 26.2333L0.495567 37.5592C-1.01732 39.6852 1.24721 40.8292 3.16631 39.771C6.1569 38.1217 12.0965 32.5159 12.0965 32.5159L9.87995 26.2333Z" fill="#E5A282"/>
<g style="mix-blend-mode:multiply">
<path d="M4.16748 39.0274L12.0678 32.4747L11.3129 30.4186L4.16748 39.0274Z" fill="#D1D3D4"/>
</g>
<path d="M14.0156 42.9647L16.5264 43.9721L16.293 44.6045L14.2619 44.22L14.0156 42.9647Z" fill="#E5A282"/>
<path d="M14.0156 42.9647L14.6361 44.8397L12.4419 43.7115L14.0156 42.9647Z" fill="#E5A282"/>
<path d="M3.19839 37.3113L12.442 43.7115L11.3673 45.7739L0.994629 40.3398L3.19839 37.3113Z" fill="#E5A282"/>
<path d="M0.223537 37.9246C-0.233848 38.8049 0.111589 39.8854 0.994374 40.3398C1.88036 40.7942 2.96785 40.451 3.42523 39.5708C3.88261 38.6905 3.53718 37.61 2.65119 37.1556C1.76521 36.7011 0.677723 37.0444 0.220338 37.9215L0.223537 37.9246Z" fill="#E5A282"/>
<path d="M12.4419 43.7115L11.3672 45.774L13.2991 46.9784L14.636 44.4139L12.4419 43.7115Z" fill="#E5A282"/>
<path d="M16.2931 44.6045L16.0564 46.9784H13.2993L14.6363 44.4138L16.2931 44.6045Z" fill="#E5A282"/>
<g style="mix-blend-mode:multiply">
<path d="M20.3328 37.3113C20.0481 40.2731 14.2173 39.7233 14.2173 37.4702C14.2173 37.4702 17.275 40.5686 20.3328 37.3113Z" fill="#D1D3D4"/>
</g>
<g style="mix-blend-mode:multiply">
<path d="M20.333 37.3113C20.6177 40.2731 26.4485 39.7233 26.4485 37.4702C26.4485 37.4702 23.3908 40.5686 20.333 37.3113Z" fill="#D1D3D4"/>
</g>
<path d="M17.5019 94.6655L17.4092 92.0215H17.3804L17.4667 94.5669L17.5019 94.6655Z" fill="#4E4C51"/>
<path d="M17.2107 101.183L14.9653 100.516L14.0793 96.3402L14.3096 94.8721H14.2137L13.9546 96.5246L14.8822 100.894L17.233 101.593L19.4688 100.815L19.3409 100.44L17.2107 101.183Z" fill="#D6FFCF"/>
<g style="mix-blend-mode:multiply">
<path d="M16.9775 94.621H15.7845C15.6534 95.1453 15.6502 95.9461 15.8101 96.8201C16.0788 98.2882 16.7025 99.4037 17.1982 99.3147C17.694 99.2225 17.8795 97.9609 17.6108 96.4927C17.4701 95.7364 17.2398 95.0754 16.9775 94.621Z" fill="#D1D3D4"/>
</g>
</g>
<defs>
<clipPath id="clip0_1413_5229">
<rect width="34" height="102" fill="white"/>
</clipPath>
</defs>
</svg>
