<svg width="25" height="26" viewBox="0 0 25 26" fill="none" xmlns="http://www.w3.org/2000/svg">
<path fill-rule="evenodd" clip-rule="evenodd" d="M9.375 3.625C9.375 1.89911 10.7741 0.5 12.5 0.5C14.2259 0.5 15.625 1.89911 15.625 3.625C15.625 5.35089 14.2259 6.75 12.5 6.75C10.7741 6.75 9.375 5.35089 9.375 3.625ZM13.5417 3.625C13.5417 3.0497 13.0753 2.58333 12.5 2.58333C11.9247 2.58333 11.4583 3.0497 11.4583 3.625C11.4583 4.2003 11.9247 4.66667 12.5 4.66667C13.0753 4.66667 13.5417 4.2003 13.5417 3.625ZM15.6252 7.79167C15.9759 7.79167 16.2999 7.9678 16.4915 8.25479L16.5569 8.36749L19.394 14.0417H20.8333V11.9583C20.8333 11.383 21.2997 10.9167 21.875 10.9167C22.4092 10.9167 22.8495 11.3188 22.9097 11.8369L22.9167 11.9583V14.0417H23.9583C24.5336 14.0417 25 14.508 25 15.0833C25 15.6175 24.5979 16.0578 24.0798 16.118L23.9583 16.125H22.9167V18.2083C22.9167 18.7836 22.4503 19.25 21.875 19.25C21.3408 19.25 20.9005 18.8479 20.8403 18.3298L20.8333 18.2083V16.125H18.7728C18.7583 16.1253 18.7437 16.1253 18.7292 16.125H6.2712C6.2567 16.1253 6.24218 16.1253 6.22764 16.125H4.16667V18.2083C4.16667 18.7836 3.7003 19.25 3.125 19.25C2.5908 19.25 2.15051 18.8479 2.09034 18.3298L2.08333 18.2083V16.125H1.04167C0.46637 16.125 0 15.6586 0 15.0833C0 14.5491 0.402125 14.1088 0.920186 14.0487L1.04167 14.0417H2.08333V11.9583C2.08333 11.383 2.5497 10.9167 3.125 10.9167C3.6592 10.9167 4.09949 11.3188 4.15966 11.8369L4.16667 11.9583V14.0417H5.60644L8.44353 8.36749C8.60038 8.0538 8.90279 7.84281 9.24517 7.7998L9.37523 7.79167H15.6252ZM7.93567 14.0417H17.0645L14.9804 9.875H10.019L7.93567 14.0417ZM9.375 17.1667C9.9092 17.1667 10.3495 17.5688 10.4097 18.0869L10.4167 18.2083V24.4583C10.4167 25.0336 9.9503 25.5 9.375 25.5C8.8408 25.5 8.40051 25.0979 8.34034 24.5798L8.33333 24.4583V18.2083C8.33333 17.633 8.7997 17.1667 9.375 17.1667ZM16.6597 18.0869C16.5995 17.5688 16.1592 17.1667 15.625 17.1667C15.0497 17.1667 14.5833 17.633 14.5833 18.2083V24.4583L14.5903 24.5798C14.6505 25.0979 15.0908 25.5 15.625 25.5C16.2003 25.5 16.6667 25.0336 16.6667 24.4583V18.2083L16.6597 18.0869Z" fill="black"/>
</svg>
